<?xml version="1.0" encoding="UTF-8"?>
<!DOCTYPE svg PUBLIC "-//W3C//DTD SVG 1.1//EN" "http://www.w3.org/Graphics/SVG/1.1/DTD/svg11.dtd">
<!-- Creator: CorelDRAW 2021 (64-Bit) -->
<svg xmlns="http://www.w3.org/2000/svg" xml:space="preserve" width="29.9524mm" height="9.4464mm" version="1.1" style="shape-rendering:geometricPrecision; text-rendering:geometricPrecision; image-rendering:optimizeQuality; fill-rule:evenodd; clip-rule:evenodd"
viewBox="0 0 330.7 104.29"
 xmlns:xlink="http://www.w3.org/1999/xlink"
 xmlns:xodm="http://www.corel.com/coreldraw/odm/2003">
 <defs>
  <style type="text/css">
   <![CDATA[
    .fil1 {fill:#FEFEFE}
    .fil4 {fill:#FEFEFE}
    .fil2 {fill:#D1D2D4}
    .fil3 {fill:#D7743C}
    .fil0 {fill:#FEFEFE;fill-rule:nonzero}
   ]]>
  </style>
 </defs>
 <g id="Capa_x0020_1">
  <metadata id="CorelCorpID_0Corel-Layer"/>
  <g id="_2235581775968">
   <path class="fil0" d="M186.85 99.44c-0.25,0.19 -0.63,0.4 -1.17,0.6 -0.54,0.19 -1.12,0.3 -1.74,0.3 -1.01,0 -1.87,-0.22 -2.62,-0.65 -0.75,-0.43 -1.31,-1.01 -1.7,-1.75 -0.39,-0.73 -0.59,-1.53 -0.59,-2.4 0,-0.96 0.2,-1.81 0.59,-2.56 0.39,-0.75 0.94,-1.33 1.65,-1.76 0.71,-0.41 1.52,-0.62 2.45,-0.62 0.59,0 1.13,0.08 1.63,0.23 0.5,0.15 0.93,0.35 1.31,0.58l-0.75 1.78c-0.7,-0.52 -1.4,-0.78 -2.12,-0.78 -0.49,0 -0.94,0.13 -1.38,0.4 -0.43,0.27 -0.77,0.63 -1.02,1.09 -0.25,0.47 -0.38,0.98 -0.38,1.54 0,0.61 0.12,1.15 0.35,1.61 0.24,0.47 0.58,0.83 1.01,1.09 0.43,0.26 0.95,0.39 1.53,0.39 0.47,0 0.89,-0.08 1.27,-0.23 0.38,-0.14 0.67,-0.32 0.89,-0.53l0.79 1.68zm1.31 -3.96c0,-0.87 0.22,-1.67 0.67,-2.42 0.43,-0.75 1.04,-1.35 1.8,-1.8 0.75,-0.44 1.57,-0.66 2.45,-0.66 0.88,0 1.7,0.22 2.47,0.66 0.75,0.45 1.35,1.05 1.81,1.8 0.45,0.75 0.67,1.55 0.67,2.42 0,0.88 -0.22,1.7 -0.67,2.44 -0.46,0.74 -1.06,1.33 -1.81,1.76 -0.76,0.44 -1.59,0.66 -2.47,0.66 -0.89,0 -1.72,-0.22 -2.46,-0.66 -0.75,-0.43 -1.35,-1.02 -1.78,-1.76 -0.45,-0.74 -0.67,-1.55 -0.67,-2.44zm1.97 0c0,0.56 0.13,1.06 0.41,1.53 0.26,0.47 0.63,0.83 1.09,1.1 0.46,0.27 0.96,0.41 1.52,0.41 0.54,0 1.04,-0.14 1.48,-0.41 0.45,-0.27 0.8,-0.63 1.05,-1.1 0.25,-0.45 0.38,-0.97 0.38,-1.53 0,-0.57 -0.13,-1.09 -0.39,-1.55 -0.26,-0.47 -0.62,-0.84 -1.06,-1.12 -0.46,-0.27 -0.96,-0.4 -1.51,-0.4 -0.55,0 -1.05,0.13 -1.49,0.4 -0.46,0.27 -0.81,0.65 -1.07,1.12 -0.26,0.47 -0.4,0.98 -0.4,1.55zm18.49 -4.78l0 9.92 -0.05 0 -6.75 -6.02 0.04 5.64 -1.93 0 0 -9.91 0.08 0 6.74 6.11 -0.04 -5.74 1.91 0zm7.64 2.31c-0.84,-0.45 -1.57,-0.69 -2.19,-0.69 -0.42,0 -0.75,0.08 -0.97,0.25 -0.24,0.17 -0.35,0.41 -0.35,0.74 0,0.3 0.17,0.57 0.51,0.79 0.33,0.23 0.77,0.45 1.34,0.66 0.46,0.17 0.84,0.35 1.17,0.56 0.33,0.22 0.59,0.51 0.81,0.88 0.21,0.38 0.31,0.84 0.31,1.41 0,0.49 -0.13,0.95 -0.38,1.36 -0.26,0.43 -0.64,0.75 -1.14,1 -0.5,0.25 -1.09,0.38 -1.78,0.38 -0.58,0 -1.15,-0.08 -1.72,-0.26 -0.56,-0.17 -1.1,-0.41 -1.59,-0.76l0.84 -1.46c0.33,0.25 0.71,0.44 1.14,0.6 0.43,0.16 0.81,0.23 1.15,0.23 0.41,0 0.75,-0.09 1.05,-0.26 0.3,-0.17 0.44,-0.44 0.44,-0.81 0,-0.49 -0.47,-0.92 -1.4,-1.28 -0.55,-0.22 -1.01,-0.43 -1.38,-0.62 -0.37,-0.19 -0.68,-0.48 -0.94,-0.86 -0.28,-0.38 -0.41,-0.84 -0.41,-1.4 0,-0.81 0.27,-1.48 0.83,-1.98 0.54,-0.51 1.27,-0.78 2.18,-0.82 0.72,0 1.31,0.08 1.8,0.23 0.48,0.17 0.94,0.39 1.4,0.69l-0.72 1.44zm8.34 -2.31l0 1.81 -2.35 0 0 7.72 -1.9 0 0 -7.72 -2.25 0 0 -1.81 6.5 0zm7.04 9.53l-2.03 -3.03 -1.27 0 0 3.03 -1.9 0 0 -9.53 2.92 0c1.19,0 2.12,0.28 2.79,0.85 0.66,0.58 0.98,1.36 0.98,2.36 0,0.58 -0.12,1.14 -0.37,1.65 -0.25,0.52 -0.64,0.92 -1.15,1.22l2.24 3.46 -2.22 0zm-3.3 -4.84l1.35 0c0.51,0 0.89,-0.16 1.13,-0.45 0.24,-0.3 0.35,-0.61 0.35,-0.96 0,-0.35 -0.1,-0.67 -0.3,-1 -0.2,-0.31 -0.59,-0.47 -1.17,-0.47l-1.36 0 0 2.88zm8.8 1.32c0,0.3 0.09,0.6 0.27,0.87 0.18,0.27 0.43,0.5 0.73,0.67 0.3,0.17 0.63,0.26 0.98,0.26 0.38,0 0.72,-0.09 1.04,-0.26 0.31,-0.17 0.56,-0.4 0.75,-0.67 0.17,-0.27 0.26,-0.57 0.26,-0.87l0 -6.01 1.88 0 0 6.05c0,0.69 -0.17,1.3 -0.52,1.84 -0.35,0.56 -0.83,0.98 -1.42,1.28 -0.6,0.31 -1.26,0.47 -1.98,0.47 -0.72,0 -1.38,-0.16 -1.97,-0.47 -0.59,-0.3 -1.06,-0.73 -1.4,-1.28 -0.35,-0.54 -0.53,-1.15 -0.53,-1.84l0 -6.05 1.9 0 0 6.01zm15.44 2.73c-0.25,0.19 -0.63,0.4 -1.17,0.6 -0.54,0.19 -1.12,0.3 -1.74,0.3 -1.01,0 -1.88,-0.22 -2.62,-0.65 -0.75,-0.43 -1.31,-1.01 -1.7,-1.75 -0.39,-0.73 -0.59,-1.53 -0.59,-2.4 0,-0.96 0.2,-1.81 0.59,-2.56 0.39,-0.75 0.94,-1.33 1.65,-1.76 0.71,-0.41 1.52,-0.62 2.45,-0.62 0.59,0 1.13,0.08 1.63,0.23 0.5,0.15 0.93,0.35 1.31,0.58l-0.75 1.78c-0.69,-0.52 -1.4,-0.78 -2.12,-0.78 -0.48,0 -0.94,0.13 -1.38,0.4 -0.43,0.27 -0.77,0.63 -1.02,1.09 -0.25,0.47 -0.38,0.98 -0.38,1.54 0,0.61 0.12,1.15 0.35,1.61 0.24,0.47 0.58,0.83 1.01,1.09 0.43,0.26 0.94,0.39 1.53,0.39 0.47,0 0.89,-0.08 1.27,-0.23 0.38,-0.14 0.67,-0.32 0.89,-0.53l0.79 1.68zm9.14 0c-0.25,0.19 -0.63,0.4 -1.17,0.6 -0.54,0.19 -1.12,0.3 -1.74,0.3 -1.01,0 -1.88,-0.22 -2.62,-0.65 -0.75,-0.43 -1.31,-1.01 -1.71,-1.75 -0.39,-0.73 -0.59,-1.53 -0.59,-2.4 0,-0.96 0.2,-1.81 0.59,-2.56 0.39,-0.75 0.95,-1.33 1.65,-1.76 0.71,-0.41 1.52,-0.62 2.45,-0.62 0.59,0 1.13,0.08 1.63,0.23 0.5,0.15 0.93,0.35 1.31,0.58l-0.75 1.78c-0.7,-0.52 -1.4,-0.78 -2.12,-0.78 -0.49,0 -0.94,0.13 -1.38,0.4 -0.43,0.27 -0.77,0.63 -1.02,1.09 -0.25,0.47 -0.38,0.98 -0.38,1.54 0,0.61 0.12,1.15 0.35,1.61 0.24,0.47 0.58,0.83 1.01,1.09 0.43,0.26 0.95,0.39 1.53,0.39 0.47,0 0.89,-0.08 1.27,-0.23 0.38,-0.14 0.67,-0.32 0.89,-0.53l0.79 1.68zm3.8 -8.74l0 9.53 -1.9 0 0 -9.53 1.9 0zm1.9 4.78c0,-0.87 0.22,-1.67 0.67,-2.42 0.43,-0.75 1.04,-1.35 1.8,-1.8 0.75,-0.44 1.57,-0.66 2.45,-0.66 0.88,0 1.7,0.22 2.47,0.66 0.75,0.45 1.35,1.05 1.81,1.8 0.45,0.75 0.67,1.55 0.67,2.42 0,0.88 -0.22,1.7 -0.67,2.44 -0.46,0.74 -1.06,1.33 -1.81,1.76 -0.76,0.44 -1.59,0.66 -2.47,0.66 -0.89,0 -1.72,-0.22 -2.46,-0.66 -0.75,-0.43 -1.35,-1.02 -1.78,-1.76 -0.44,-0.74 -0.67,-1.55 -0.67,-2.44zm1.97 0c0,0.56 0.13,1.06 0.41,1.53 0.26,0.47 0.63,0.83 1.09,1.1 0.46,0.27 0.96,0.41 1.52,0.41 0.54,0 1.04,-0.14 1.48,-0.41 0.45,-0.27 0.8,-0.63 1.05,-1.1 0.25,-0.45 0.38,-0.97 0.38,-1.53 0,-0.57 -0.13,-1.09 -0.39,-1.55 -0.26,-0.47 -0.62,-0.84 -1.06,-1.12 -0.46,-0.27 -0.96,-0.4 -1.51,-0.4 -0.55,0 -1.05,0.13 -1.49,0.4 -0.46,0.27 -0.81,0.65 -1.08,1.12 -0.26,0.47 -0.39,0.98 -0.39,1.55zm3.46 -5.27l-1.11 0 1.02 -1.75 2.03 0 -1.94 1.75zm15.03 0.49l0 9.92 -0.05 0 -6.75 -6.02 0.04 5.64 -1.93 0 0 -9.91 0.08 0 6.74 6.11 -0.04 -5.74 1.91 0z"/>
   <path class="fil0" d="M143.63 78.11c0,0 0,0.03 0,0.06 -0.03,0.28 -0.06,0.5 -0.06,0.63 0,0.88 0.38,1.53 1.13,1.94 0.75,0.44 1.91,0.66 3.48,0.66 1.19,0 2.13,-0.19 2.82,-0.53 0.66,-0.34 1,-0.85 1,-1.44 0,-0.94 -1.35,-1.69 -4.01,-2.25 -0.31,-0.09 -0.56,-0.12 -0.72,-0.16 -0.16,-0.06 -0.41,-0.09 -0.75,-0.19 -4.26,-0.91 -6.98,-1.91 -8.2,-3.01 -0.6,-0.53 -1.03,-1.16 -1.35,-1.88 -0.28,-0.72 -0.44,-1.53 -0.44,-2.44 0,-2.22 0.97,-3.91 2.94,-5.07 1.94,-1.19 4.82,-1.75 8.58,-1.75 3.73,0 6.48,0.53 8.27,1.63 1.78,1.1 2.69,2.76 2.69,5.04l0 0.25 -7.05 0 0 -0.09c0,-0.78 -0.34,-1.38 -1.06,-1.78 -0.72,-0.41 -1.75,-0.6 -3.13,-0.6 -1.06,0 -1.91,0.12 -2.47,0.44 -0.6,0.28 -0.88,0.69 -0.88,1.22 0,0.94 1.53,1.72 4.6,2.38 0.6,0.13 1.07,0.22 1.41,0.28 2.19,0.5 3.76,0.94 4.66,1.28 0.94,0.34 1.72,0.75 2.41,1.25 0.75,0.53 1.35,1.22 1.75,2.07 0.41,0.85 0.6,1.75 0.6,2.76 0,2.29 -1.06,4.04 -3.19,5.29 -2.13,1.22 -5.2,1.85 -9.2,1.85 -3.95,0 -6.83,-0.6 -8.58,-1.78 -1.79,-1.19 -2.66,-3.1 -2.66,-5.7l0 -0.34 7.42 0zm19.32 7.45l0 -22.54 20.1 0 0 4.85 -12.56 0 0 3.6 11.62 0 0 4.79 -11.62 0 0 4.38 13.03 0 0 4.92 -20.57 0zm23.73 0l0 -22.54 9.55 0 10.24 15.12 0 -15.12 7.23 0 0 22.54 -9.89 0 -9.89 -15.19 0 15.19 -7.23 0zm46.53 -8.99l-3.6 -8.2 -3.82 8.2 7.42 0zm-11.49 8.99l-7.58 0 11.68 -22.54 8.39 0 11.15 22.54 -8.42 0 -1.69 -4.07 -11.71 0 -1.82 4.07z"/>
   <path class="fil0" d="M269.63 76.38l-3.64 -8.29 -3.86 8.29 7.5 0zm-11.61 9.08l-7.66 0 11.8 -22.78 8.48 0 11.26 22.78 -8.51 0 -1.71 -4.11 -11.83 0 -1.84 4.11zm32.12 -18.03l0 4.78 4.33 0c1.01,0 1.77,-0.19 2.28,-0.6 0.47,-0.38 0.73,-1.01 0.73,-1.8 0,-0.79 -0.25,-1.39 -0.76,-1.77 -0.51,-0.41 -1.27,-0.6 -2.25,-0.6l-4.33 0zm-7.66 18.03l0 -22.78 13.99 0c3.07,0 5.28,0.54 6.68,1.65 1.39,1.11 2.09,2.85 2.09,5.22 0,2.4 -0.73,4.27 -2.18,5.6 -1.46,1.36 -3.48,2.02 -6.11,2.02l-6.8 0 0 8.29 -7.66 0zm33.13 -18.03l0 4.78 4.33 0c1.01,0 1.77,-0.19 2.28,-0.6 0.47,-0.38 0.73,-1.01 0.73,-1.8 0,-0.79 -0.25,-1.39 -0.76,-1.77 -0.51,-0.41 -1.27,-0.6 -2.25,-0.6l-4.33 0zm-7.66 18.03l0 -22.78 13.98 0c3.07,0 5.28,0.54 6.68,1.65 1.39,1.11 2.09,2.85 2.09,5.22 0,2.4 -0.73,4.27 -2.18,5.6 -1.46,1.36 -3.48,2.02 -6.11,2.02l-6.8 0 0 8.29 -7.66 0z"/>
   <path class="fil1" d="M238.24 3.79c-2.14,-0.04 -4.29,-0.08 -6.43,-0.11 -2.1,0.14 -3.67,0.85 -4.48,2.39 -7.55,12.98 -15.09,25.95 -22.64,38.93l4.77 8.3c0,0.01 17.54,0.05 19.15,0.06 3.21,-5.51 6.42,-11.03 9.62,-16.55l-4.79 -8.26c-3.2,5.5 -6.4,11 -9.59,16.5l-9.58 -0.02c8.09,-13.91 15.99,-27.49 23.97,-41.22z"/>
   <polygon class="fil1" points="243.03,12.04 238.28,20.22 252.58,45.12 243.07,45.1 243,45.1 238.24,53.29 257.43,53.29 262.22,45.04 "/>
   <path class="fil2" d="M209.64 53.24l0.01 0.01c0,0.01 17.23,0.05 19.11,0.06l-4.73 -8.31 -9.74 -0.02 -4.65 8.26z"/>
   <polygon class="fil2" points="252.53,45.02 243.02,44.99 238.19,53.18 257.35,53.18 "/>
   <polygon class="fil3" points="-0,46.62 44.38,46.62 18.33,93.91 12.8,88.48 29.4,58.46 29.81,57.62 30.03,56.81 29.92,55.86 29.64,55.34 29.26,54.94 28.36,54.46 27.21,54.25 -0,54.25 "/>
   <path class="fil3" d="M48.56 3c5.73,0 10.39,4.9 10.39,10.91 0,6 -4.66,10.9 -10.39,10.9 -5.72,0 -10.39,-4.9 -10.39,-10.9 0,-6.01 4.67,-10.91 10.39,-10.91z"/>
   <polygon class="fil3" points="48.31,54.57 23.86,97.94 30.37,101.3 46.38,73.08 46.87,72.44 47.56,72.07 48.45,71.89 49.46,72.07 50.08,72.5 50.53,73.08 66.69,101.3 73.32,97.69 "/>
   <polygon class="fil3" points="52.05,46.56 96.95,46.56 96.95,54.06 69.52,54.06 68.65,54.35 67.86,54.75 67.2,55.48 66.92,56.36 66.92,57.16 67.14,58.01 84.08,88.42 78.75,93.69 "/>
   <path class="fil3" d="M10.71 38.19l0 0.04c-0.03,0.18 -0.05,0.31 -0.05,0.4 0,0.56 0.31,0.97 0.92,1.25 0.62,0.27 1.57,0.41 2.86,0.41 0.98,0 1.74,-0.11 2.29,-0.33 0.56,-0.23 0.83,-0.54 0.83,-0.92 0,-0.61 -1.1,-1.08 -3.29,-1.46 -0.26,-0.04 -0.46,-0.07 -0.58,-0.09 -0.14,-0.03 -0.35,-0.07 -0.61,-0.11 -3.49,-0.59 -5.74,-1.24 -6.74,-1.94 -0.48,-0.34 -0.85,-0.74 -1.1,-1.21 -0.25,-0.45 -0.37,-0.98 -0.37,-1.56 0,-1.42 0.81,-2.51 2.41,-3.25 1.6,-0.75 3.95,-1.12 7.05,-1.12 3.05,0 5.31,0.35 6.78,1.05 1.48,0.7 2.21,1.78 2.21,3.22l0 0.17 -5.78 0 0 -0.07c0,-0.5 -0.3,-0.87 -0.87,-1.12 -0.59,-0.26 -1.45,-0.39 -2.58,-0.39 -0.88,0 -1.56,0.09 -2.03,0.27 -0.48,0.19 -0.71,0.45 -0.71,0.79 0,0.59 1.26,1.12 3.79,1.53 0.48,0.08 0.86,0.14 1.14,0.18 1.8,0.31 3.08,0.58 3.84,0.8 0.77,0.24 1.42,0.49 1.97,0.81 0.61,0.35 1.09,0.79 1.43,1.33 0.34,0.54 0.5,1.13 0.5,1.77 0,1.46 -0.87,2.59 -2.62,3.38 -1.75,0.79 -4.27,1.19 -7.55,1.19 -3.25,0 -5.59,-0.38 -7.05,-1.14 -1.45,-0.77 -2.18,-1.99 -2.18,-3.67l0 -0.21 6.08 0zm15.86 4.77l0 0 0 -14.45 16.49 0 0 3.11 -10.3 0 0 2.3 9.52 0 0 3.08 -9.52 0 0 2.8 10.68 0 0 3.16 -16.88 0zm19.46 0l0 0 0 -14.45 7.84 0 8.39 9.7 0 -9.7 5.94 0 0 14.45 -8.12 0 -8.11 -9.73 0 9.73 -5.93 0zm38.18 -5.77l0 0 -2.96 -5.25 -3.13 5.25 6.1 0zm-9.43 5.77l0 0 -6.21 0 9.58 -14.45 6.87 0 9.15 14.45 -6.9 0 -1.39 -2.61 -9.61 0 -1.49 2.61z"/>
   <path class="fil4" d="M116.58 0l1.58 0c0.27,0 0.49,0.22 0.49,0.49l0 103.32c0,0.27 -0.22,0.49 -0.49,0.49l-1.58 0c-0.27,0 -0.49,-0.22 -0.49,-0.49l0 -103.32c0,-0.27 0.22,-0.49 0.49,-0.49z"/>
  </g>
 </g>
</svg>
