<svg width="39369.01" height="9274.77" xmlns="http://www.w3.org/2000/svg" xml:space="preserve" version="1.1" clip-rule="evenodd">
 <g>
  <title>Layer 1</title>
  <metadata id="CorelCorpID_0Corel-Layer" stroke="null"/>
  <g id="_1714108545664" stroke="null">
   <path class="fil0" d="m27350.61448,1069.73997l3.23497,765.19c-123.07183,25.81 -162.0441,0.08 -322.35143,81.73c-320.53832,163.26 -407.00447,442.36 -411.07919,796.09l3155.39874,0c-5.70652,-357.14 -85.8077,-623.23 -405.36313,-793.54c-129.26502,-68.89 -197.70506,-58.12 -327.88618,-84.06l0.15268,-765.61c53.83021,-2.48 128.70201,10.45 173.39034,-9.91c37.67447,-17.14 66.41699,-75.39 40.20327,-132.6l-2116.04916,-0.03c-25.68887,53.56 1.46957,111.91 34.46813,129.85c41.78736,22.72 124.89448,9.97 175.86189,12.88l0.01909,0.01l-0.00002,0zm-44.75513,4717.61c12.64404,476.54 -59.31724,471.4 216.26556,471.39l1344.257,0c278.88457,0 215.11089,13.07 223.97604,-471.54c449.50753,-119.9 680.65011,-293.67 685.73635,-843.35l-3155.88541,0c4.39917,549 236.77276,723.13 685.65047,843.5l-0.00001,0zm2468.44092,-1170.18l1.70814,-1619.78l-3156.06672,0l0.47713,1619.78l3153.88145,0zm-1606.32738,-1339.77c-47.99009,17.39 -72.74378,69.56 -112.29815,124.45c-78.90835,109.55 -211.0648,326.04 -242.85144,462.07c-64.33669,275.25 170.47028,512.91 422.33,490.54c234.26303,-20.8 429.89734,-273.33 329.02176,-552.31c-59.64169,-164.91 -163.74269,-310.25 -257.2227,-447.4c-28.81887,-42.28 -67.49531,-103.24 -138.97946,-77.35l-0.00001,0zm30.20255,251.14c-40.93806,33.94 -162.0441,257.24 -192.14168,332.11c-63.8023,158.7 49.77457,303.99 192.16077,304.08c140.24864,0.1 255.1424,-144.86 194.75638,-298.7c-28.10317,-71.58 -152.63503,-302.4 -194.77546,-337.49l-0.00001,0zm-659.90434,-1691.07l568.0275,1.3l0.24811,-309.1c-49.11613,-1 -162.03456,5.95 -202.51457,-3.15c-48.89665,-11 -89.19535,-67.22 -65.78718,-131.6c22.80698,-62.75 76.39863,-59.06 147.66329,-58.8l416.66165,0.01c72.77241,-0.16 132.01331,-6.1 155.70777,58.55c22.49208,61.38 -14.4476,116.88 -60.01386,130.4c-33.19895,9.86 -164.27708,3.99 -208.29743,4.53l0.01909,309.16l567.72214,-0.17l0.34354,-768.36l-1319.61783,-1.26l-0.16223,768.49l0.00001,0z" fill="#B67149" id="svg_1" stroke="null"/>
   <path class="fil1" d="m26056.31336,3303.81997l-2191.61758,-2296.65l-202.04698,448.77l223.44165,369.66l-281.58514,381.85c-53.10497,72.03 -167.8365,44.76 -163.64727,116.81c11.68023,200.95 284.00898,478.22 284.00898,478.22l-229.2913,358.25l72.82967,101.3l-6.41268,378.99l57.2942,120.08l873.6888,90.05l7.16655,577.85l-794.92359,-37.52l-100.24576,-390.25l-64.46074,435.28l-22.90241,724.2l-111.02898,123.83l-868.65981,-105.07l-14.31401,-525.33l121.72631,-105.05l604.07017,-11.61l107.42185,-112.57l-737.6294,-22.51l-85.96038,-52.53l93.0983,-637.91l529.96179,-52.53l71.6082,-502.81l220.39753,-245.98l-134.46578,-391.94l-146.78537,-153.83l0,-251.42l170.07903,-178.22l-8.97011,-249.55l-200.51061,-120.08l78.78429,-82.56l-201.4935,-119.06l187.80931,-436.97l-2059.57564,2158.29l387.91913,113.85l237.11629,3034.84l1585.10448,-88.08l1328.83605,91.31l515.88635,-35.77l123.12909,-129.02l66.30248,-1349.88l142.08083,-1409.42l536.77525,-9.31l-0.00954,0zm-2388.77871,1861.72l0,-577.9l837.9515,172.63l-35.82319,442.79l-701.87301,67.56l-100.26485,-105.07l0.00954,-0.01l0.00001,0z" fill="#CD3539" id="svg_2" stroke="null"/>
   <path class="fil2" d="m30591.27699,1502.76997c76.99981,88.69 59.72758,56.83 59.27907,209.4l-0.00954,1581.27c-15.85038,41.88 -54.50774,56.72 -89.1858,116.7c-27.42564,47.42 -32.13972,90.65 -52.81868,139.5l0,71.29c30.50792,92.45 11.43212,116.08 75.83561,193.44c85.20651,102.35 66.44562,43.96 66.16888,226.8c-0.79204,514.92 53.12405,949.35 350.63591,1359.27c235.78986,324.88 560.04029,604.68 960.96607,721.22c171.51043,49.85 243.76754,35.18 304.83109,109.58c21.41375,26.1 45.28952,48.41 76.20777,67.08c138.6073,83.68 322.29418,39.49 402.987,-59.41c63.25837,-77.49 27.38747,-44.53 190.92976,-82.5c68.86946,-15.98 151.56625,-43.37 214.93913,-68c135.75404,-52.73 256.92688,-118.12 366.534,-192.21c60.28105,-40.73 101.35271,-75.57 156.27078,-118.12c222.62098,-172.56 469.31811,-529.48 576.96898,-842.16c124.46506,-361.53 115.91483,-625.4 115.91483,-1029.59c10.52557,-47.52 153.27438,-93.55 154.99207,-306.38c1.73677,-214.89 -125.21893,-233 -154.99207,-318.78c0.02863,-178.57 39.89791,-323.57 123.73027,-423.04c226.01817,-268.23 495.24555,-203.82 859.76605,-203.82c176.11,0 353.19335,-1.91 529.16974,0.49c48.47677,106.87 193.92616,205.97 362.71693,162.76c83.08804,-21.26 122.69012,-55.99 167.98918,-105.04c62.85758,-68.09 51.83579,-101.02 86.46614,-187.44l0,-1136.07c-34.79258,-57.71 -58.17212,-213.15 -245.84784,-264.71c-203.9078,-56.02 -291.17553,73.69 -350.66454,121.98c-119.85595,97.3 -1144.92969,-120.7 -1761.41487,189.57c-127.59506,64.21 -356.78139,201.19 -450.39499,300.02c-123.77799,130.68 -230.76087,221.69 -339.3851,404.03c-136.25026,228.74 -235.54175,458.42 -278.67463,737.43c-24.23838,156.8 -15.86946,411.07 -54.1642,445.79c-173.88655,157.69 -168.4186,381.61 -28.69481,522.03c74.21335,74.58 53.89701,48.24 53.42942,183.69c-0.57256,161.07 14.81977,321.66 -47.40799,459.62c-50.70975,112.46 -133.12981,210.95 -228.22252,258.66c-213.11648,-182.65 -327.62853,-144.75 -514.68397,-0.12c-103.37576,-56.97 -203.23027,-168.96 -247.68003,-311.35c-38.02754,-121.83 -32.11109,-387.72 -25.8511,-529.33c2.54789,-6.22 264.43696,-181.84 138.25422,-458.89c-60.52916,-132.88 -132.0324,-110.65 -139.99099,-191.29l1.50774,-1666.56c1.92762,-5.16 286.99584,-209.04 122.48018,-491.26c-105.26521,-180.57 -272.21424,-170.67 -515.47601,-170.67c-229.98792,0 -460.31937,-1.34 -690.25003,-0.2c-332.86746,1.66 -502.03993,346.25 -303.17066,575.29l0.00954,0.03l0.00001,0zm986.61677,1571.62c122.38476,-14.15 112.96614,-76.16 112.39358,-209.92l0.05726,-637.52c0.5153,-115.02 1.75585,-201.09 -121.71677,-196.99c-98.01278,27.59 -83.99459,104.94 -83.60334,221.57l-0.04771,612.91c-0.52485,111.71 -10.95499,184.85 92.92653,209.95l-0.00954,0l-0.00001,0zm-524.50338,386.08c-125.14259,1.13 -298.27527,-28.23 -331.86548,94.23c-56.32085,205.39 197.42832,177.44 254.89429,177.44c64.64205,0.01 805.77361,21.77 855.88218,-13.3c85.7409,7.17 140.28681,-102.97 90.61721,-191.28c-45.15592,-80.27 -140.45858,-66.93 -244.64546,-66.8c-208.08749,0.28 -416.87159,1.54 -624.88274,-0.29zm770.48481,-2306.63c-31.13774,-27.38 -776.30584,-11.3 -918.12902,-11.67c-99.84497,-0.25 -185.10874,19.6 -189.6415,129.01c-4.66637,112.5 77.99225,143.03 177.95173,143.09c76.78033,0.06 893.79521,18.02 935.21995,-12.9c147.05256,11.65 149.78177,-253.78 -5.40115,-247.54l0,0.01l-0.00001,0zm2384.05508,2565.24c79.54771,8.26 133.47334,-93.48 99.52052,-176.93c-36.60569,-89.98 -139.23712,-81.6 -242.93732,-81.39c-211.53239,0.43 -423.24609,0.52 -634.78803,-0.05c-141.25062,0.12 -300.24106,-29.45 -331.76051,95.1c-45.49946,179.8 123.59668,176.36 253.00484,176.34l643.35735,1.72c58.77331,0 172.55058,12.72 213.59361,-14.78l0.00954,-0.01zm-1569.13005,2053.75c-0.94472,-176.71 -0.18131,-353.63 -0.18131,-530.37c0,-147.48 42.46489,-398.91 -129.8185,-398.1c-173.9629,0.83 -129.14097,253.54 -129.14097,398.1c0,176.6 0.62982,353.32 -0.16223,529.9c0.6489,147.19 -33.46615,355.07 129.30319,355.57c164.26754,0.49 129.45588,-207.21 129.99981,-355.1l0.00001,0zm3642.97198,-4323.79c6.41268,-167.62 -244.38781,-153.98 -235.91392,-3.58c-38.32337,53.18 -13.22614,225.39 -13.22614,303.49c0,110.33 0.00954,220.65 0,330.96c-0.00954,110.53 1.42186,220.97 1.04969,331.49c-0.36262,106.75 18.31239,196.77 124.69408,200.35c106.37216,3.59 134.58983,-84.42 134.91429,-188.03c0.48668,-148.97 14.42852,-942.53 -11.52755,-974.68l0.00954,0l0.00001,0zm-1482.96927,238.56c31.47173,95.81 72.03762,93.06 178.06624,92.47l538.11123,-0.23c110.99081,0.37 176.25314,16.69 211.63736,-74.32c20.63126,-188.78 -175.38475,-140.67 -445.5664,-140.67c-97.49747,0 -195.04266,0.33 -292.52104,-0.14c-118.49135,-0.56 -176.72073,-7.84 -189.72739,122.9l0,-0.01zm-2725.5014,3432.28c32.78862,-73.11 19.22848,-112.16 -28.11271,-151.77c-36.787,-30.76 -71.8086,-54.25 -104.25368,-86.74c-398.86457,-399.33 -123.92113,-770.62 -356.23746,-803.34c-71.98037,13.5 -97.43067,50.56 -100.04536,134c-10.2202,326.72 112.46992,616.88 324.92795,831.57c108.61468,109.75 173.37125,167.25 263.72126,76.27l0,0.01z" fill="#00AEEC" id="svg_3" stroke="null"/>
   <path class="fil3" d="m41383.22697,3708.65997c0.34354,0.64 0.68707,0.9 0.79204,2.04c-6.74667,793.77 -431.17605,1296.67 -1113.67744,1542.56c-4.35146,1.76 -11.89017,5.32 -15.79312,7.25l223.14582,1096.07c-0.96381,4.22 -1.09741,3.96 -2.30933,6.02l-2483.46109,2.16c-34.24865,0.05 -52.25567,5.16 -39.20129,-39.58c32.56914,-111.53 235.74215,-1025.4 225.73189,-1064.08c-2.39521,-9.23 -41.94958,-20.46 -54.73676,-25.99c-24.11433,-11.47 -57.17969,-18.17 -86.13215,-30.94c-663.44467,-331.66 -993.4207,-743.29 -993.4207,-1534.39l-0.04771,-1634c-0.02863,-9.24 -3.68347,-33.39 6.71804,-35.91l15.44004,-1.36c471.13122,3.81 950.20194,-11.27 1420.22621,0.49c1.25009,13.13 2.83417,18.7 2.74829,34.42c-2.08984,383.37 -0.00954,766.82 -0.00954,1150.2c0,24.25 -2.60515,503.98 0.38171,515.92l2893.6051,9.13l0,-0.01l-0.00001,0zm-2893.95818,-2284.75c0,20.88 2.2139,182.82 -2.29978,189.73l-1439.88411,5.9c-4.48506,-54.18 -9.34228,-229.68 2.68149,-262.16l1.38369,-3.18c50.03222,-154.37 74.21335,-256.3 347.83991,-306.94c74.07021,-0.13 742.36256,-3.53 769.26335,2.27c101.58173,21.91 321.06317,56.84 321.01546,374.38l-0.00001,0zm2827.14039,1904.99c-818.21725,0 -1638.06631,1.76 -2456.09271,-0.11c-5.9928,-11.04 -7.18563,-10.31 -7.18563,-26.6c0,-187.19 -25.31671,-354.93 211.49422,-354.93l2084.31978,-0.01c206.5702,0 238.56678,85.68 238.56678,279.05c0,117.23 18.02611,102.6 -71.10244,102.6z" fill="#F2CB3F" id="svg_4" stroke="null"/>
   <path class="fil4 str0" d="m6867.9865,3615.50997l8378.15993,0c487.88815,0 887.05808,418.3 887.05808,929.57l0,101.46c0,455.47 -355.60764,828.11 -790.23814,828.11l-8534.70745,0l2026.7393,2098.26c347.07649,359.33 350.49277,950.89 7.60551,1314.59l-68.03925,72.18c-305.4609,323.99 -808.36922,327.2 -1117.55176,7.1l-3467.85442,-3590.21c-37.1687,-38.48 -69.90961,-79.92 -98.34677,-123.6c-160.05922,-153.92 -260.8012,-374.67 -260.8012,-618.88l0,-89.02c0,-267 108.90096,-508.59 282.40581,-678.55c22.39665,-30.81 47.06445,-60.37 74.07976,-88.34l3467.84488,-3590.21c309.18255,-320.1 812.09086,-316.9 1117.56131,7.11l68.03925,72.17c342.87772,363.7 339.46144,955.26 -7.61505,1314.59l-1964.33023,2033.66l-0.00954,0.01l-0.00002,0z" stroke-width="19.99" stroke-linecap="round" stroke-linejoin="round" stroke-miterlimit="22.9256" fill="#FEFEFE" id="svg_5" stroke="#DC8553"/>
  </g>
  <g>
   <path stroke="null" fill-rule="evenodd" fill="#ffffff" d="m3.25,4637.38477c0,-0.4142 0.33579,-0.75 0.75,-0.75l15.9996,0c0.4142,0 0.75,0.3358 0.75,0.75c0,0.4142 -0.3358,0.75 -0.75,0.75l-15.9996,0c-0.41421,0 -0.75,-0.3358 -0.75,-0.75zm3.28307,7c0,-0.4142 0.33579,-0.75 0.75,-0.75l12.71693,0c0.4142,0 0.75,0.3358 0.75,0.75c0,0.4142 -0.3358,0.75 -0.75,0.75l-12.71693,0c-0.41421,0 -0.75,-0.3358 -0.75,-0.75zm5.68883,-14c0,-0.41421 0.3358,-0.75 0.75,-0.75l7.0281,0c0.4142,0 0.75,0.33579 0.75,0.75c0,0.41421 -0.3358,0.75 -0.75,0.75l-7.0281,0c-0.4142,0 -0.75,-0.33579 -0.75,-0.75z" clip-rule="evenodd"/>
  </g>
  <g>
   <path fill-rule="evenodd" fill="#ffffff" d="m19675.75586,4637.38477c0,-0.4142 0.33579,-0.75 0.75,-0.75l15.9996,0c0.4142,0 0.75,0.3358 0.75,0.75c0,0.4142 -0.3358,0.75 -0.75,0.75l-15.9996,0c-0.41421,0 -0.75,-0.3358 -0.75,-0.75zm3.28307,7c0,-0.4142 0.33579,-0.75 0.75,-0.75l12.71693,0c0.4142,0 0.75,0.3358 0.75,0.75c0,0.4142 -0.3358,0.75 -0.75,0.75l-12.71693,0c-0.41421,0 -0.75,-0.3358 -0.75,-0.75zm5.68883,-14c0,-0.41421 0.3358,-0.75 0.75,-0.75l7.0281,0c0.4142,0 0.75,0.33579 0.75,0.75c0,0.41421 -0.3358,0.75 -0.75,0.75l-7.0281,0c-0.4142,0 -0.75,-0.33579 -0.75,-0.75z" clip-rule="evenodd"/>
  </g>
 </g>

</svg>