<?xml version="1.0" encoding="UTF-8"?>
<!DOCTYPE svg PUBLIC "-//W3C//DTD SVG 1.1//EN" "http://www.w3.org/Graphics/SVG/1.1/DTD/svg11.dtd">
<!-- Creator: CorelDRAW 2021 (64-Bit) -->
<svg xmlns="http://www.w3.org/2000/svg" xml:space="preserve" width="18.9314mm" height="5.9706mm" version="1.1" style="shape-rendering:geometricPrecision; text-rendering:geometricPrecision; image-rendering:optimizeQuality; fill-rule:evenodd; clip-rule:evenodd"
viewBox="0 0 2488.43 784.8"
 xmlns:xlink="http://www.w3.org/1999/xlink"
 xmlns:xodm="http://www.corel.com/coreldraw/odm/2003">
 <defs>
  <style type="text/css">
   <![CDATA[
    .fil5 {fill:black}
    .fil4 {fill:#B95B3D}
    .fil3 {fill:#D7743C}
    .fil1 {fill:black;fill-rule:nonzero}
    .fil0 {fill:#959699;fill-rule:nonzero}
    .fil2 {fill:#D7743C;fill-rule:nonzero}
   ]]>
  </style>
 </defs>
 <g id="Capa_x0020_1">
  <metadata id="CorelCorpID_0Corel-Layer"/>
  <path class="fil0" d="M1406.03 748.25c-1.88,1.46 -4.73,3.02 -8.78,4.48 -4.05,1.46 -8.4,2.25 -13.13,2.25 -7.6,0 -14.12,-1.66 -19.73,-4.88 -5.63,-3.22 -9.87,-7.6 -12.83,-13.16 -2.96,-5.47 -4.44,-11.5 -4.44,-18.03 0,-7.22 1.49,-13.64 4.44,-19.3 2.96,-5.65 7.11,-10.04 12.43,-13.26 5.32,-3.12 11.45,-4.67 18.44,-4.67 4.44,0 8.49,0.58 12.24,1.75 3.76,1.17 7.01,2.63 9.87,4.39l-5.63 13.34c-5.23,-3.89 -10.55,-5.84 -15.98,-5.84 -3.65,0 -7.1,0.97 -10.36,3.01 -3.26,2.05 -5.82,4.78 -7.7,8.19 -1.87,3.51 -2.85,7.41 -2.85,11.61 0,4.57 0.88,8.68 2.67,12.08 1.77,3.51 4.34,6.24 7.58,8.19 3.26,1.96 7.11,2.93 11.55,2.93 3.55,0 6.7,-0.59 9.57,-1.76 2.87,-1.06 5.03,-2.43 6.7,-4l5.93 12.67zm9.86 -29.82c0,-6.53 1.68,-12.57 5.03,-18.23 3.26,-5.65 7.79,-10.13 13.51,-13.54 5.63,-3.31 11.84,-4.97 18.45,-4.97 6.61,0 12.83,1.66 18.55,4.97 5.63,3.4 10.16,7.89 13.62,13.54 3.35,5.67 5.03,11.7 5.03,18.23 0,6.62 -1.68,12.76 -5.03,18.32 -3.46,5.56 -7.99,10.04 -13.62,13.25 -5.72,3.33 -11.94,4.98 -18.55,4.98 -6.7,0 -12.93,-1.66 -18.55,-4.98 -5.63,-3.21 -10.16,-7.69 -13.42,-13.25 -3.35,-5.56 -5.03,-11.7 -5.03,-18.32zm14.8 0c0,4.19 0.99,7.99 3.06,11.5 1.97,3.51 4.73,6.24 8.19,8.28 3.44,2.05 7.2,3.13 11.45,3.13 4.04,0 7.78,-1.08 11.15,-3.13 3.35,-2.04 6.01,-4.77 7.89,-8.28 1.88,-3.42 2.87,-7.31 2.87,-11.5 0,-4.29 -0.99,-8.19 -2.97,-11.7 -1.96,-3.51 -4.63,-6.34 -7.98,-8.39 -3.46,-2.04 -7.2,-3.01 -11.34,-3.01 -4.15,0 -7.9,0.97 -11.25,3.01 -3.46,2.05 -6.13,4.88 -8.08,8.39 -1.98,3.51 -2.97,7.41 -2.97,11.7zm139.12 -35.96l0 74.66 -0.39 0 -50.82 -45.32 0.3 42.39 -14.51 0 0 -74.56 0.59 0 50.72 46.01 -0.3 -43.18 14.41 0zm57.52 17.35c-6.31,-3.42 -11.84,-5.17 -16.47,-5.17 -3.17,0 -5.63,0.58 -7.31,1.85 -1.77,1.26 -2.67,3.12 -2.67,5.55 0,2.25 1.29,4.29 3.85,5.95 2.47,1.75 5.82,3.4 10.07,4.97 3.46,1.26 6.31,2.63 8.78,4.19 2.47,1.66 4.44,3.8 6.11,6.62 1.58,2.83 2.37,6.34 2.37,10.62 0,3.71 -0.97,7.12 -2.85,10.24 -1.97,3.21 -4.84,5.65 -8.6,7.51 -3.75,1.84 -8.18,2.83 -13.41,2.83 -4.34,0 -8.69,-0.59 -12.93,-1.96 -4.23,-1.26 -8.28,-3.12 -11.94,-5.74l6.32 -11.02c2.46,1.85 5.32,3.31 8.57,4.48 3.26,1.17 6.13,1.76 8.69,1.76 3.06,0 5.63,-0.68 7.9,-1.96 2.27,-1.26 3.35,-3.31 3.35,-6.14 0,-3.71 -3.55,-6.93 -10.55,-9.65 -4.14,-1.66 -7.6,-3.22 -10.36,-4.68 -2.76,-1.46 -5.14,-3.6 -7.11,-6.43 -2.08,-2.83 -3.06,-6.34 -3.06,-10.53 0,-6.14 2.08,-11.12 6.22,-14.92 4.05,-3.8 9.58,-5.85 16.38,-6.14 5.43,0 9.87,0.59 13.53,1.75 3.64,1.28 7.1,2.93 10.55,5.18l-5.43 10.82zm62.75 -17.35l0 13.64 -17.65 0 0 58.09 -14.31 0 0 -58.09 -16.97 0 0 -13.64 48.94 0zm52.99 71.73l-15.29 -22.81 -9.58 0 0 22.81 -14.3 0 0 -71.73 22 0c8.98,0 15.98,2.14 21.02,6.43 4.93,4.39 7.4,10.24 7.4,17.74 0,4.39 -0.89,8.57 -2.77,12.38 -1.87,3.89 -4.82,6.91 -8.68,9.16l16.88 26.01 -16.68 0zm-24.87 -36.45l10.17 0c3.84,0 6.7,-1.17 8.48,-3.42 1.77,-2.23 2.67,-4.57 2.67,-7.2 0,-2.63 -0.79,-5.07 -2.27,-7.51 -1.47,-2.34 -4.44,-3.51 -8.78,-3.51l-10.27 0 0 21.64zm66.21 9.94c0,2.25 0.7,4.5 2.08,6.53 1.38,2.05 3.25,3.8 5.52,5.07 2.27,1.26 4.73,1.95 7.4,1.95 2.87,0 5.43,-0.68 7.79,-1.95 2.37,-1.28 4.25,-3.02 5.63,-5.07 1.28,-2.04 1.97,-4.29 1.97,-6.53l0 -45.22 14.12 0 0 45.52c0,5.17 -1.29,9.74 -3.96,13.84 -2.67,4.18 -6.22,7.4 -10.66,9.65 -4.53,2.34 -9.46,3.51 -14.89,3.51 -5.43,0 -10.36,-1.17 -14.8,-3.51 -4.44,-2.25 -7.99,-5.47 -10.55,-9.65 -2.67,-4.1 -3.94,-8.68 -3.94,-13.84l0 -45.52 14.3 0 0 45.22zm116.22 20.57c-1.87,1.46 -4.73,3.02 -8.77,4.48 -4.05,1.46 -8.4,2.25 -13.13,2.25 -7.6,0 -14.1,-1.66 -19.73,-4.88 -5.63,-3.22 -9.87,-7.6 -12.83,-13.16 -2.96,-5.47 -4.44,-11.5 -4.44,-18.03 0,-7.22 1.49,-13.64 4.44,-19.3 2.96,-5.65 7.1,-10.04 12.42,-13.26 5.34,-3.12 11.45,-4.67 18.45,-4.67 4.44,0 8.49,0.58 12.24,1.75 3.76,1.17 7.01,2.63 9.87,4.39l-5.63 13.34c-5.23,-3.89 -10.55,-5.84 -15.98,-5.84 -3.65,0 -7.11,0.97 -10.36,3.01 -3.26,2.05 -5.82,4.78 -7.69,8.19 -1.88,3.51 -2.87,7.41 -2.87,11.61 0,4.57 0.88,8.68 2.66,12.08 1.77,3.51 4.35,6.24 7.6,8.19 3.26,1.96 7.11,2.93 11.54,2.93 3.55,0 6.72,-0.59 9.57,-1.76 2.87,-1.06 5.05,-2.43 6.72,-4l5.91 12.67zm68.77 0c-1.87,1.46 -4.73,3.02 -8.78,4.48 -4.04,1.46 -8.39,2.25 -13.12,2.25 -7.6,0 -14.1,-1.66 -19.73,-4.88 -5.63,-3.22 -9.87,-7.6 -12.83,-13.16 -2.96,-5.47 -4.44,-11.5 -4.44,-18.03 0,-7.22 1.49,-13.64 4.44,-19.3 2.96,-5.65 7.1,-10.04 12.43,-13.26 5.32,-3.12 11.44,-4.67 18.44,-4.67 4.44,0 8.49,0.58 12.24,1.75 3.76,1.17 7.01,2.63 9.87,4.39l-5.63 13.34c-5.23,-3.89 -10.55,-5.84 -15.98,-5.84 -3.65,0 -7.11,0.97 -10.36,3.01 -3.26,2.05 -5.82,4.78 -7.7,8.19 -1.87,3.51 -2.85,7.41 -2.85,11.61 0,4.57 0.88,8.68 2.66,12.08 1.77,3.51 4.35,6.24 7.6,8.19 3.26,1.96 7.11,2.93 11.54,2.93 3.56,0 6.72,-0.59 9.58,-1.76 2.85,-1.06 5.03,-2.43 6.7,-4l5.91 12.67zm28.62 -65.79l0 71.73 -14.3 0 0 -71.73 14.3 0zm14.3 35.96c0,-6.53 1.68,-12.57 5.03,-18.23 3.26,-5.65 7.79,-10.13 13.53,-13.54 5.63,-3.31 11.83,-4.97 18.44,-4.97 6.61,0 12.83,1.66 18.55,4.97 5.64,3.4 10.16,7.89 13.62,13.54 3.35,5.67 5.03,11.7 5.03,18.23 0,6.62 -1.68,12.76 -5.03,18.32 -3.46,5.56 -7.98,10.04 -13.62,13.25 -5.72,3.33 -11.94,4.98 -18.55,4.98 -6.7,0 -12.92,-1.66 -18.55,-4.98 -5.63,-3.21 -10.16,-7.69 -13.42,-13.25 -3.35,-5.56 -5.03,-11.7 -5.03,-18.32zm14.8 0c0,4.19 0.99,7.99 3.06,11.5 1.97,3.51 4.73,6.24 8.19,8.28 3.46,2.05 7.2,3.13 11.45,3.13 4.05,0 7.79,-1.08 11.15,-3.13 3.35,-2.04 6.02,-4.77 7.9,-8.28 1.87,-3.42 2.85,-7.31 2.85,-11.5 0,-4.29 -0.99,-8.19 -2.96,-11.7 -1.97,-3.51 -4.64,-6.34 -7.99,-8.39 -3.44,-2.04 -7.2,-3.01 -11.34,-3.01 -4.15,0 -7.9,0.97 -11.25,3.01 -3.44,2.05 -6.13,4.88 -8.08,8.39 -1.98,3.51 -2.97,7.41 -2.97,11.7zm26.05 -39.67l-8.39 0 7.69 -13.16 15.3 0 -14.6 13.16zm113.07 3.71l0 74.66 -0.39 0 -50.8 -45.32 0.29 42.39 -14.5 0 0 -74.56 0.59 0 50.71 46.01 -0.3 -43.18 14.41 0z"/>
  <path class="fil1" d="M1080.79 587.78c0,0 0,0.24 0,0.47 -0.24,2.12 -0.47,3.77 -0.47,4.71 0,6.6 2.83,11.55 8.48,14.62 5.65,3.29 14.38,4.94 26.16,4.94 8.95,0 16.02,-1.42 21.2,-4.01 4.96,-2.59 7.54,-6.36 7.54,-10.83 0,-7.07 -10.13,-12.72 -30.17,-16.97 -2.35,-0.71 -4.23,-0.95 -5.42,-1.18 -1.17,-0.46 -3.06,-0.7 -5.65,-1.41 -32.05,-6.84 -52.54,-14.37 -61.73,-22.62 -4.48,-4.01 -7.78,-8.71 -10.13,-14.13 -2.13,-5.43 -3.3,-11.55 -3.3,-18.38 0,-16.73 7.31,-29.46 22.15,-38.17 14.6,-8.95 36.28,-13.2 64.55,-13.2 28.04,0 48.78,4.01 62.21,12.25 13.42,8.25 20.26,20.73 20.26,37.93l0 1.88 -53.01 0 0 -0.7c0,-5.9 -2.59,-10.37 -8.02,-13.43 -5.42,-3.06 -13.18,-4.48 -23.55,-4.48 -8,0 -14.38,0.95 -18.61,3.3 -4.48,2.12 -6.6,5.18 -6.6,9.19 0,7.07 11.54,12.96 34.64,17.92 4.47,0.93 8,1.64 10.59,2.12 16.5,3.77 28.27,7.07 35.11,9.66 7.07,2.59 12.96,5.65 18.15,9.42 5.65,4.01 10.12,9.19 13.18,15.55 3.06,6.36 4.48,13.2 4.48,20.73 0,17.21 -8.02,30.39 -24.03,39.83 -16.02,9.19 -39.12,13.89 -69.27,13.89 -29.69,0 -51.37,-4.47 -64.57,-13.43 -13.43,-8.95 -20.02,-23.32 -20.02,-42.88l0 -2.59 55.84 0zm145.36 56.07l0 -169.64 151.27 0 0 36.52 -94.48 0 0 27.1 87.42 0 0 36.04 -87.42 0 0 32.99 98.02 0 0 36.99 -154.8 0zm178.59 0l0 -169.64 71.86 0 77.05 113.8 0 -113.8 54.43 0 0 169.64 -74.46 0 -74.45 -114.26 0 114.26 -54.43 0zm350.13 -67.61l-27.09 -61.74 -28.75 61.74 55.84 0zm-86.48 67.61l-57.01 0 87.88 -169.64 63.13 0 83.89 169.64 -63.38 0 -12.72 -30.63 -88.12 0 -13.67 30.63z"/>
  <path class="fil2" d="M2028.92 574.71l-27.38 -62.38 -29.05 62.38 56.43 0zm-87.38 68.32l-57.61 0 88.8 -171.42 63.8 0 84.76 171.42 -64.04 0 -12.86 -30.96 -89.04 0 -13.81 30.96zm241.66 -135.7l0 35.95 32.61 0c7.62,0 13.34,-1.43 17.15,-4.52 3.56,-2.87 5.47,-7.62 5.47,-13.58 0,-5.95 -1.91,-10.48 -5.7,-13.33 -3.81,-3.1 -9.53,-4.52 -16.92,-4.52l-32.61 0zm-57.63 135.7l0 -171.42 105.23 0c23.11,0 39.76,4.05 50.25,12.38 10.46,8.32 15.71,21.43 15.71,39.28 0,18.1 -5.48,32.15 -16.43,42.14 -10.95,10.24 -26.18,15.23 -45.95,15.23l-51.18 0 0 62.38 -57.63 0zm249.28 -135.7l0 35.95 32.62 0c7.62,0 13.33,-1.43 17.14,-4.52 3.58,-2.87 5.48,-7.62 5.48,-13.58 0,-5.95 -1.91,-10.48 -5.72,-13.33 -3.81,-3.1 -9.53,-4.52 -16.9,-4.52l-32.62 0zm-57.61 135.7l0 -171.42 105.23 0c23.09,0 39.76,4.05 50.24,12.38 10.48,8.32 15.71,21.43 15.71,39.28 0,18.1 -5.47,32.15 -16.43,42.14 -10.95,10.24 -26.18,15.23 -45.94,15.23l-51.2 0 0 62.38 -57.61 0z"/>
  <path class="fil3" d="M1792.69 28.55c-16.13,-0.29 -32.26,-0.58 -48.38,-0.87 -15.77,1.05 -27.62,6.4 -33.75,17.96 -56.77,97.65 -113.55,195.27 -170.34,292.91l35.9 62.42c0.04,0.07 132.01,0.39 144.14,0.42 24.17,-41.47 48.27,-83.01 72.41,-124.5l-36.07 -62.13c-24.07,41.38 -48.13,82.77 -72.2,124.15l-72.1 -0.16c60.87,-104.68 120.31,-206.88 180.39,-310.2z"/>
  <polygon class="fil3" points="1828.78,90.62 1792.98,152.17 1900.61,339.53 1829.05,339.34 1828.54,339.34 1792.69,400.97 1937.08,400.97 1973.18,338.9 "/>
  <path class="fil4" d="M1577.48 400.62l0.07 0.11c0.03,0.07 129.67,0.38 143.76,0.42l-35.58 -62.49 -73.28 -0.16 -34.96 62.12z"/>
  <polygon class="fil4" points="1900.28,338.75 1828.71,338.55 1792.36,400.18 1936.52,400.18 "/>
  <polygon class="fil3" points="-0,350.8 333.92,350.8 137.96,706.62 96.32,665.78 221.25,439.88 224.34,433.6 225.94,427.48 225.15,420.32 223.03,416.46 220.18,413.41 213.43,409.83 204.78,408.19 -0,408.19 "/>
  <path class="fil3" d="M365.4 22.56c43.13,0 78.17,36.84 78.17,82.07 0,45.15 -35.04,82.03 -78.17,82.03 -43.05,0 -78.17,-36.88 -78.17,-82.03 0,-45.23 35.12,-82.07 78.17,-82.07z"/>
  <polygon class="fil3" points="363.56,410.66 179.57,736.96 228.5,762.25 348.97,549.88 352.68,545.06 357.91,542.33 364.61,540.97 372.18,542.33 376.82,545.59 380.24,549.88 501.8,762.25 551.75,735.09 "/>
  <polygon class="fil3" points="391.68,350.34 729.49,350.34 729.49,406.78 523.16,406.78 516.6,408.95 510.63,411.96 505.67,417.45 503.59,424.09 503.59,430.1 505.21,436.49 632.68,665.33 592.6,704.96 "/>
  <path class="fil3" d="M80.61 287.35l0 0.3c-0.22,1.33 -0.35,2.34 -0.35,3.02 0,4.25 2.34,7.35 6.94,9.45 4.64,2.05 11.8,3.05 21.53,3.05 7.35,0 13.1,-0.83 17.27,-2.52 4.17,-1.71 6.27,-4.04 6.27,-6.95 0,-4.55 -8.25,-8.12 -24.78,-10.95 -1.97,-0.33 -3.43,-0.57 -4.36,-0.68 -1.09,-0.25 -2.63,-0.54 -4.61,-0.85 -26.29,-4.44 -43.17,-9.33 -50.7,-14.59 -3.63,-2.56 -6.38,-5.6 -8.28,-9.11 -1.87,-3.43 -2.76,-7.4 -2.76,-11.76 0,-10.7 6.06,-18.86 18.15,-24.47 12.04,-5.63 29.75,-8.43 53.04,-8.43 22.94,0 39.99,2.64 51.01,7.89 11.12,5.26 16.61,13.38 16.61,24.24l0 1.28 -43.49 0 0 -0.5c0,-3.73 -2.22,-6.52 -6.57,-8.45 -4.46,-1.98 -10.88,-2.96 -19.37,-2.96 -6.62,0 -11.71,0.67 -15.3,2.06 -3.59,1.39 -5.35,3.39 -5.35,5.93 0,4.47 9.48,8.39 28.5,11.54 3.61,0.62 6.49,1.06 8.57,1.38 13.53,2.37 23.16,4.38 28.88,6.05 5.76,1.76 10.69,3.72 14.83,6.07 4.59,2.63 8.24,5.95 10.74,9.99 2.54,4.04 3.79,8.48 3.79,13.32 0,11.02 -6.57,19.53 -19.7,25.47 -13.14,5.98 -32.12,8.95 -56.84,8.95 -24.45,0 -42.06,-2.87 -53.02,-8.57 -10.91,-5.77 -16.36,-14.96 -16.36,-27.62l0 -1.56 45.74 0zm119.33 35.91l0 0 0 -108.74 124.11 0 0 23.42 -77.5 0 0 17.34 71.62 0 0 23.19 -71.62 0 0 21.04 80.39 0 0 23.75 -127 0zm146.47 0l0 0 0 -108.74 59.03 0 63.11 72.96 0 -72.96 44.72 0 0 108.74 -61.13 0 -61.07 -73.2 0 73.2 -44.65 0zm287.3 -43.39l0 0 -22.31 -39.47 -23.59 39.47 45.9 0zm-70.99 43.39l0 0 -46.73 0 72.11 -108.74 51.68 0 68.84 108.74 -51.91 0 -10.44 -19.66 -72.33 0 -11.23 19.66z"/>
  <path class="fil5" d="M877.21 0l11.87 0c2.02,0 3.68,1.66 3.68,3.68l0 777.44c0,2.02 -1.66,3.68 -3.68,3.68l-11.87 0c-2.02,0 -3.68,-1.66 -3.68,-3.68l0 -777.44c0,-2.02 1.66,-3.68 3.68,-3.68z"/>
 </g>
</svg>
