<?xml version="1.0" encoding="UTF-8"?>
<!DOCTYPE svg PUBLIC "-//W3C//DTD SVG 1.1//EN" "http://www.w3.org/Graphics/SVG/1.1/DTD/svg11.dtd">
<!-- Creator: CorelDRAW 2021 (64-Bit) -->
<svg xmlns="http://www.w3.org/2000/svg" xml:space="preserve" width="29.0946mm" height="8.2389mm" version="1.1" style="shape-rendering:geometricPrecision; text-rendering:geometricPrecision; image-rendering:optimizeQuality; fill-rule:evenodd; clip-rule:evenodd"
viewBox="0 0 121.98 34.54"
 xmlns:xlink="http://www.w3.org/1999/xlink"
 xmlns:xodm="http://www.corel.com/coreldraw/odm/2003">
 <defs>
  <style type="text/css">
   <![CDATA[
    .fil2 {fill:#FEFEFE}
    .fil1 {fill:#FEFEFE;fill-rule:nonzero}
    .fil0 {fill:#D04D52;fill-rule:nonzero}
   ]]>
  </style>
     <mask id="id0">
  <linearGradient id="id1" gradientUnits="userSpaceOnUse" x1="100.01" y1="112.6" x2="74.79" y2="2.39">
   <stop offset="0" style="stop-opacity:1; stop-color:white"/>
   <stop offset="1" style="stop-opacity:0; stop-color:white"/>
  </linearGradient>
      <rect style="fill:url(#id1)" x="0.02" y="-0.13" width="122.09" height="34.79"/>
     </mask>
 </defs>
 <g id="Capa_x0020_1">
  <metadata id="CorelCorpID_0Corel-Layer"/>
  <g id="_2287955209568">
   <g>
    <path class="fil0" d="M114.74 34.54l-107.5 0c-4,0 -7.24,-3.24 -7.24,-7.24l0 -20.06c0,-4 3.24,-7.25 7.24,-7.25l107.5 0c4,0 7.24,3.24 7.24,7.25l0 20.06c0,4 -3.24,7.24 -7.24,7.24z"/>
    <path class="fil1" style="mask:url(#id0)" d="M114.74 34.54l-107.5 0c-3.51,0 -6.43,-2.5 -7.1,-5.81 7.5,1.17 9.04,6.11 20.66,3.74 18.63,-3.8 34.9,-23.58 43.59,-22.67 18.24,1.9 31.17,13.95 41.58,-9.8l8.77 0c4,0 7.24,3.24 7.24,7.25l0 20.06c0,4 -3.24,7.24 -7.24,7.24z"/>
   </g>
   <path class="fil2" d="M117.83 17.64l-5.62 -5.62 -0.52 1.1 0.57 0.9 -0.72 0.93c-0.14,0.18 -0.43,0.11 -0.42,0.29 0.03,0.49 0.73,1.17 0.73,1.17l-0.59 0.88 0.19 0.25 -0.02 0.93 0.15 0.29 2.24 0.22 0.02 1.41 -2.04 -0.09 -0.26 -0.95 -0.17 1.06 -0.06 1.77 -0.28 0.3 -2.23 -0.26 -0.04 -1.28 0.31 -0.26 1.55 -0.03 0.28 -0.28 -1.89 -0.05 -0.22 -0.13 0.24 -1.56 1.36 -0.13 0.18 -1.23 0.56 -0.6 -0.34 -0.96 -0.38 -0.38 0 -0.62 0.44 -0.44 -0.02 -0.61 -0.51 -0.29 0.2 -0.2 -0.52 -0.29 0.48 -1.07 -5.28 5.28 0.99 0.28 0.61 7.42 4.06 -0.22 3.41 0.22 1.32 -0.09 0.32 -0.32 0.17 -3.3 0.36 -3.45 1.38 -0.02zm-6.12 4.55l0 -1.41 2.15 0.42 -0.09 1.08 -1.8 0.17 -0.26 -0.26z"/>
   <polygon class="fil1" points="13.2,9.1 10.19,15.98 7.19,9.1 8.74,9.1 10.25,12.81 11.66,9.1 "/>
   <path id="_1" class="fil1" d="M17.25 11.77l0 3.91 -1.14 0 -0.09 -0.63c-0.14,0.25 -0.33,0.45 -0.58,0.59 -0.25,0.15 -0.54,0.22 -0.87,0.22 -0.36,0 -0.66,-0.11 -0.89,-0.33 -0.24,-0.22 -0.36,-0.5 -0.37,-0.84l0 -2.92 1.25 0 0 2.46c0.02,0.38 0.19,0.57 0.53,0.57 0.27,0 0.49,-0.13 0.66,-0.4 0.16,-0.27 0.25,-0.61 0.25,-1.04l0 -1.59 1.25 0z"/>
   <polygon id="_2" class="fil1" points="19.79,8.63 19.79,15.68 18.54,15.68 18.54,8.63 "/>
   <path id="_3" class="fil1" d="M23.8 11.58c0.37,0 0.68,0.11 0.93,0.33 0.25,0.22 0.37,0.5 0.38,0.84l0 2.92 -1.25 0 0 -2.46c-0.02,-0.38 -0.21,-0.57 -0.57,-0.57 -0.29,0 -0.52,0.13 -0.69,0.4 -0.17,0.27 -0.26,0.61 -0.26,1.04l0 1.59 -1.25 0 0 -3.91 1.14 0 0.09 0.63c0.14,-0.26 0.34,-0.46 0.59,-0.6 0.25,-0.14 0.55,-0.21 0.9,-0.21z"/>
   <path id="_4" class="fil1" d="M28.34 14.72c0.25,0 0.51,-0.09 0.78,-0.26l0.55 0.93c-0.21,0.12 -0.44,0.21 -0.68,0.29 -0.24,0.07 -0.46,0.11 -0.68,0.11 -0.46,0 -0.87,-0.09 -1.2,-0.26 -0.34,-0.18 -0.59,-0.42 -0.76,-0.74 -0.17,-0.32 -0.26,-0.68 -0.26,-1.1 0,-0.38 0.1,-0.73 0.3,-1.05 0.2,-0.32 0.47,-0.58 0.82,-0.76 0.35,-0.19 0.72,-0.28 1.14,-0.28 0.56,0 1.02,0.16 1.38,0.49 0.36,0.33 0.59,0.8 0.7,1.4l-2.86 0.91c0.19,0.22 0.45,0.33 0.78,0.33zm-0.1 -2.16c-0.28,0 -0.5,0.1 -0.67,0.29 -0.17,0.19 -0.25,0.45 -0.25,0.77l0 0.08 1.72 -0.58c-0.12,-0.37 -0.39,-0.55 -0.8,-0.55z"/>
   <path id="_5" class="fil1" d="M32.56 12.67c0.11,-0.21 0.25,-0.4 0.44,-0.56 0.19,-0.17 0.38,-0.3 0.58,-0.39 0.2,-0.09 0.35,-0.14 0.46,-0.14l-0.06 1.25c-0.04,-0.01 -0.09,-0.01 -0.15,-0.01 -0.25,0 -0.47,0.07 -0.66,0.2 -0.19,0.13 -0.34,0.3 -0.44,0.51 -0.1,0.21 -0.15,0.42 -0.15,0.63l0 1.53 -1.24 0 0 -3.91 1.13 0 0.1 0.89z"/>
   <path id="_6" class="fil1" d="M39.07 11.77l0 3.91 -1.25 0 0 -0.48c-0.38,0.39 -0.81,0.59 -1.31,0.59 -0.58,0 -1.05,-0.17 -1.41,-0.52 -0.36,-0.35 -0.54,-0.86 -0.54,-1.54 0,-0.43 0.09,-0.81 0.26,-1.13 0.18,-0.32 0.41,-0.58 0.7,-0.76 0.29,-0.18 0.6,-0.27 0.94,-0.27 0.35,0 0.62,0.05 0.82,0.16 0.2,0.1 0.38,0.25 0.54,0.44l0.08 -0.4 1.16 0zm-2.2 2.99c0.44,0 0.75,-0.2 0.95,-0.59l0 -0.96c-0.07,-0.19 -0.19,-0.34 -0.37,-0.46 -0.18,-0.11 -0.38,-0.17 -0.62,-0.17 -0.27,0 -0.51,0.1 -0.7,0.3 -0.19,0.2 -0.29,0.46 -0.29,0.77 0,0.2 0.05,0.39 0.14,0.56 0.1,0.17 0.22,0.3 0.38,0.4 0.16,0.1 0.33,0.14 0.51,0.14z"/>
   <path id="_7" class="fil1" d="M43.09 11.58c0.34,0 0.65,0.08 0.93,0.25 0.28,0.16 0.51,0.4 0.68,0.71 0.17,0.31 0.25,0.68 0.25,1.11 0,0.43 -0.09,0.81 -0.28,1.13 -0.18,0.32 -0.43,0.58 -0.74,0.75 -0.31,0.18 -0.65,0.26 -1.01,0.26 -0.53,0 -0.97,-0.17 -1.31,-0.5l0 0.39 -1.25 0 0 -7.05 1.24 0 0 3.41c0.17,-0.14 0.38,-0.25 0.63,-0.34 0.26,-0.09 0.54,-0.13 0.86,-0.13zm-0.45 3.16c0.18,0 0.36,-0.05 0.51,-0.14 0.16,-0.1 0.28,-0.23 0.38,-0.4 0.1,-0.17 0.14,-0.36 0.14,-0.56 0,-0.31 -0.1,-0.57 -0.3,-0.77 -0.2,-0.2 -0.45,-0.3 -0.73,-0.3 -0.24,0 -0.46,0.06 -0.64,0.17 -0.18,0.11 -0.32,0.26 -0.39,0.46l0 0.96c0.21,0.39 0.56,0.59 1.04,0.59z"/>
   <path id="_8" class="fil1" d="M47.18 11.77l0 3.91 -1.25 0 0 -3.91 1.25 0zm-1.28 -1.39c0,-0.18 0.07,-0.33 0.21,-0.45 0.14,-0.12 0.3,-0.18 0.48,-0.18 0.17,0 0.33,0.06 0.46,0.18 0.14,0.12 0.21,0.27 0.21,0.45 0,0.18 -0.07,0.33 -0.21,0.45 -0.14,0.12 -0.29,0.18 -0.46,0.18 -0.18,0 -0.34,-0.06 -0.48,-0.18 -0.14,-0.12 -0.21,-0.27 -0.21,-0.45z"/>
   <polygon id="_9" class="fil1" points="49.72,8.63 49.72,15.68 48.47,15.68 48.47,8.63 "/>
   <path id="_10" class="fil1" d="M52.26 11.77l0 3.91 -1.25 0 0 -3.91 1.25 0zm-1.28 -1.39c0,-0.18 0.07,-0.33 0.21,-0.45 0.14,-0.12 0.3,-0.18 0.48,-0.18 0.17,0 0.33,0.06 0.46,0.18 0.14,0.12 0.21,0.27 0.21,0.45 0,0.18 -0.07,0.33 -0.21,0.45 -0.14,0.12 -0.29,0.18 -0.46,0.18 -0.18,0 -0.34,-0.06 -0.48,-0.18 -0.14,-0.12 -0.21,-0.27 -0.21,-0.45z"/>
   <path id="_11" class="fil1" d="M57.84 8.63l0 7.05 -1.25 0 0 -0.41c-0.45,0.35 -0.94,0.52 -1.45,0.52 -0.36,0 -0.69,-0.09 -0.97,-0.26 -0.29,-0.17 -0.51,-0.42 -0.67,-0.74 -0.16,-0.32 -0.25,-0.7 -0.25,-1.14 0,-0.43 0.09,-0.8 0.26,-1.11 0.18,-0.31 0.42,-0.55 0.73,-0.71 0.31,-0.16 0.66,-0.25 1.06,-0.25 0.26,0 0.5,0.04 0.72,0.12 0.23,0.08 0.42,0.2 0.57,0.35l0 -3.42 1.24 0zm-2.29 6.11c0.25,0 0.46,-0.05 0.63,-0.15 0.17,-0.1 0.3,-0.25 0.41,-0.44l0 -0.96c-0.07,-0.19 -0.2,-0.34 -0.38,-0.46 -0.18,-0.11 -0.4,-0.17 -0.65,-0.17 -0.28,0 -0.52,0.1 -0.73,0.3 -0.21,0.2 -0.31,0.46 -0.31,0.77 0,0.2 0.05,0.39 0.14,0.56 0.1,0.17 0.22,0.3 0.38,0.4 0.16,0.1 0.33,0.14 0.51,0.14z"/>
   <path id="_12" class="fil1" d="M63.33 11.77l0 3.91 -1.25 0 0 -0.48c-0.38,0.39 -0.81,0.59 -1.31,0.59 -0.58,0 -1.05,-0.17 -1.41,-0.52 -0.36,-0.35 -0.54,-0.86 -0.54,-1.54 0,-0.43 0.09,-0.81 0.26,-1.13 0.18,-0.32 0.41,-0.58 0.7,-0.76 0.29,-0.18 0.6,-0.27 0.94,-0.27 0.35,0 0.62,0.05 0.82,0.16 0.2,0.1 0.38,0.25 0.54,0.44l0.08 -0.4 1.16 0zm-2.2 2.99c0.44,0 0.75,-0.2 0.95,-0.59l0 -0.96c-0.07,-0.19 -0.19,-0.34 -0.37,-0.46 -0.18,-0.11 -0.38,-0.17 -0.62,-0.17 -0.27,0 -0.51,0.1 -0.7,0.3 -0.19,0.2 -0.29,0.46 -0.29,0.77 0,0.2 0.05,0.39 0.14,0.56 0.1,0.17 0.22,0.3 0.38,0.4 0.16,0.1 0.33,0.14 0.51,0.14z"/>
   <path id="_13" class="fil1" d="M68.91 8.63l0 7.05 -1.25 0 0 -0.41c-0.45,0.35 -0.94,0.52 -1.45,0.52 -0.36,0 -0.69,-0.09 -0.97,-0.26 -0.29,-0.17 -0.51,-0.42 -0.67,-0.74 -0.16,-0.32 -0.25,-0.7 -0.25,-1.14 0,-0.43 0.09,-0.8 0.26,-1.11 0.18,-0.31 0.42,-0.55 0.73,-0.71 0.31,-0.16 0.66,-0.25 1.06,-0.25 0.26,0 0.5,0.04 0.72,0.12 0.23,0.08 0.42,0.2 0.57,0.35l0 -3.42 1.24 0zm-2.29 6.11c0.25,0 0.46,-0.05 0.63,-0.15 0.17,-0.1 0.3,-0.25 0.41,-0.44l0 -0.96c-0.07,-0.19 -0.2,-0.34 -0.38,-0.46 -0.18,-0.11 -0.4,-0.17 -0.65,-0.17 -0.28,0 -0.52,0.1 -0.73,0.3 -0.21,0.2 -0.31,0.46 -0.31,0.77 0,0.2 0.05,0.39 0.14,0.56 0.1,0.17 0.22,0.3 0.38,0.4 0.16,0.1 0.33,0.14 0.51,0.14z"/>
   <path id="_14" class="fil1" d="M11.26 20.82c-0.57,-0.32 -1.07,-0.47 -1.49,-0.47 -0.29,0 -0.51,0.06 -0.67,0.17 -0.16,0.11 -0.24,0.28 -0.24,0.51 0,0.21 0.11,0.39 0.34,0.55 0.23,0.16 0.53,0.31 0.92,0.45 0.31,0.11 0.58,0.24 0.8,0.39 0.22,0.15 0.4,0.35 0.55,0.6 0.15,0.26 0.22,0.58 0.22,0.97 0,0.34 -0.09,0.65 -0.26,0.94 -0.18,0.29 -0.43,0.52 -0.77,0.69 -0.34,0.17 -0.75,0.25 -1.22,0.25 -0.39,0 -0.78,-0.06 -1.17,-0.17 -0.39,-0.12 -0.75,-0.29 -1.08,-0.53l0.57 -1.01c0.23,0.17 0.49,0.3 0.78,0.41 0.29,0.11 0.55,0.16 0.79,0.16 0.27,0 0.51,-0.06 0.72,-0.17 0.2,-0.12 0.3,-0.31 0.3,-0.57 0,-0.34 -0.32,-0.63 -0.96,-0.89 -0.38,-0.15 -0.69,-0.29 -0.94,-0.43 -0.25,-0.14 -0.47,-0.33 -0.65,-0.59 -0.18,-0.26 -0.27,-0.58 -0.27,-0.97 0,-0.57 0.19,-1.02 0.56,-1.37 0.37,-0.35 0.87,-0.53 1.49,-0.56 0.49,0 0.9,0.05 1.22,0.17 0.33,0.11 0.65,0.27 0.96,0.47l-0.49 0.99z"/>
   <path id="_15" class="fil1" d="M14.01 21.9l0 3.91 -1.25 0 0 -3.91 1.25 0zm-0.18 -0.46l-0.76 0 0.7 -1.21 1.39 0 -1.32 1.21z"/>
   <path id="_16" class="fil1" d="M16.57 25.89c-0.32,0 -0.62,-0.06 -0.9,-0.17 -0.28,-0.11 -0.51,-0.27 -0.7,-0.47l0.52 -0.69c0.35,0.32 0.67,0.48 0.97,0.48 0.16,0 0.29,-0.03 0.39,-0.08 0.1,-0.05 0.15,-0.13 0.15,-0.23 0,-0.12 -0.06,-0.21 -0.17,-0.27 -0.11,-0.06 -0.24,-0.11 -0.38,-0.16 -0.14,-0.04 -0.23,-0.07 -0.28,-0.08 -0.34,-0.11 -0.59,-0.27 -0.76,-0.48 -0.17,-0.21 -0.25,-0.45 -0.25,-0.73 0,-0.21 0.06,-0.41 0.17,-0.61 0.11,-0.2 0.28,-0.36 0.51,-0.49 0.23,-0.13 0.52,-0.19 0.87,-0.19 0.32,0 0.6,0.03 0.82,0.1 0.23,0.07 0.44,0.17 0.65,0.32l-0.47 0.73c-0.12,-0.1 -0.25,-0.17 -0.4,-0.24 -0.15,-0.06 -0.28,-0.09 -0.4,-0.09 -0.14,0 -0.26,0.03 -0.35,0.09 -0.09,0.06 -0.13,0.13 -0.13,0.21 -0.01,0.13 0.05,0.22 0.16,0.28 0.11,0.06 0.28,0.13 0.51,0.19 0.04,0.01 0.07,0.02 0.11,0.04 0.04,0.01 0.08,0.02 0.12,0.04 0.61,0.2 0.92,0.57 0.92,1.11 0,0.25 -0.06,0.48 -0.19,0.69 -0.13,0.21 -0.31,0.38 -0.57,0.5 -0.25,0.13 -0.56,0.19 -0.93,0.19z"/>
   <path id="_17" class="fil1" d="M24.44 21.71c0.38,0 0.69,0.11 0.92,0.32 0.23,0.21 0.35,0.5 0.36,0.85l0 2.93 -1.24 0 0 -2.41c-0.01,-0.2 -0.04,-0.34 -0.1,-0.44 -0.05,-0.1 -0.16,-0.15 -0.31,-0.17 -0.29,0 -0.52,0.14 -0.68,0.42 -0.16,0.28 -0.25,0.62 -0.25,1l0 1.6 -1.25 0 0 -2.41c-0.01,-0.2 -0.05,-0.34 -0.11,-0.44 -0.06,-0.1 -0.17,-0.15 -0.33,-0.17 -0.28,0 -0.5,0.14 -0.66,0.42 -0.16,0.28 -0.24,0.61 -0.24,0.98l0 1.62 -1.25 0 0 -3.91 1.14 0 0.09 0.62c0.32,-0.54 0.79,-0.81 1.41,-0.81 0.32,0 0.58,0.06 0.78,0.19 0.21,0.13 0.35,0.32 0.42,0.57 0.17,-0.23 0.36,-0.42 0.59,-0.55 0.23,-0.14 0.47,-0.21 0.71,-0.21z"/>
   <path id="_18" class="fil1" d="M28.26 21.9l0 3.91 -1.25 0 0 -3.91 1.25 0zm-1.28 -1.39c0,-0.18 0.07,-0.33 0.21,-0.45 0.14,-0.12 0.3,-0.18 0.48,-0.18 0.17,0 0.33,0.06 0.46,0.18 0.14,0.12 0.21,0.27 0.21,0.45 0,0.18 -0.07,0.33 -0.21,0.45 -0.14,0.12 -0.29,0.18 -0.46,0.18 -0.18,0 -0.34,-0.06 -0.48,-0.18 -0.14,-0.12 -0.21,-0.27 -0.21,-0.45z"/>
   <path id="_19" class="fil1" d="M32.86 25.46c-0.17,0.14 -0.39,0.25 -0.65,0.33 -0.26,0.08 -0.51,0.13 -0.76,0.13 -0.68,0 -1.22,-0.18 -1.61,-0.55 -0.4,-0.37 -0.59,-0.87 -0.59,-1.52 0,-0.42 0.1,-0.78 0.29,-1.09 0.19,-0.31 0.45,-0.55 0.76,-0.72 0.32,-0.16 0.66,-0.25 1.02,-0.25 0.65,0 1.18,0.17 1.58,0.52l-0.61 0.8c-0.26,-0.2 -0.54,-0.3 -0.86,-0.3 -0.26,0 -0.48,0.1 -0.67,0.3 -0.18,0.2 -0.27,0.44 -0.27,0.74 0,0.3 0.1,0.55 0.3,0.75 0.2,0.2 0.45,0.3 0.77,0.3 0.27,0 0.5,-0.07 0.68,-0.22l0.63 0.79z"/>
   <path id="_20" class="fil1" d="M38.03 21.9l0 3.91 -1.25 0 0 -0.48c-0.38,0.39 -0.81,0.59 -1.31,0.59 -0.58,0 -1.05,-0.17 -1.41,-0.52 -0.36,-0.35 -0.54,-0.86 -0.54,-1.54 0,-0.43 0.09,-0.81 0.26,-1.13 0.18,-0.32 0.41,-0.58 0.7,-0.76 0.29,-0.18 0.6,-0.27 0.94,-0.27 0.35,0 0.62,0.05 0.82,0.16 0.2,0.1 0.38,0.25 0.54,0.44l0.08 -0.4 1.16 0zm-2.2 2.99c0.44,0 0.75,-0.2 0.95,-0.59l0 -0.96c-0.07,-0.19 -0.19,-0.34 -0.37,-0.46 -0.18,-0.11 -0.38,-0.17 -0.62,-0.17 -0.27,0 -0.51,0.1 -0.7,0.3 -0.19,0.2 -0.29,0.46 -0.29,0.77 0,0.2 0.05,0.39 0.14,0.56 0.1,0.17 0.22,0.3 0.38,0.4 0.16,0.1 0.33,0.14 0.51,0.14z"/>
   <rect class="fil2" x="98.34" y="1.01" width="0.9" height="32.52"/>
  </g>
 </g>
</svg>
