<?xml version="1.0" encoding="UTF-8"?>
<!DOCTYPE svg PUBLIC "-//W3C//DTD SVG 1.1//EN" "http://www.w3.org/Graphics/SVG/1.1/DTD/svg11.dtd">
<!-- Creator: CorelDRAW 2021 (64-Bit) -->
<svg xmlns="http://www.w3.org/2000/svg" xml:space="preserve" width="29.0946mm" height="8.2389mm" version="1.1" style="shape-rendering:geometricPrecision; text-rendering:geometricPrecision; image-rendering:optimizeQuality; fill-rule:evenodd; clip-rule:evenodd"
viewBox="0 0 121.98 34.54"
 xmlns:xlink="http://www.w3.org/1999/xlink"
 xmlns:xodm="http://www.corel.com/coreldraw/odm/2003">
 <defs>
  <style type="text/css">
   <![CDATA[
    .fil2 {fill:#606162}
    .fil4 {fill:black}
    .fil1 {fill:#FEFEFE;fill-rule:nonzero}
    .fil3 {fill:#606162;fill-rule:nonzero}
    .fil0 {fill:#F2E966;fill-rule:nonzero}
   ]]>
  </style>
     <mask id="id0">
  <linearGradient id="id1" gradientUnits="userSpaceOnUse" x1="82.4" y1="58.39" x2="72.27" y2="-13.72">
   <stop offset="0" style="stop-opacity:1; stop-color:white"/>
   <stop offset="1" style="stop-opacity:0; stop-color:white"/>
  </linearGradient>
      <rect style="fill:url(#id1)" x="0.02" y="-0.13" width="122.09" height="34.79"/>
     </mask>
 </defs>
 <g id="Capa_x0020_1">
  <metadata id="CorelCorpID_0Corel-Layer"/>
  <g id="_2287955222960">
   <g>
    <path class="fil0" d="M114.74 34.54l-107.5 0c-4,0 -7.24,-3.24 -7.24,-7.24l0 -20.06c0,-4 3.24,-7.25 7.24,-7.25l107.5 0c4,0 7.24,3.24 7.24,7.25l0 20.06c0,4 -3.24,7.24 -7.24,7.24z"/>
    <path class="fil1" style="mask:url(#id0)" d="M114.74 34.54l-107.5 0c-3.51,0 -6.43,-2.5 -7.1,-5.81 7.5,1.17 9.04,6.11 20.66,3.74 18.63,-3.8 34.9,-23.58 43.59,-22.67 18.24,1.9 31.17,13.95 41.58,-9.8l8.77 0c4,0 7.24,3.24 7.24,7.25l0 20.06c0,4 -3.24,7.24 -7.24,7.24z"/>
   </g>
   <path class="fil2" d="M118.24 17.28c0,0 0,0 0,0.01 -0.02,2.35 -1.34,3.84 -3.45,4.57 -0.01,0.01 -0.04,0.02 -0.05,0.02l0.69 3.24c-0,0.01 -0,0.01 -0.01,0.02l-7.7 0.01c-0.11,0 -0.16,0.02 -0.12,-0.12 0.1,-0.33 0.73,-3.04 0.7,-3.15 -0.01,-0.03 -0.13,-0.06 -0.17,-0.08 -0.07,-0.03 -0.18,-0.05 -0.27,-0.09 -2.06,-0.98 -3.08,-2.2 -3.08,-4.54l0 -4.84c-0,-0.03 -0.01,-0.1 0.02,-0.11l0.05 -0c1.46,0.01 2.95,-0.03 4.41,0 0,0.04 0.01,0.06 0.01,0.1 -0.01,1.13 0,2.27 0,3.4 0,0.07 -0.01,1.49 0,1.53l8.98 0.03zm-8.98 -6.76c0,0.06 0.01,0.54 -0.01,0.56l-4.47 0.02c-0.01,-0.16 -0.03,-0.68 0.01,-0.78l0 -0.01c0.16,-0.46 0.23,-0.76 1.08,-0.91 0.23,-0 2.3,-0.01 2.39,0.01 0.32,0.06 1,0.17 1,1.11zm8.77 5.64c-2.54,0 -5.08,0.01 -7.62,-0 -0.02,-0.03 -0.02,-0.03 -0.02,-0.08 0,-0.55 -0.08,-1.05 0.66,-1.05l6.47 0c0.64,0 0.74,0.25 0.74,0.83 0,0.35 0.06,0.3 -0.22,0.3z"/>
   <polygon class="fil3" points="8.69,8.21 8.69,14.79 7.39,14.79 7.39,8.21 "/>
   <path id="_1" class="fil3" d="M12.66 10.7c0.37,0 0.68,0.11 0.93,0.33 0.25,0.22 0.37,0.5 0.38,0.84l0 2.92 -1.25 0 0 -2.46c-0.02,-0.38 -0.21,-0.57 -0.57,-0.57 -0.29,0 -0.52,0.13 -0.69,0.4 -0.17,0.27 -0.26,0.61 -0.26,1.04l0 1.59 -1.25 0 0 -3.91 1.14 0 0.09 0.63c0.14,-0.26 0.34,-0.46 0.59,-0.6 0.25,-0.14 0.55,-0.21 0.9,-0.21z"/>
   <polygon id="_2" class="fil3" points="16.64,9.17 16.64,10.87 17.58,10.87 17.58,11.84 16.64,11.84 16.64,14.79 15.38,14.79 15.38,11.84 14.78,11.84 14.78,10.87 15.38,10.87 15.38,9.17 "/>
   <path id="_3" class="fil3" d="M20.25 13.84c0.25,0 0.51,-0.09 0.78,-0.26l0.55 0.93c-0.21,0.12 -0.44,0.21 -0.68,0.29 -0.24,0.07 -0.46,0.11 -0.68,0.11 -0.46,0 -0.87,-0.09 -1.2,-0.26 -0.34,-0.18 -0.59,-0.42 -0.76,-0.74 -0.17,-0.32 -0.26,-0.68 -0.26,-1.1 0,-0.38 0.1,-0.73 0.3,-1.05 0.2,-0.32 0.47,-0.58 0.82,-0.76 0.35,-0.19 0.72,-0.28 1.14,-0.28 0.56,0 1.02,0.16 1.38,0.49 0.36,0.33 0.59,0.8 0.7,1.4l-2.86 0.91c0.19,0.22 0.45,0.33 0.78,0.33zm-0.1 -2.16c-0.28,0 -0.5,0.1 -0.67,0.29 -0.17,0.19 -0.25,0.45 -0.25,0.77l0 0.08 1.72 -0.58c-0.12,-0.37 -0.39,-0.55 -0.8,-0.55z"/>
   <path id="_4" class="fil3" d="M24.23 11.78c0.11,-0.21 0.25,-0.4 0.44,-0.56 0.19,-0.17 0.38,-0.3 0.58,-0.39 0.2,-0.09 0.35,-0.14 0.46,-0.14l-0.06 1.25c-0.04,-0.01 -0.09,-0.01 -0.15,-0.01 -0.25,0 -0.47,0.07 -0.66,0.2 -0.19,0.13 -0.34,0.3 -0.44,0.51 -0.1,0.21 -0.15,0.42 -0.15,0.63l0 1.53 -1.24 0 0 -3.91 1.13 0 0.1 0.89z"/>
   <path id="_5" class="fil3" d="M29.14 10.69c0.36,0 0.69,0.09 0.97,0.26 0.29,0.17 0.51,0.42 0.67,0.74 0.16,0.32 0.25,0.7 0.25,1.14 0,0.43 -0.09,0.8 -0.27,1.11 -0.18,0.31 -0.43,0.55 -0.76,0.72 -0.32,0.16 -0.7,0.25 -1.11,0.25 -0.23,0 -0.45,-0.04 -0.67,-0.12 -0.22,-0.08 -0.4,-0.2 -0.54,-0.34l0 2.24 -1.24 0 0 -5.87 1.07 0 0.11 0.46c0.48,-0.38 0.98,-0.57 1.52,-0.57zm-0.5 3.23c0.31,0 0.58,-0.1 0.8,-0.3 0.22,-0.2 0.33,-0.46 0.33,-0.77 0,-0.32 -0.1,-0.59 -0.3,-0.79 -0.2,-0.21 -0.45,-0.31 -0.74,-0.31 -0.24,0 -0.45,0.05 -0.62,0.15 -0.17,0.1 -0.31,0.25 -0.42,0.44l0 0.96c0.07,0.19 0.18,0.34 0.35,0.46 0.17,0.11 0.37,0.17 0.59,0.17z"/>
   <path id="_6" class="fil3" d="M33 11.78c0.11,-0.21 0.25,-0.4 0.44,-0.56 0.19,-0.17 0.38,-0.3 0.58,-0.39 0.2,-0.09 0.35,-0.14 0.46,-0.14l-0.06 1.25c-0.04,-0.01 -0.09,-0.01 -0.15,-0.01 -0.25,0 -0.47,0.07 -0.66,0.2 -0.19,0.13 -0.34,0.3 -0.44,0.51 -0.1,0.21 -0.15,0.42 -0.15,0.63l0 1.53 -1.24 0 0 -3.91 1.13 0 0.1 0.89z"/>
   <path id="_7" class="fil3" d="M36.98 13.84c0.25,0 0.51,-0.09 0.78,-0.26l0.55 0.93c-0.21,0.12 -0.44,0.21 -0.68,0.29 -0.24,0.07 -0.46,0.11 -0.68,0.11 -0.46,0 -0.87,-0.09 -1.2,-0.26 -0.34,-0.18 -0.59,-0.42 -0.76,-0.74 -0.17,-0.32 -0.26,-0.68 -0.26,-1.1 0,-0.38 0.1,-0.73 0.3,-1.05 0.2,-0.32 0.47,-0.58 0.82,-0.76 0.35,-0.19 0.72,-0.28 1.14,-0.28 0.56,0 1.02,0.16 1.38,0.49 0.36,0.33 0.59,0.8 0.7,1.4l-2.86 0.91c0.19,0.22 0.45,0.33 0.78,0.33zm-0.1 -2.16c-0.28,0 -0.5,0.1 -0.67,0.29 -0.17,0.19 -0.25,0.45 -0.25,0.77l0 0.08 1.72 -0.58c-0.12,-0.37 -0.39,-0.55 -0.8,-0.55z"/>
   <polygon id="_8" class="fil3" points="41.35,9.17 41.35,10.87 42.3,10.87 42.3,11.84 41.35,11.84 41.35,14.79 40.1,14.79 40.1,11.84 39.49,11.84 39.49,10.87 40.1,10.87 40.1,9.17 "/>
   <path id="_9" class="fil3" d="M47.22 10.89l0 3.91 -1.25 0 0 -0.48c-0.38,0.39 -0.81,0.59 -1.31,0.59 -0.58,0 -1.05,-0.17 -1.41,-0.52 -0.36,-0.35 -0.54,-0.86 -0.54,-1.54 0,-0.43 0.09,-0.81 0.26,-1.13 0.18,-0.32 0.41,-0.58 0.7,-0.76 0.29,-0.18 0.6,-0.27 0.94,-0.27 0.35,0 0.62,0.05 0.82,0.16 0.2,0.1 0.38,0.25 0.54,0.44l0.08 -0.4 1.16 0zm-2.2 2.99c0.44,0 0.75,-0.2 0.95,-0.59l0 -0.96c-0.07,-0.19 -0.19,-0.34 -0.37,-0.46 -0.18,-0.11 -0.38,-0.17 -0.62,-0.17 -0.27,0 -0.51,0.1 -0.7,0.3 -0.19,0.2 -0.29,0.46 -0.29,0.77 0,0.2 0.05,0.39 0.14,0.56 0.1,0.17 0.22,0.3 0.38,0.4 0.16,0.1 0.33,0.14 0.51,0.14z"/>
   <path id="_10" class="fil3" d="M51.59 14.44c-0.17,0.14 -0.39,0.25 -0.65,0.33 -0.26,0.08 -0.51,0.13 -0.76,0.13 -0.68,0 -1.22,-0.18 -1.61,-0.55 -0.4,-0.37 -0.59,-0.87 -0.59,-1.52 0,-0.42 0.1,-0.78 0.29,-1.09 0.19,-0.31 0.45,-0.55 0.76,-0.72 0.32,-0.16 0.66,-0.25 1.02,-0.25 0.65,0 1.18,0.17 1.58,0.52l-0.61 0.8c-0.26,-0.2 -0.54,-0.3 -0.86,-0.3 -0.26,0 -0.48,0.1 -0.67,0.3 -0.18,0.2 -0.27,0.44 -0.27,0.74 0,0.3 0.1,0.55 0.3,0.75 0.2,0.2 0.45,0.3 0.77,0.3 0.27,0 0.5,-0.07 0.68,-0.22l0.63 0.79z"/>
   <path id="_11" class="fil3" d="M53.57 10.89l0 3.91 -1.25 0 0 -3.91 1.25 0zm-1.28 -1.39c0,-0.18 0.07,-0.33 0.21,-0.45 0.14,-0.12 0.3,-0.18 0.48,-0.18 0.17,0 0.33,0.06 0.46,0.18 0.14,0.12 0.21,0.27 0.21,0.45 0,0.18 -0.07,0.33 -0.21,0.45 -0.14,0.12 -0.29,0.18 -0.46,0.18 -0.18,0 -0.34,-0.06 -0.48,-0.18 -0.14,-0.12 -0.21,-0.27 -0.21,-0.45z"/>
   <path id="_12" class="fil3" d="M54.31 12.79c0,-0.4 0.09,-0.76 0.28,-1.07 0.19,-0.32 0.45,-0.56 0.8,-0.75 0.34,-0.18 0.73,-0.27 1.17,-0.27 0.44,0 0.82,0.09 1.15,0.27 0.33,0.18 0.59,0.43 0.76,0.75 0.18,0.32 0.27,0.67 0.27,1.07 0,0.4 -0.09,0.76 -0.27,1.08 -0.18,0.32 -0.43,0.57 -0.76,0.76 -0.33,0.18 -0.72,0.27 -1.17,0.27 -0.43,0 -0.82,-0.09 -1.16,-0.25 -0.34,-0.17 -0.6,-0.41 -0.79,-0.73 -0.19,-0.32 -0.28,-0.69 -0.28,-1.13zm1.26 0.01c0,0.31 0.09,0.57 0.27,0.77 0.18,0.21 0.41,0.31 0.68,0.31 0.29,0 0.52,-0.1 0.69,-0.3 0.18,-0.2 0.26,-0.46 0.26,-0.78 0,-0.32 -0.09,-0.58 -0.26,-0.78 -0.18,-0.2 -0.41,-0.3 -0.69,-0.3 -0.27,0 -0.5,0.1 -0.68,0.31 -0.18,0.21 -0.27,0.46 -0.27,0.77zm1.39 -2.56l-0.76 0 0.7 -1.21 1.39 0 -1.32 1.21z"/>
   <path id="_13" class="fil3" d="M62.2 10.7c0.37,0 0.68,0.11 0.93,0.33 0.25,0.22 0.37,0.5 0.38,0.84l0 2.92 -1.25 0 0 -2.46c-0.02,-0.38 -0.21,-0.57 -0.57,-0.57 -0.29,0 -0.52,0.13 -0.69,0.4 -0.17,0.27 -0.26,0.61 -0.26,1.04l0 1.59 -1.25 0 0 -3.91 1.14 0 0.09 0.63c0.14,-0.26 0.34,-0.46 0.59,-0.6 0.25,-0.14 0.55,-0.21 0.9,-0.21z"/>
   <path id="_14" class="fil3" d="M71.75 7.74l0 7.05 -1.25 0 0 -0.41c-0.45,0.35 -0.94,0.52 -1.45,0.52 -0.36,0 -0.69,-0.09 -0.97,-0.26 -0.29,-0.17 -0.51,-0.42 -0.67,-0.74 -0.16,-0.32 -0.25,-0.7 -0.25,-1.14 0,-0.43 0.09,-0.8 0.26,-1.11 0.18,-0.31 0.42,-0.55 0.73,-0.71 0.31,-0.16 0.66,-0.25 1.06,-0.25 0.26,0 0.5,0.04 0.72,0.12 0.23,0.08 0.42,0.2 0.57,0.35l0 -3.42 1.24 0zm-2.29 6.11c0.25,0 0.46,-0.05 0.63,-0.15 0.17,-0.1 0.3,-0.25 0.41,-0.44l0 -0.96c-0.07,-0.19 -0.2,-0.34 -0.38,-0.46 -0.18,-0.11 -0.4,-0.17 -0.65,-0.17 -0.28,0 -0.52,0.1 -0.73,0.3 -0.21,0.2 -0.31,0.46 -0.31,0.77 0,0.2 0.05,0.39 0.14,0.56 0.1,0.17 0.22,0.3 0.38,0.4 0.16,0.1 0.33,0.14 0.51,0.14z"/>
   <path id="_15" class="fil3" d="M74.75 13.84c0.25,0 0.51,-0.09 0.78,-0.26l0.55 0.93c-0.21,0.12 -0.44,0.21 -0.68,0.29 -0.24,0.07 -0.46,0.11 -0.68,0.11 -0.46,0 -0.87,-0.09 -1.2,-0.26 -0.34,-0.18 -0.59,-0.42 -0.76,-0.74 -0.17,-0.32 -0.26,-0.68 -0.26,-1.1 0,-0.38 0.1,-0.73 0.3,-1.05 0.2,-0.32 0.47,-0.58 0.82,-0.76 0.35,-0.19 0.72,-0.28 1.14,-0.28 0.56,0 1.02,0.16 1.38,0.49 0.36,0.33 0.59,0.8 0.7,1.4l-2.86 0.91c0.19,0.22 0.45,0.33 0.78,0.33zm-0.1 -2.16c-0.28,0 -0.5,0.1 -0.67,0.29 -0.17,0.19 -0.25,0.45 -0.25,0.77l0 0.08 1.72 -0.58c-0.12,-0.37 -0.39,-0.55 -0.8,-0.55z"/>
   <path id="_16" class="fil3" d="M9.89 20.82c0.36,0 0.69,0.09 0.97,0.26 0.29,0.17 0.51,0.42 0.67,0.74 0.16,0.32 0.25,0.7 0.25,1.14 0,0.43 -0.09,0.8 -0.27,1.11 -0.18,0.31 -0.43,0.55 -0.76,0.72 -0.32,0.16 -0.7,0.25 -1.11,0.25 -0.23,0 -0.45,-0.04 -0.67,-0.12 -0.22,-0.08 -0.4,-0.2 -0.54,-0.34l0 2.24 -1.24 0 0 -5.87 1.07 0 0.11 0.46c0.48,-0.38 0.98,-0.57 1.52,-0.57zm-0.5 3.23c0.31,0 0.58,-0.1 0.8,-0.3 0.22,-0.2 0.33,-0.46 0.33,-0.77 0,-0.32 -0.1,-0.59 -0.3,-0.79 -0.2,-0.21 -0.45,-0.31 -0.74,-0.31 -0.24,0 -0.45,0.05 -0.62,0.15 -0.17,0.1 -0.31,0.25 -0.42,0.44l0 0.96c0.07,0.19 0.18,0.34 0.35,0.46 0.17,0.11 0.37,0.17 0.59,0.17z"/>
   <polygon id="_17" class="fil3" points="13.78,17.87 13.78,24.92 12.53,24.92 12.53,17.87 "/>
   <path id="_18" class="fil3" d="M19.03 21.02l0 3.91 -1.25 0 0 -0.48c-0.38,0.39 -0.81,0.59 -1.31,0.59 -0.58,0 -1.05,-0.17 -1.41,-0.52 -0.36,-0.35 -0.54,-0.86 -0.54,-1.54 0,-0.43 0.09,-0.81 0.26,-1.13 0.18,-0.32 0.41,-0.58 0.7,-0.76 0.29,-0.18 0.6,-0.27 0.94,-0.27 0.35,0 0.62,0.05 0.82,0.16 0.2,0.1 0.38,0.25 0.54,0.44l0.08 -0.4 1.16 0zm-2.2 2.99c0.44,0 0.75,-0.2 0.95,-0.59l0 -0.96c-0.07,-0.19 -0.19,-0.34 -0.37,-0.46 -0.18,-0.11 -0.38,-0.17 -0.62,-0.17 -0.27,0 -0.51,0.1 -0.7,0.3 -0.19,0.2 -0.29,0.46 -0.29,0.77 0,0.2 0.05,0.39 0.14,0.56 0.1,0.17 0.22,0.3 0.38,0.4 0.16,0.1 0.33,0.14 0.51,0.14z"/>
   <path id="_19" class="fil3" d="M22.8 20.83c0.37,0 0.68,0.11 0.93,0.33 0.25,0.22 0.37,0.5 0.38,0.84l0 2.92 -1.25 0 0 -2.46c-0.02,-0.38 -0.21,-0.57 -0.57,-0.57 -0.29,0 -0.52,0.13 -0.69,0.4 -0.17,0.27 -0.26,0.61 -0.26,1.04l0 1.59 -1.25 0 0 -3.91 1.14 0 0.09 0.63c0.14,-0.26 0.34,-0.46 0.59,-0.6 0.25,-0.14 0.55,-0.21 0.9,-0.21z"/>
   <path id="_20" class="fil3" d="M24.85 22.92c0,-0.4 0.09,-0.76 0.28,-1.07 0.19,-0.32 0.45,-0.56 0.8,-0.75 0.34,-0.18 0.73,-0.27 1.17,-0.27 0.44,0 0.82,0.09 1.15,0.27 0.33,0.18 0.59,0.43 0.76,0.75 0.18,0.32 0.27,0.67 0.27,1.07 0,0.4 -0.09,0.76 -0.27,1.08 -0.18,0.32 -0.43,0.57 -0.76,0.76 -0.33,0.18 -0.72,0.27 -1.17,0.27 -0.43,0 -0.82,-0.09 -1.16,-0.25 -0.34,-0.17 -0.6,-0.41 -0.79,-0.73 -0.19,-0.32 -0.28,-0.69 -0.28,-1.13zm1.26 0.01c0,0.31 0.09,0.57 0.27,0.77 0.18,0.21 0.41,0.31 0.68,0.31 0.29,0 0.52,-0.1 0.69,-0.3 0.18,-0.2 0.26,-0.46 0.26,-0.78 0,-0.32 -0.09,-0.58 -0.26,-0.78 -0.18,-0.2 -0.41,-0.3 -0.69,-0.3 -0.27,0 -0.5,0.1 -0.68,0.31 -0.18,0.21 -0.27,0.46 -0.27,0.77z"/>
   <path id="_21" class="fil3" d="M31.29 25.01c-0.32,0 -0.62,-0.06 -0.9,-0.17 -0.28,-0.11 -0.51,-0.27 -0.7,-0.47l0.52 -0.69c0.35,0.32 0.67,0.48 0.97,0.48 0.16,0 0.29,-0.03 0.39,-0.08 0.1,-0.05 0.15,-0.13 0.15,-0.23 0,-0.12 -0.06,-0.21 -0.17,-0.27 -0.11,-0.06 -0.24,-0.11 -0.38,-0.16 -0.14,-0.04 -0.23,-0.07 -0.28,-0.08 -0.34,-0.11 -0.59,-0.27 -0.76,-0.48 -0.17,-0.21 -0.25,-0.45 -0.25,-0.73 0,-0.21 0.06,-0.41 0.17,-0.61 0.11,-0.2 0.28,-0.36 0.51,-0.49 0.23,-0.13 0.52,-0.19 0.87,-0.19 0.32,0 0.6,0.03 0.82,0.1 0.23,0.07 0.44,0.17 0.65,0.32l-0.47 0.73c-0.12,-0.1 -0.25,-0.17 -0.4,-0.24 -0.15,-0.06 -0.28,-0.09 -0.4,-0.09 -0.14,0 -0.26,0.03 -0.35,0.09 -0.09,0.06 -0.13,0.13 -0.13,0.21 -0.01,0.13 0.05,0.22 0.16,0.28 0.11,0.06 0.28,0.13 0.51,0.19 0.04,0.01 0.07,0.02 0.11,0.04 0.04,0.01 0.08,0.02 0.12,0.04 0.61,0.2 0.92,0.57 0.92,1.11 0,0.25 -0.06,0.48 -0.19,0.69 -0.13,0.21 -0.31,0.38 -0.57,0.5 -0.25,0.13 -0.56,0.19 -0.93,0.19z"/>
   <path id="_22" class="fil3" d="M40.41 19.94c-0.57,-0.32 -1.07,-0.47 -1.49,-0.47 -0.29,0 -0.51,0.06 -0.67,0.17 -0.16,0.11 -0.24,0.28 -0.24,0.51 0,0.21 0.11,0.39 0.34,0.55 0.23,0.16 0.53,0.31 0.92,0.45 0.31,0.11 0.58,0.24 0.8,0.39 0.22,0.15 0.4,0.35 0.55,0.6 0.15,0.26 0.22,0.58 0.22,0.97 0,0.34 -0.09,0.65 -0.26,0.94 -0.18,0.29 -0.43,0.52 -0.77,0.69 -0.34,0.17 -0.75,0.25 -1.22,0.25 -0.39,0 -0.78,-0.06 -1.17,-0.17 -0.39,-0.12 -0.75,-0.29 -1.08,-0.53l0.57 -1.01c0.23,0.17 0.49,0.3 0.78,0.41 0.29,0.11 0.55,0.16 0.79,0.16 0.27,0 0.51,-0.06 0.72,-0.17 0.2,-0.12 0.3,-0.31 0.3,-0.57 0,-0.34 -0.32,-0.63 -0.96,-0.89 -0.38,-0.15 -0.69,-0.29 -0.94,-0.43 -0.25,-0.14 -0.47,-0.33 -0.65,-0.59 -0.18,-0.26 -0.27,-0.58 -0.27,-0.97 0,-0.57 0.19,-1.02 0.56,-1.37 0.37,-0.35 0.87,-0.53 1.49,-0.56 0.49,0 0.9,0.05 1.22,0.17 0.33,0.11 0.65,0.27 0.96,0.47l-0.49 0.99z"/>
   <path id="_23" class="fil3" d="M45.86 21.02l0 3.91 -1.25 0 0 -0.48c-0.38,0.39 -0.81,0.59 -1.31,0.59 -0.58,0 -1.05,-0.17 -1.41,-0.52 -0.36,-0.35 -0.54,-0.86 -0.54,-1.54 0,-0.43 0.09,-0.81 0.26,-1.13 0.18,-0.32 0.41,-0.58 0.7,-0.76 0.29,-0.18 0.6,-0.27 0.94,-0.27 0.35,0 0.62,0.05 0.82,0.16 0.2,0.1 0.38,0.25 0.54,0.44l0.08 -0.4 1.16 0zm-2.2 2.99c0.44,0 0.75,-0.2 0.95,-0.59l0 -0.96c-0.07,-0.19 -0.19,-0.34 -0.37,-0.46 -0.18,-0.11 -0.38,-0.17 -0.62,-0.17 -0.27,0 -0.51,0.1 -0.7,0.3 -0.19,0.2 -0.29,0.46 -0.29,0.77 0,0.2 0.05,0.39 0.14,0.56 0.1,0.17 0.22,0.3 0.38,0.4 0.16,0.1 0.33,0.14 0.51,0.14z"/>
   <path id="_24" class="fil3" d="M49.63 20.83c0.37,0 0.68,0.11 0.93,0.33 0.25,0.22 0.37,0.5 0.38,0.84l0 2.92 -1.25 0 0 -2.46c-0.02,-0.38 -0.21,-0.57 -0.57,-0.57 -0.29,0 -0.52,0.13 -0.69,0.4 -0.17,0.27 -0.26,0.61 -0.26,1.04l0 1.59 -1.25 0 0 -3.91 1.14 0 0.09 0.63c0.14,-0.26 0.34,-0.46 0.59,-0.6 0.25,-0.14 0.55,-0.21 0.9,-0.21z"/>
   <path id="_25" class="fil3" d="M53.24 21.02l0 3.91 -1.25 0 0 -3.91 1.25 0zm-1.28 -1.39c0,-0.18 0.07,-0.33 0.21,-0.45 0.14,-0.12 0.3,-0.18 0.48,-0.18 0.17,0 0.33,0.06 0.46,0.18 0.14,0.12 0.21,0.27 0.21,0.45 0,0.18 -0.07,0.33 -0.21,0.45 -0.14,0.12 -0.29,0.18 -0.46,0.18 -0.18,0 -0.34,-0.06 -0.48,-0.18 -0.14,-0.12 -0.21,-0.27 -0.21,-0.45z"/>
   <polygon id="_26" class="fil3" points="55.9,19.3 55.9,21 56.85,21 56.85,21.97 55.9,21.97 55.9,24.92 54.65,24.92 54.65,21.97 54.05,21.97 54.05,21 54.65,21 54.65,19.3 "/>
   <path id="_27" class="fil3" d="M61.77 21.02l0 3.91 -1.25 0 0 -0.48c-0.38,0.39 -0.81,0.59 -1.31,0.59 -0.58,0 -1.05,-0.17 -1.41,-0.52 -0.36,-0.35 -0.54,-0.86 -0.54,-1.54 0,-0.43 0.09,-0.81 0.26,-1.13 0.18,-0.32 0.41,-0.58 0.7,-0.76 0.29,-0.18 0.6,-0.27 0.94,-0.27 0.35,0 0.62,0.05 0.82,0.16 0.2,0.1 0.38,0.25 0.54,0.44l0.08 -0.4 1.16 0zm-2.2 2.99c0.44,0 0.75,-0.2 0.95,-0.59l0 -0.96c-0.07,-0.19 -0.19,-0.34 -0.37,-0.46 -0.18,-0.11 -0.38,-0.17 -0.62,-0.17 -0.27,0 -0.51,0.1 -0.7,0.3 -0.19,0.2 -0.29,0.46 -0.29,0.77 0,0.2 0.05,0.39 0.14,0.56 0.1,0.17 0.22,0.3 0.38,0.4 0.16,0.1 0.33,0.14 0.51,0.14z"/>
   <path id="_28" class="fil3" d="M64.05 21.91c0.11,-0.21 0.25,-0.4 0.44,-0.56 0.19,-0.17 0.38,-0.3 0.58,-0.39 0.2,-0.09 0.35,-0.14 0.46,-0.14l-0.06 1.25c-0.04,-0.01 -0.09,-0.01 -0.15,-0.01 -0.25,0 -0.47,0.07 -0.66,0.2 -0.19,0.13 -0.34,0.3 -0.44,0.51 -0.1,0.21 -0.15,0.42 -0.15,0.63l0 1.53 -1.24 0 0 -3.91 1.13 0 0.1 0.89z"/>
   <path id="_29" class="fil3" d="M67.5 21.02l0 3.91 -1.25 0 0 -3.91 1.25 0zm-1.28 -1.39c0,-0.18 0.07,-0.33 0.21,-0.45 0.14,-0.12 0.3,-0.18 0.48,-0.18 0.17,0 0.33,0.06 0.46,0.18 0.14,0.12 0.21,0.27 0.21,0.45 0,0.18 -0.07,0.33 -0.21,0.45 -0.14,0.12 -0.29,0.18 -0.46,0.18 -0.18,0 -0.34,-0.06 -0.48,-0.18 -0.14,-0.12 -0.21,-0.27 -0.21,-0.45z"/>
   <path id="_30" class="fil3" d="M68.25 22.92c0,-0.4 0.09,-0.76 0.28,-1.07 0.19,-0.32 0.45,-0.56 0.8,-0.75 0.34,-0.18 0.73,-0.27 1.17,-0.27 0.44,0 0.82,0.09 1.15,0.27 0.33,0.18 0.59,0.43 0.76,0.75 0.18,0.32 0.27,0.67 0.27,1.07 0,0.4 -0.09,0.76 -0.27,1.08 -0.18,0.32 -0.43,0.57 -0.76,0.76 -0.33,0.18 -0.72,0.27 -1.17,0.27 -0.43,0 -0.82,-0.09 -1.16,-0.25 -0.34,-0.17 -0.6,-0.41 -0.79,-0.73 -0.19,-0.32 -0.28,-0.69 -0.28,-1.13zm1.26 0.01c0,0.31 0.09,0.57 0.27,0.77 0.18,0.21 0.41,0.31 0.68,0.31 0.29,0 0.52,-0.1 0.69,-0.3 0.18,-0.2 0.26,-0.46 0.26,-0.78 0,-0.32 -0.09,-0.58 -0.26,-0.78 -0.18,-0.2 -0.41,-0.3 -0.69,-0.3 -0.27,0 -0.5,0.1 -0.68,0.31 -0.18,0.21 -0.27,0.46 -0.27,0.77z"/>
   <path id="_31" class="fil3" d="M74.69 25.01c-0.32,0 -0.62,-0.06 -0.9,-0.17 -0.28,-0.11 -0.51,-0.27 -0.7,-0.47l0.52 -0.69c0.35,0.32 0.67,0.48 0.97,0.48 0.16,0 0.29,-0.03 0.39,-0.08 0.1,-0.05 0.15,-0.13 0.15,-0.23 0,-0.12 -0.06,-0.21 -0.17,-0.27 -0.11,-0.06 -0.24,-0.11 -0.38,-0.16 -0.14,-0.04 -0.23,-0.07 -0.28,-0.08 -0.34,-0.11 -0.59,-0.27 -0.76,-0.48 -0.17,-0.21 -0.25,-0.45 -0.25,-0.73 0,-0.21 0.06,-0.41 0.17,-0.61 0.11,-0.2 0.28,-0.36 0.51,-0.49 0.23,-0.13 0.52,-0.19 0.87,-0.19 0.32,0 0.6,0.03 0.82,0.1 0.23,0.07 0.44,0.17 0.65,0.32l-0.47 0.73c-0.12,-0.1 -0.25,-0.17 -0.4,-0.24 -0.15,-0.06 -0.28,-0.09 -0.4,-0.09 -0.14,0 -0.26,0.03 -0.35,0.09 -0.09,0.06 -0.13,0.13 -0.13,0.21 -0.01,0.13 0.05,0.22 0.16,0.28 0.11,0.06 0.28,0.13 0.51,0.19 0.04,0.01 0.07,0.02 0.11,0.04 0.04,0.01 0.08,0.02 0.12,0.04 0.61,0.2 0.92,0.57 0.92,1.11 0,0.25 -0.06,0.48 -0.19,0.69 -0.13,0.21 -0.31,0.38 -0.57,0.5 -0.25,0.13 -0.56,0.19 -0.93,0.19z"/>
   <rect class="fil4" x="98.34" y="1.01" width="0.9" height="32.52"/>
  </g>
 </g>
</svg>
