<?xml version="1.0" encoding="UTF-8"?>
<!DOCTYPE svg PUBLIC "-//W3C//DTD SVG 1.1//EN" "http://www.w3.org/Graphics/SVG/1.1/DTD/svg11.dtd">
<!-- Creator: CorelDRAW 2021 (64-Bit) -->
<svg xmlns="http://www.w3.org/2000/svg" xml:space="preserve" width="29.0946mm" height="8.2389mm" version="1.1" style="shape-rendering:geometricPrecision; text-rendering:geometricPrecision; image-rendering:optimizeQuality; fill-rule:evenodd; clip-rule:evenodd"
viewBox="0 0 121.98 34.54"
 xmlns:xlink="http://www.w3.org/1999/xlink"
 xmlns:xodm="http://www.corel.com/coreldraw/odm/2003">
 <defs>
  <style type="text/css">
   <![CDATA[
    .fil2 {fill:#FEFEFE}
    .fil0 {fill:#BD8942}
    .fil1 {fill:#FEFEFE;fill-rule:nonzero}
   ]]>
  </style>
     <mask id="id0">
  <linearGradient id="id1" gradientUnits="userSpaceOnUse" x1="100.01" y1="112.6" x2="74.79" y2="2.39">
   <stop offset="0" style="stop-opacity:1; stop-color:white"/>
   <stop offset="1" style="stop-opacity:0; stop-color:white"/>
  </linearGradient>
      <rect style="fill:url(#id1)" x="0.02" y="-0.13" width="122.09" height="34.79"/>
     </mask>
 </defs>
 <g id="Capa_x0020_1">
  <metadata id="CorelCorpID_0Corel-Layer"/>
  <g id="_2287853524208">
   <g>
    <path class="fil0" d="M114.74 34.54l-107.5 0c-4,0 -7.24,-3.24 -7.24,-7.24l0 -20.06c0,-4 3.24,-7.25 7.24,-7.25l107.5 0c4,0 7.24,3.24 7.24,7.25l0 20.06c0,4 -3.24,7.24 -7.24,7.24z"/>
    <path class="fil1" style="mask:url(#id0)" d="M114.74 34.54l-107.5 0c-3.51,0 -6.43,-2.5 -7.1,-5.81 7.5,1.17 9.04,6.11 20.66,3.74 18.63,-3.8 34.9,-23.58 43.59,-22.67 18.24,1.9 31.17,13.95 41.58,-9.8l8.77 0c4,0 7.24,3.24 7.24,7.25l0 20.06c0,4 -3.24,7.24 -7.24,7.24z"/>
   </g>
   <path class="fil2" d="M108.89 9.8l0.01 2.26c-0.38,0.08 -0.5,0 -1,0.24 -0.99,0.48 -1.26,1.31 -1.27,2.36l9.79 0c-0.02,-1.06 -0.27,-1.84 -1.26,-2.35 -0.4,-0.2 -0.61,-0.17 -1.02,-0.25l0 -2.27c0.17,-0.01 0.4,0.03 0.54,-0.03 0.12,-0.05 0.21,-0.22 0.12,-0.39l-6.56 0c-0.08,0.16 0,0.33 0.11,0.38 0.13,0.07 0.39,0.03 0.55,0.04zm-0.14 13.96c0.04,1.41 -0.18,1.4 0.67,1.4l4.17 0c0.86,0 0.67,0.04 0.69,-1.4 1.39,-0.35 2.11,-0.87 2.13,-2.5l-9.79 0c0.01,1.63 0.73,2.14 2.13,2.5zm7.66 -3.46l0.01 -4.79 -9.79 0 0 4.79 9.78 0zm-4.98 -3.97c-0.15,0.05 -0.23,0.21 -0.35,0.37 -0.24,0.32 -0.65,0.97 -0.75,1.37 -0.2,0.81 0.53,1.52 1.31,1.45 0.73,-0.06 1.33,-0.81 1.02,-1.63 -0.18,-0.49 -0.51,-0.92 -0.8,-1.32 -0.09,-0.13 -0.21,-0.31 -0.43,-0.23zm0.09 0.74c-0.13,0.1 -0.5,0.76 -0.6,0.98 -0.2,0.47 0.15,0.9 0.6,0.9 0.44,0 0.79,-0.43 0.6,-0.88 -0.09,-0.21 -0.47,-0.9 -0.6,-1zm-2.05 -5.01l1.76 0 0 -0.91c-0.15,-0 -0.5,0.02 -0.63,-0.01 -0.15,-0.03 -0.28,-0.2 -0.2,-0.39 0.07,-0.19 0.24,-0.17 0.46,-0.17l1.29 0c0.23,-0 0.41,-0.02 0.48,0.17 0.07,0.18 -0.04,0.35 -0.19,0.39 -0.1,0.03 -0.51,0.01 -0.65,0.01l0 0.91 1.76 -0 0 -2.27 -4.09 -0 -0 2.27z"/>
   <polygon class="fil1" points="8.68,9.16 8.68,15.69 7.39,15.69 7.39,9.16 "/>
   <path id="_1" class="fil1" d="M12.68 11.63c0.37,0 0.67,0.11 0.92,0.33 0.25,0.22 0.37,0.5 0.38,0.83l0 2.9 -1.24 0 0 -2.44c-0.02,-0.38 -0.21,-0.57 -0.57,-0.57 -0.28,0 -0.51,0.13 -0.68,0.4 -0.17,0.27 -0.26,0.61 -0.26,1.03l0 1.58 -1.24 0 0 -3.88 1.13 0 0.09 0.62c0.14,-0.25 0.34,-0.45 0.59,-0.59 0.25,-0.14 0.55,-0.21 0.89,-0.21z"/>
   <polygon id="_2" class="fil1" points="16.69,10.11 16.69,11.79 17.63,11.79 17.63,12.76 16.69,12.76 16.69,15.69 15.45,15.69 15.45,12.76 14.84,12.76 14.84,11.79 15.45,11.79 15.45,10.11 "/>
   <path id="_3" class="fil1" d="M20.34 14.74c0.25,0 0.51,-0.09 0.77,-0.26l0.55 0.92c-0.21,0.12 -0.44,0.21 -0.67,0.28 -0.24,0.07 -0.46,0.11 -0.67,0.11 -0.46,0 -0.86,-0.09 -1.19,-0.26 -0.33,-0.17 -0.59,-0.42 -0.76,-0.74 -0.17,-0.32 -0.26,-0.68 -0.26,-1.09 0,-0.38 0.1,-0.73 0.3,-1.05 0.2,-0.32 0.47,-0.57 0.81,-0.76 0.34,-0.19 0.72,-0.28 1.13,-0.28 0.56,0 1.01,0.16 1.37,0.49 0.36,0.33 0.59,0.79 0.7,1.39l-2.84 0.91c0.19,0.22 0.45,0.33 0.77,0.33zm-0.1 -2.15c-0.28,0 -0.5,0.09 -0.67,0.28 -0.17,0.19 -0.25,0.44 -0.25,0.76l0 0.08 1.7 -0.58c-0.12,-0.37 -0.39,-0.55 -0.79,-0.55z"/>
   <path id="_4" class="fil1" d="M24.35 12.7c0.11,-0.21 0.25,-0.39 0.44,-0.56 0.19,-0.17 0.38,-0.29 0.57,-0.39 0.2,-0.09 0.35,-0.14 0.46,-0.14l-0.06 1.24c-0.04,-0.01 -0.09,-0.01 -0.15,-0.01 -0.25,0 -0.47,0.06 -0.66,0.19 -0.19,0.13 -0.33,0.3 -0.43,0.5 -0.1,0.2 -0.15,0.41 -0.15,0.63l0 1.52 -1.23 0 0 -3.88 1.12 0 0.1 0.89z"/>
   <path id="_5" class="fil1" d="M29.28 11.62c0.36,0 0.68,0.09 0.97,0.26 0.28,0.17 0.51,0.42 0.67,0.74 0.16,0.32 0.24,0.7 0.24,1.13 0,0.43 -0.09,0.79 -0.27,1.11 -0.18,0.31 -0.43,0.55 -0.75,0.71 -0.32,0.16 -0.69,0.24 -1.1,0.24 -0.22,0 -0.45,-0.04 -0.66,-0.12 -0.22,-0.08 -0.39,-0.19 -0.54,-0.34l0 2.22 -1.23 0 0 -5.83 1.06 0 0.11 0.46c0.47,-0.38 0.98,-0.57 1.51,-0.57zm-0.5 3.2c0.31,0 0.57,-0.1 0.79,-0.3 0.22,-0.2 0.33,-0.46 0.33,-0.76 0,-0.32 -0.1,-0.58 -0.3,-0.79 -0.2,-0.2 -0.44,-0.31 -0.73,-0.31 -0.24,0 -0.45,0.05 -0.62,0.15 -0.17,0.1 -0.31,0.24 -0.41,0.44l0 0.95c0.07,0.19 0.18,0.34 0.35,0.45 0.17,0.11 0.37,0.17 0.59,0.17z"/>
   <path id="_6" class="fil1" d="M33.17 12.7c0.11,-0.21 0.25,-0.39 0.44,-0.56 0.19,-0.17 0.38,-0.29 0.57,-0.39 0.2,-0.09 0.35,-0.14 0.46,-0.14l-0.06 1.24c-0.04,-0.01 -0.09,-0.01 -0.15,-0.01 -0.25,0 -0.47,0.06 -0.66,0.19 -0.19,0.13 -0.33,0.3 -0.43,0.5 -0.1,0.2 -0.15,0.41 -0.15,0.63l0 1.52 -1.23 0 0 -3.88 1.12 0 0.1 0.89z"/>
   <path id="_7" class="fil1" d="M37.18 14.74c0.25,0 0.51,-0.09 0.77,-0.26l0.55 0.92c-0.21,0.12 -0.44,0.21 -0.67,0.28 -0.24,0.07 -0.46,0.11 -0.67,0.11 -0.46,0 -0.86,-0.09 -1.19,-0.26 -0.33,-0.17 -0.59,-0.42 -0.76,-0.74 -0.17,-0.32 -0.26,-0.68 -0.26,-1.09 0,-0.38 0.1,-0.73 0.3,-1.05 0.2,-0.32 0.47,-0.57 0.81,-0.76 0.34,-0.19 0.72,-0.28 1.13,-0.28 0.56,0 1.01,0.16 1.37,0.49 0.36,0.33 0.59,0.79 0.7,1.39l-2.84 0.91c0.19,0.22 0.45,0.33 0.77,0.33zm-0.1 -2.15c-0.28,0 -0.5,0.09 -0.67,0.28 -0.17,0.19 -0.25,0.44 -0.25,0.76l0 0.08 1.7 -0.58c-0.12,-0.37 -0.39,-0.55 -0.79,-0.55z"/>
   <polygon id="_8" class="fil1" points="41.58,10.11 41.58,11.79 42.52,11.79 42.52,12.76 41.58,12.76 41.58,15.69 40.34,15.69 40.34,12.76 39.74,12.76 39.74,11.79 40.34,11.79 40.34,10.11 "/>
   <path id="_9" class="fil1" d="M47.47 11.81l0 3.88 -1.24 0 0 -0.48c-0.37,0.39 -0.8,0.59 -1.3,0.59 -0.57,0 -1.04,-0.17 -1.4,-0.51 -0.36,-0.34 -0.54,-0.85 -0.54,-1.53 0,-0.43 0.09,-0.8 0.26,-1.12 0.17,-0.32 0.41,-0.57 0.7,-0.75 0.29,-0.18 0.6,-0.27 0.93,-0.27 0.34,0 0.62,0.05 0.82,0.16 0.2,0.1 0.38,0.25 0.53,0.44l0.08 -0.4 1.15 0zm-2.18 2.97c0.43,0 0.75,-0.2 0.94,-0.59l0 -0.95c-0.07,-0.19 -0.19,-0.34 -0.37,-0.45 -0.17,-0.11 -0.38,-0.17 -0.62,-0.17 -0.27,0 -0.5,0.1 -0.7,0.3 -0.19,0.2 -0.29,0.46 -0.29,0.76 0,0.2 0.05,0.39 0.14,0.55 0.09,0.17 0.22,0.3 0.38,0.39 0.16,0.09 0.33,0.14 0.51,0.14z"/>
   <path id="_10" class="fil1" d="M51.86 15.34c-0.17,0.14 -0.39,0.25 -0.64,0.33 -0.26,0.08 -0.51,0.12 -0.76,0.12 -0.67,0 -1.21,-0.18 -1.6,-0.55 -0.39,-0.36 -0.59,-0.87 -0.59,-1.5 0,-0.41 0.1,-0.78 0.29,-1.09 0.19,-0.31 0.45,-0.55 0.76,-0.71 0.31,-0.16 0.65,-0.24 1.01,-0.24 0.64,0 1.17,0.17 1.57,0.51l-0.6 0.8c-0.25,-0.2 -0.54,-0.3 -0.85,-0.3 -0.26,0 -0.48,0.1 -0.66,0.29 -0.18,0.19 -0.27,0.44 -0.27,0.74 0,0.3 0.1,0.54 0.29,0.74 0.2,0.2 0.45,0.3 0.76,0.3 0.27,0 0.5,-0.07 0.67,-0.22l0.62 0.78z"/>
   <path id="_11" class="fil1" d="M53.89 11.81l0 3.88 -1.24 0 0 -3.88 1.24 0zm-1.27 -1.38c0,-0.18 0.07,-0.33 0.21,-0.45 0.14,-0.12 0.3,-0.18 0.47,-0.18 0.17,0 0.33,0.06 0.46,0.18 0.14,0.12 0.2,0.27 0.2,0.45 0,0.18 -0.07,0.33 -0.2,0.44 -0.14,0.12 -0.29,0.18 -0.46,0.18 -0.18,0 -0.34,-0.06 -0.47,-0.18 -0.14,-0.12 -0.21,-0.27 -0.21,-0.44z"/>
   <path id="_12" class="fil1" d="M54.69 13.7c0,-0.4 0.09,-0.75 0.28,-1.06 0.19,-0.31 0.45,-0.56 0.79,-0.74 0.34,-0.18 0.73,-0.27 1.16,-0.27 0.43,0 0.81,0.09 1.14,0.27 0.33,0.18 0.58,0.43 0.76,0.74 0.18,0.31 0.27,0.67 0.27,1.06 0,0.4 -0.09,0.75 -0.27,1.07 -0.18,0.32 -0.43,0.57 -0.76,0.75 -0.33,0.18 -0.71,0.27 -1.16,0.27 -0.43,0 -0.82,-0.08 -1.15,-0.25 -0.33,-0.17 -0.59,-0.41 -0.78,-0.72 -0.19,-0.31 -0.28,-0.69 -0.28,-1.12zm1.25 0.01c0,0.31 0.09,0.56 0.27,0.77 0.18,0.2 0.4,0.31 0.67,0.31 0.28,0 0.51,-0.1 0.69,-0.3 0.17,-0.2 0.26,-0.46 0.26,-0.77 0,-0.31 -0.09,-0.57 -0.26,-0.77 -0.17,-0.2 -0.4,-0.3 -0.69,-0.3 -0.27,0 -0.5,0.1 -0.67,0.31 -0.18,0.2 -0.27,0.46 -0.27,0.77zm1.38 -2.54l-0.75 0 0.69 -1.2 1.38 0 -1.31 1.2z"/>
   <path id="_13" class="fil1" d="M62.58 11.63c0.37,0 0.67,0.11 0.92,0.33 0.25,0.22 0.37,0.5 0.38,0.83l0 2.9 -1.24 0 0 -2.44c-0.02,-0.38 -0.21,-0.57 -0.57,-0.57 -0.28,0 -0.51,0.13 -0.68,0.4 -0.17,0.27 -0.26,0.61 -0.26,1.03l0 1.58 -1.24 0 0 -3.88 1.13 0 0.09 0.62c0.14,-0.25 0.34,-0.45 0.59,-0.59 0.25,-0.14 0.55,-0.21 0.89,-0.21z"/>
   <path id="_14" class="fil1" d="M70.54 11.62c0.36,0 0.68,0.09 0.97,0.26 0.28,0.17 0.51,0.42 0.67,0.74 0.16,0.32 0.24,0.7 0.24,1.13 0,0.43 -0.09,0.79 -0.27,1.11 -0.18,0.31 -0.43,0.55 -0.75,0.71 -0.32,0.16 -0.69,0.24 -1.1,0.24 -0.22,0 -0.45,-0.04 -0.66,-0.12 -0.22,-0.08 -0.39,-0.19 -0.54,-0.34l0 2.22 -1.23 0 0 -5.83 1.06 0 0.11 0.46c0.47,-0.38 0.98,-0.57 1.51,-0.57zm-0.5 3.2c0.31,0 0.57,-0.1 0.79,-0.3 0.22,-0.2 0.33,-0.46 0.33,-0.76 0,-0.32 -0.1,-0.58 -0.3,-0.79 -0.2,-0.2 -0.44,-0.31 -0.73,-0.31 -0.24,0 -0.45,0.05 -0.62,0.15 -0.17,0.1 -0.31,0.24 -0.41,0.44l0 0.95c0.07,0.19 0.18,0.34 0.35,0.45 0.17,0.11 0.37,0.17 0.59,0.17z"/>
   <polygon id="_15" class="fil1" points="74.47,8.69 74.47,15.69 73.22,15.69 73.22,8.69 "/>
   <path id="_16" class="fil1" d="M79.74 11.81l0 3.88 -1.24 0 0 -0.48c-0.37,0.39 -0.8,0.59 -1.3,0.59 -0.57,0 -1.04,-0.17 -1.4,-0.51 -0.36,-0.34 -0.54,-0.85 -0.54,-1.53 0,-0.43 0.09,-0.8 0.26,-1.12 0.17,-0.32 0.41,-0.57 0.7,-0.75 0.29,-0.18 0.6,-0.27 0.93,-0.27 0.34,0 0.62,0.05 0.82,0.16 0.2,0.1 0.38,0.25 0.53,0.44l0.08 -0.4 1.15 0zm-2.18 2.97c0.43,0 0.75,-0.2 0.94,-0.59l0 -0.95c-0.07,-0.19 -0.19,-0.34 -0.37,-0.45 -0.17,-0.11 -0.38,-0.17 -0.62,-0.17 -0.27,0 -0.5,0.1 -0.7,0.3 -0.19,0.2 -0.29,0.46 -0.29,0.76 0,0.2 0.05,0.39 0.14,0.55 0.09,0.17 0.22,0.3 0.38,0.39 0.16,0.09 0.33,0.14 0.51,0.14z"/>
   <path id="_17" class="fil1" d="M83.54 11.63c0.37,0 0.67,0.11 0.92,0.33 0.25,0.22 0.37,0.5 0.38,0.83l0 2.9 -1.24 0 0 -2.44c-0.02,-0.38 -0.21,-0.57 -0.57,-0.57 -0.28,0 -0.51,0.13 -0.68,0.4 -0.17,0.27 -0.26,0.61 -0.26,1.03l0 1.58 -1.24 0 0 -3.88 1.13 0 0.09 0.62c0.14,-0.25 0.34,-0.45 0.59,-0.59 0.25,-0.14 0.55,-0.21 0.89,-0.21z"/>
   <path id="_18" class="fil1" d="M85.64 13.7c0,-0.4 0.09,-0.75 0.28,-1.06 0.19,-0.31 0.45,-0.56 0.79,-0.74 0.34,-0.18 0.73,-0.27 1.16,-0.27 0.43,0 0.81,0.09 1.14,0.27 0.33,0.18 0.58,0.43 0.76,0.74 0.18,0.31 0.27,0.67 0.27,1.06 0,0.4 -0.09,0.75 -0.27,1.07 -0.18,0.32 -0.43,0.57 -0.76,0.75 -0.33,0.18 -0.71,0.27 -1.16,0.27 -0.43,0 -0.82,-0.08 -1.15,-0.25 -0.33,-0.17 -0.59,-0.41 -0.78,-0.72 -0.19,-0.31 -0.28,-0.69 -0.28,-1.12zm1.25 0.01c0,0.31 0.09,0.56 0.27,0.77 0.18,0.2 0.4,0.31 0.67,0.31 0.28,0 0.51,-0.1 0.69,-0.3 0.17,-0.2 0.26,-0.46 0.26,-0.77 0,-0.31 -0.09,-0.57 -0.26,-0.77 -0.17,-0.2 -0.4,-0.3 -0.69,-0.3 -0.27,0 -0.5,0.1 -0.67,0.31 -0.18,0.2 -0.27,0.46 -0.27,0.77z"/>
   <path id="_19" class="fil1" d="M92.09 15.77c-0.32,0 -0.62,-0.06 -0.9,-0.17 -0.28,-0.11 -0.51,-0.27 -0.69,-0.47l0.51 -0.68c0.34,0.32 0.67,0.48 0.97,0.48 0.16,0 0.29,-0.03 0.39,-0.08 0.1,-0.05 0.15,-0.13 0.15,-0.23 0,-0.12 -0.06,-0.21 -0.17,-0.27 -0.11,-0.06 -0.24,-0.11 -0.38,-0.16 -0.14,-0.04 -0.23,-0.07 -0.28,-0.08 -0.34,-0.11 -0.59,-0.26 -0.75,-0.47 -0.17,-0.21 -0.25,-0.45 -0.25,-0.72 0,-0.21 0.05,-0.41 0.16,-0.61 0.11,-0.2 0.28,-0.36 0.51,-0.49 0.23,-0.13 0.52,-0.19 0.86,-0.19 0.32,0 0.59,0.03 0.82,0.1 0.22,0.06 0.44,0.17 0.65,0.32l-0.47 0.73c-0.12,-0.09 -0.25,-0.17 -0.39,-0.24 -0.15,-0.06 -0.28,-0.09 -0.39,-0.09 -0.14,0 -0.26,0.03 -0.35,0.09 -0.09,0.06 -0.13,0.13 -0.13,0.21 -0.01,0.12 0.05,0.22 0.16,0.28 0.11,0.06 0.28,0.13 0.51,0.19 0.04,0.01 0.07,0.02 0.11,0.04 0.04,0.01 0.08,0.02 0.12,0.04 0.61,0.2 0.91,0.57 0.91,1.1 0,0.25 -0.06,0.48 -0.19,0.68 -0.12,0.21 -0.31,0.37 -0.56,0.5 -0.25,0.13 -0.56,0.19 -0.92,0.19z"/>
   <path id="_20" class="fil1" d="M12.69 25.09c-0.1,0.11 -0.28,0.22 -0.54,0.33 -0.26,0.12 -0.54,0.21 -0.85,0.28 -0.31,0.07 -0.59,0.11 -0.85,0.11 -0.69,0 -1.3,-0.13 -1.82,-0.4 -0.52,-0.27 -0.93,-0.64 -1.21,-1.12 -0.28,-0.48 -0.43,-1.02 -0.43,-1.63 0,-0.76 0.15,-1.41 0.45,-1.94 0.3,-0.53 0.71,-0.93 1.22,-1.19 0.51,-0.26 1.07,-0.39 1.69,-0.39 0.4,0 0.77,0.04 1.12,0.13 0.35,0.09 0.66,0.2 0.92,0.35l-0.42 1.2c-0.17,-0.09 -0.41,-0.18 -0.71,-0.26 -0.3,-0.08 -0.55,-0.12 -0.75,-0.12 -0.71,0 -1.25,0.18 -1.63,0.53 -0.38,0.36 -0.56,0.88 -0.56,1.58 0,0.4 0.09,0.75 0.28,1.05 0.18,0.3 0.44,0.53 0.77,0.69 0.33,0.16 0.7,0.24 1.12,0.24 0.4,0 0.7,-0.06 0.9,-0.17l0 -0.79 -1.13 0 0 -1.24 2.43 0 0 2.76z"/>
   <path id="_21" class="fil1" d="M17.95 21.87l0 3.88 -1.24 0 0 -0.48c-0.37,0.39 -0.8,0.59 -1.3,0.59 -0.57,0 -1.04,-0.17 -1.4,-0.51 -0.36,-0.34 -0.54,-0.85 -0.54,-1.53 0,-0.43 0.09,-0.8 0.26,-1.12 0.17,-0.32 0.41,-0.57 0.7,-0.75 0.29,-0.18 0.6,-0.27 0.93,-0.27 0.34,0 0.62,0.05 0.82,0.16 0.2,0.1 0.38,0.25 0.53,0.44l0.08 -0.4 1.15 0zm-2.18 2.97c0.43,0 0.75,-0.2 0.94,-0.59l0 -0.95c-0.07,-0.19 -0.19,-0.34 -0.37,-0.45 -0.17,-0.11 -0.38,-0.17 -0.62,-0.17 -0.27,0 -0.5,0.1 -0.7,0.3 -0.19,0.2 -0.29,0.46 -0.29,0.76 0,0.2 0.05,0.39 0.14,0.55 0.09,0.17 0.22,0.3 0.38,0.39 0.16,0.09 0.33,0.14 0.51,0.14z"/>
   <path id="_22" class="fil1" d="M20.31 25.83c-0.32,0 -0.62,-0.06 -0.9,-0.17 -0.28,-0.11 -0.51,-0.27 -0.69,-0.47l0.51 -0.68c0.34,0.32 0.67,0.48 0.97,0.48 0.16,0 0.29,-0.03 0.39,-0.08 0.1,-0.05 0.15,-0.13 0.15,-0.23 0,-0.12 -0.06,-0.21 -0.17,-0.27 -0.11,-0.06 -0.24,-0.11 -0.38,-0.16 -0.14,-0.04 -0.23,-0.07 -0.28,-0.08 -0.34,-0.11 -0.59,-0.26 -0.75,-0.47 -0.17,-0.21 -0.25,-0.45 -0.25,-0.72 0,-0.21 0.05,-0.41 0.16,-0.61 0.11,-0.2 0.28,-0.36 0.51,-0.49 0.23,-0.13 0.52,-0.19 0.86,-0.19 0.32,0 0.59,0.03 0.82,0.1 0.22,0.06 0.44,0.17 0.65,0.32l-0.47 0.73c-0.12,-0.09 -0.25,-0.17 -0.39,-0.24 -0.15,-0.06 -0.28,-0.09 -0.39,-0.09 -0.14,0 -0.26,0.03 -0.35,0.09 -0.09,0.06 -0.13,0.13 -0.13,0.21 -0.01,0.12 0.05,0.22 0.16,0.28 0.11,0.06 0.28,0.13 0.51,0.19 0.04,0.01 0.07,0.02 0.11,0.04 0.04,0.01 0.08,0.02 0.12,0.04 0.61,0.2 0.91,0.57 0.91,1.1 0,0.25 -0.06,0.48 -0.19,0.68 -0.12,0.21 -0.31,0.37 -0.56,0.5 -0.25,0.13 -0.56,0.19 -0.92,0.19z"/>
   <path id="_23" class="fil1" d="M29.45 25.75l-1.38 -2.08 -0.86 0 0 2.08 -1.29 0 0 -6.53 1.98 0c0.81,0 1.44,0.2 1.89,0.59 0.45,0.39 0.67,0.93 0.67,1.61 0,0.4 -0.08,0.78 -0.25,1.13 -0.17,0.35 -0.43,0.63 -0.78,0.83l1.52 2.37 -1.5 0zm-2.24 -3.32l0.91 0c0.35,0 0.6,-0.1 0.76,-0.31 0.16,-0.2 0.24,-0.42 0.24,-0.66 0,-0.24 -0.07,-0.46 -0.2,-0.68 -0.14,-0.22 -0.4,-0.32 -0.79,-0.32l-0.92 0 0 1.97z"/>
   <path id="_24" class="fil1" d="M33.39 24.8c0.25,0 0.51,-0.09 0.77,-0.26l0.55 0.92c-0.21,0.12 -0.44,0.21 -0.67,0.28 -0.24,0.07 -0.46,0.11 -0.67,0.11 -0.46,0 -0.86,-0.09 -1.19,-0.26 -0.33,-0.17 -0.59,-0.42 -0.76,-0.74 -0.17,-0.32 -0.26,-0.68 -0.26,-1.09 0,-0.38 0.1,-0.73 0.3,-1.05 0.2,-0.32 0.47,-0.57 0.81,-0.76 0.34,-0.19 0.72,-0.28 1.13,-0.28 0.56,0 1.01,0.16 1.37,0.49 0.36,0.33 0.59,0.79 0.7,1.39l-2.84 0.91c0.19,0.22 0.45,0.33 0.77,0.33zm-0.1 -2.15c-0.28,0 -0.5,0.09 -0.67,0.28 -0.17,0.19 -0.25,0.44 -0.25,0.76l0 0.08 1.7 -0.58c-0.12,-0.37 -0.39,-0.55 -0.79,-0.55z"/>
   <path id="_25" class="fil1" d="M37.45 25.83c-0.32,0 -0.62,-0.06 -0.9,-0.17 -0.28,-0.11 -0.51,-0.27 -0.69,-0.47l0.51 -0.68c0.34,0.32 0.67,0.48 0.97,0.48 0.16,0 0.29,-0.03 0.39,-0.08 0.1,-0.05 0.15,-0.13 0.15,-0.23 0,-0.12 -0.06,-0.21 -0.17,-0.27 -0.11,-0.06 -0.24,-0.11 -0.38,-0.16 -0.14,-0.04 -0.23,-0.07 -0.28,-0.08 -0.34,-0.11 -0.59,-0.26 -0.75,-0.47 -0.17,-0.21 -0.25,-0.45 -0.25,-0.72 0,-0.21 0.05,-0.41 0.16,-0.61 0.11,-0.2 0.28,-0.36 0.51,-0.49 0.23,-0.13 0.52,-0.19 0.86,-0.19 0.32,0 0.59,0.03 0.82,0.1 0.22,0.06 0.44,0.17 0.65,0.32l-0.47 0.73c-0.12,-0.09 -0.25,-0.17 -0.39,-0.24 -0.15,-0.06 -0.28,-0.09 -0.39,-0.09 -0.14,0 -0.26,0.03 -0.35,0.09 -0.09,0.06 -0.13,0.13 -0.13,0.21 -0.01,0.12 0.05,0.22 0.16,0.28 0.11,0.06 0.28,0.13 0.51,0.19 0.04,0.01 0.07,0.02 0.11,0.04 0.04,0.01 0.08,0.02 0.12,0.04 0.61,0.2 0.91,0.57 0.91,1.1 0,0.25 -0.06,0.48 -0.19,0.68 -0.12,0.21 -0.31,0.37 -0.56,0.5 -0.25,0.13 -0.56,0.19 -0.92,0.19z"/>
   <path id="_26" class="fil1" d="M41.22 21.87l0 3.88 -1.24 0 0 -3.88 1.24 0zm-1.27 -1.38c0,-0.18 0.07,-0.33 0.21,-0.45 0.14,-0.12 0.3,-0.18 0.47,-0.18 0.17,0 0.33,0.06 0.46,0.18 0.14,0.12 0.2,0.27 0.2,0.45 0,0.18 -0.07,0.33 -0.2,0.44 -0.14,0.12 -0.29,0.18 -0.46,0.18 -0.18,0 -0.34,-0.06 -0.47,-0.18 -0.14,-0.12 -0.21,-0.27 -0.21,-0.44z"/>
   <path id="_27" class="fil1" d="M46.59 18.75l0 7 -1.24 0 0 -0.41c-0.45,0.34 -0.93,0.51 -1.44,0.51 -0.36,0 -0.68,-0.09 -0.97,-0.26 -0.28,-0.17 -0.51,-0.42 -0.67,-0.74 -0.16,-0.32 -0.24,-0.7 -0.24,-1.13 0,-0.43 0.09,-0.79 0.26,-1.1 0.17,-0.31 0.42,-0.55 0.72,-0.71 0.31,-0.16 0.66,-0.24 1.06,-0.24 0.25,0 0.49,0.04 0.72,0.12 0.23,0.08 0.41,0.2 0.57,0.35l0 -3.4 1.23 0zm-2.27 6.06c0.25,0 0.46,-0.05 0.62,-0.15 0.17,-0.1 0.3,-0.24 0.41,-0.44l0 -0.95c-0.07,-0.19 -0.2,-0.34 -0.38,-0.45 -0.18,-0.11 -0.4,-0.17 -0.65,-0.17 -0.28,0 -0.52,0.1 -0.72,0.3 -0.2,0.2 -0.31,0.46 -0.31,0.76 0,0.2 0.05,0.39 0.14,0.55 0.09,0.17 0.22,0.3 0.38,0.39 0.16,0.09 0.33,0.14 0.51,0.14z"/>
   <path id="_28" class="fil1" d="M49.62 24.8c0.25,0 0.51,-0.09 0.77,-0.26l0.55 0.92c-0.21,0.12 -0.44,0.21 -0.67,0.28 -0.24,0.07 -0.46,0.11 -0.67,0.11 -0.46,0 -0.86,-0.09 -1.19,-0.26 -0.33,-0.17 -0.59,-0.42 -0.76,-0.74 -0.17,-0.32 -0.26,-0.68 -0.26,-1.09 0,-0.38 0.1,-0.73 0.3,-1.05 0.2,-0.32 0.47,-0.57 0.81,-0.76 0.34,-0.19 0.72,-0.28 1.13,-0.28 0.56,0 1.01,0.16 1.37,0.49 0.36,0.33 0.59,0.79 0.7,1.39l-2.84 0.91c0.19,0.22 0.45,0.33 0.77,0.33zm-0.1 -2.15c-0.28,0 -0.5,0.09 -0.67,0.28 -0.17,0.19 -0.25,0.44 -0.25,0.76l0 0.08 1.7 -0.58c-0.12,-0.37 -0.39,-0.55 -0.79,-0.55z"/>
   <path id="_29" class="fil1" d="M55.12 21.68c0.37,0 0.67,0.11 0.92,0.33 0.25,0.22 0.37,0.5 0.38,0.83l0 2.9 -1.24 0 0 -2.44c-0.02,-0.38 -0.21,-0.57 -0.57,-0.57 -0.28,0 -0.51,0.13 -0.68,0.4 -0.17,0.27 -0.26,0.61 -0.26,1.03l0 1.58 -1.24 0 0 -3.88 1.13 0 0.09 0.62c0.14,-0.25 0.34,-0.45 0.59,-0.59 0.25,-0.14 0.55,-0.21 0.89,-0.21z"/>
   <path id="_30" class="fil1" d="M60.81 25.4c-0.17,0.14 -0.39,0.25 -0.64,0.33 -0.26,0.08 -0.51,0.12 -0.76,0.12 -0.67,0 -1.21,-0.18 -1.6,-0.55 -0.39,-0.36 -0.59,-0.87 -0.59,-1.5 0,-0.41 0.1,-0.78 0.29,-1.09 0.19,-0.31 0.45,-0.55 0.76,-0.71 0.31,-0.16 0.65,-0.24 1.01,-0.24 0.64,0 1.17,0.17 1.57,0.51l-0.6 0.8c-0.25,-0.2 -0.54,-0.3 -0.85,-0.3 -0.26,0 -0.48,0.1 -0.66,0.29 -0.18,0.19 -0.27,0.44 -0.27,0.74 0,0.3 0.1,0.54 0.29,0.74 0.2,0.2 0.45,0.3 0.76,0.3 0.27,0 0.5,-0.07 0.67,-0.22l0.62 0.78z"/>
   <path id="_31" class="fil1" d="M62.83 21.87l0 3.88 -1.24 0 0 -3.88 1.24 0zm-1.27 -1.38c0,-0.18 0.07,-0.33 0.21,-0.45 0.14,-0.12 0.3,-0.18 0.47,-0.18 0.17,0 0.33,0.06 0.46,0.18 0.14,0.12 0.2,0.27 0.2,0.45 0,0.18 -0.07,0.33 -0.2,0.44 -0.14,0.12 -0.29,0.18 -0.46,0.18 -0.18,0 -0.34,-0.06 -0.47,-0.18 -0.14,-0.12 -0.21,-0.27 -0.21,-0.44z"/>
   <path id="_32" class="fil1" d="M68.11 21.87l0 3.88 -1.24 0 0 -0.48c-0.37,0.39 -0.8,0.59 -1.3,0.59 -0.57,0 -1.04,-0.17 -1.4,-0.51 -0.36,-0.34 -0.54,-0.85 -0.54,-1.53 0,-0.43 0.09,-0.8 0.26,-1.12 0.17,-0.32 0.41,-0.57 0.7,-0.75 0.29,-0.18 0.6,-0.27 0.93,-0.27 0.34,0 0.62,0.05 0.82,0.16 0.2,0.1 0.38,0.25 0.53,0.44l0.08 -0.4 1.15 0zm-2.18 2.97c0.43,0 0.75,-0.2 0.94,-0.59l0 -0.95c-0.07,-0.19 -0.19,-0.34 -0.37,-0.45 -0.17,-0.11 -0.38,-0.17 -0.62,-0.17 -0.27,0 -0.5,0.1 -0.7,0.3 -0.19,0.2 -0.29,0.46 -0.29,0.76 0,0.2 0.05,0.39 0.14,0.55 0.09,0.17 0.22,0.3 0.38,0.39 0.16,0.09 0.33,0.14 0.51,0.14z"/>
   <polygon id="_33" class="fil1" points="70.45,18.75 70.45,25.75 69.21,25.75 69.21,18.75 "/>
   <rect class="fil2" x="98.34" y="1.01" width="0.9" height="32.52"/>
  </g>
 </g>
</svg>
