<?xml version="1.0" encoding="UTF-8"?>
<!DOCTYPE svg PUBLIC "-//W3C//DTD SVG 1.1//EN" "http://www.w3.org/Graphics/SVG/1.1/DTD/svg11.dtd">
<!-- Creator: CorelDRAW 2021 (64-Bit) -->
<svg xmlns="http://www.w3.org/2000/svg" xml:space="preserve" width="29.0946mm" height="8.2389mm" version="1.1" style="shape-rendering:geometricPrecision; text-rendering:geometricPrecision; image-rendering:optimizeQuality; fill-rule:evenodd; clip-rule:evenodd"
viewBox="0 0 121.98 34.54"
 xmlns:xlink="http://www.w3.org/1999/xlink"
 xmlns:xodm="http://www.corel.com/coreldraw/odm/2003">
 <defs>
  <style type="text/css">
   <![CDATA[
    .fil2 {fill:#FEFEFE}
    .fil1 {fill:#FEFEFE;fill-rule:nonzero}
    .fil0 {fill:#4C7BBC;fill-rule:nonzero}
   ]]>
  </style>
     <mask id="id0">
  <linearGradient id="id1" gradientUnits="userSpaceOnUse" x1="100.01" y1="112.6" x2="74.79" y2="2.39">
   <stop offset="0" style="stop-opacity:1; stop-color:white"/>
   <stop offset="1" style="stop-opacity:0; stop-color:white"/>
  </linearGradient>
      <rect style="fill:url(#id1)" x="0.02" y="-0.13" width="122.09" height="34.79"/>
     </mask>
 </defs>
 <g id="Capa_x0020_1">
  <metadata id="CorelCorpID_0Corel-Layer"/>
  <g id="_2287808267232">
   <g>
    <path class="fil0" d="M114.74 34.54l-107.5 0c-4,0 -7.24,-3.24 -7.24,-7.24l0 -20.06c0,-4 3.24,-7.25 7.24,-7.25l107.5 0c4,0 7.24,3.24 7.24,7.25l0 20.06c0,4 -3.24,7.24 -7.24,7.24z"/>
    <path class="fil1" style="mask:url(#id0)" d="M114.74 34.54l-107.5 0c-3.51,0 -6.43,-2.5 -7.1,-5.81 7.5,1.17 9.04,6.11 20.66,3.74 18.63,-3.8 34.9,-23.58 43.59,-22.67 18.24,1.9 31.17,13.95 41.58,-9.8l8.77 0c4,0 7.24,3.24 7.24,7.25l0 20.06c0,4 -3.24,7.24 -7.24,7.24z"/>
   </g>
   <path class="fil2" d="M104.26 12.2c0.19,0.21 0.15,0.14 0.15,0.5l0 3.76c-0.04,0.1 -0.14,0.14 -0.22,0.28 -0.07,0.11 -0.08,0.22 -0.13,0.33l0 0.17c0.08,0.22 0.03,0.28 0.19,0.46 0.21,0.24 0.17,0.1 0.16,0.54 -0,1.22 0.13,2.26 0.87,3.23 0.59,0.77 1.4,1.44 2.4,1.72 0.43,0.12 0.61,0.08 0.76,0.26 0.05,0.06 0.11,0.11 0.19,0.16 0.35,0.2 0.8,0.09 1,-0.14 0.16,-0.18 0.07,-0.11 0.48,-0.2 0.17,-0.04 0.38,-0.1 0.54,-0.16 0.34,-0.13 0.64,-0.28 0.91,-0.46 0.15,-0.1 0.25,-0.18 0.39,-0.28 0.55,-0.41 1.17,-1.26 1.44,-2 0.31,-0.86 0.29,-1.49 0.29,-2.45 0.03,-0.11 0.38,-0.22 0.39,-0.73 0,-0.51 -0.31,-0.55 -0.39,-0.76 0,-0.42 0.1,-0.77 0.31,-1.01 0.56,-0.64 1.23,-0.48 2.14,-0.48 0.44,0 0.88,-0 1.32,0 0.12,0.25 0.48,0.49 0.9,0.39 0.21,-0.05 0.31,-0.13 0.42,-0.25 0.16,-0.16 0.13,-0.24 0.22,-0.45l0 -2.7c-0.09,-0.14 -0.15,-0.51 -0.61,-0.63 -0.51,-0.13 -0.73,0.18 -0.87,0.29 -0.3,0.23 -2.85,-0.29 -4.39,0.45 -0.32,0.15 -0.89,0.48 -1.12,0.71 -0.31,0.31 -0.58,0.53 -0.85,0.96 -0.34,0.54 -0.59,1.09 -0.69,1.75 -0.06,0.37 -0.04,0.98 -0.14,1.06 -0.43,0.38 -0.42,0.91 -0.07,1.24 0.18,0.18 0.13,0.11 0.13,0.44 -0,0.38 0.04,0.77 -0.12,1.09 -0.13,0.27 -0.33,0.5 -0.57,0.62 -0.53,-0.43 -0.82,-0.34 -1.28,-0 -0.26,-0.14 -0.51,-0.4 -0.62,-0.74 -0.09,-0.29 -0.08,-0.92 -0.06,-1.26 0.01,-0.01 0.66,-0.43 0.34,-1.09 -0.15,-0.32 -0.33,-0.26 -0.35,-0.45l0 -3.96c0,-0.01 0.72,-0.5 0.31,-1.17 -0.26,-0.43 -0.68,-0.41 -1.28,-0.41 -0.57,0 -1.15,-0 -1.72,-0 -0.83,0 -1.25,0.82 -0.76,1.37zm2.46 3.74c0.31,-0.03 0.28,-0.18 0.28,-0.5l0 -1.52c0,-0.27 0,-0.48 -0.3,-0.47 -0.24,0.07 -0.21,0.25 -0.21,0.53l0 1.46c-0,0.27 -0.03,0.44 0.23,0.5zm-1.31 0.92c-0.31,0 -0.74,-0.07 -0.83,0.22 -0.14,0.49 0.49,0.42 0.64,0.42 0.16,0 2.01,0.05 2.13,-0.03 0.21,0.02 0.35,-0.24 0.23,-0.45 -0.11,-0.19 -0.35,-0.16 -0.61,-0.16 -0.52,0 -1.04,0 -1.56,-0zm1.92 -5.49c-0.08,-0.06 -1.94,-0.03 -2.29,-0.03 -0.25,-0 -0.46,0.05 -0.47,0.31 -0.01,0.27 0.19,0.34 0.44,0.34 0.19,0 2.23,0.04 2.33,-0.03 0.37,0.03 0.37,-0.6 -0.01,-0.59zm5.94 6.1c0.2,0.02 0.33,-0.22 0.25,-0.42 -0.09,-0.21 -0.35,-0.19 -0.61,-0.19 -0.53,0 -1.06,0 -1.58,0 -0.35,0 -0.75,-0.07 -0.83,0.23 -0.11,0.43 0.31,0.42 0.63,0.42l1.6 0c0.15,0 0.43,0.03 0.53,-0.04zm-3.91 4.89c-0,-0.42 -0,-0.84 -0,-1.26 0,-0.35 0.11,-0.95 -0.32,-0.95 -0.43,0 -0.32,0.6 -0.32,0.95 0,0.42 0,0.84 -0,1.26 0,0.35 -0.08,0.84 0.32,0.85 0.41,0 0.32,-0.49 0.32,-0.84zm9.08 -10.28c0.02,-0.4 -0.61,-0.37 -0.59,-0.01 -0.1,0.13 -0.03,0.54 -0.03,0.72 0,0.26 0,0.52 0,0.79 -0,0.26 0,0.53 0,0.79 -0,0.25 0.05,0.47 0.31,0.48 0.27,0.01 0.34,-0.2 0.34,-0.45 0,-0.35 0.04,-2.24 -0.03,-2.32zm-3.7 0.57c0.08,0.23 0.18,0.22 0.44,0.22l1.34 -0c0.28,0 0.44,0.04 0.53,-0.18 0.05,-0.45 -0.44,-0.33 -1.11,-0.33 -0.24,0 -0.49,0 -0.73,-0 -0.3,-0 -0.44,-0.02 -0.47,0.29zm-6.79 8.16c0.08,-0.17 0.05,-0.27 -0.07,-0.36 -0.09,-0.07 -0.18,-0.13 -0.26,-0.21 -0.99,-0.95 -0.31,-1.83 -0.89,-1.91 -0.18,0.03 -0.24,0.12 -0.25,0.32 -0.03,0.78 0.28,1.47 0.81,1.98 0.27,0.26 0.43,0.4 0.66,0.18z"/>
   <polygon class="fil1" points="8.69,8.21 8.69,14.79 7.39,14.79 7.39,8.21 "/>
   <path id="_1" class="fil1" d="M12.9 10.7c0.37,0 0.68,0.11 0.93,0.33 0.25,0.22 0.37,0.5 0.38,0.84l0 2.92 -1.25 0 0 -2.46c-0.02,-0.38 -0.21,-0.57 -0.57,-0.57 -0.29,0 -0.52,0.13 -0.69,0.4 -0.17,0.27 -0.26,0.61 -0.26,1.04l0 1.59 -1.25 0 0 -3.91 1.14 0 0.09 0.63c0.14,-0.26 0.34,-0.46 0.59,-0.6 0.25,-0.14 0.55,-0.21 0.9,-0.21z"/>
   <polygon id="_2" class="fil1" points="17.11,9.17 17.11,10.87 18.06,10.87 18.06,11.84 17.11,11.84 17.11,14.79 15.86,14.79 15.86,11.84 15.25,11.84 15.25,10.87 15.86,10.87 15.86,9.17 "/>
   <path id="_3" class="fil1" d="M20.96 13.84c0.25,0 0.51,-0.09 0.78,-0.26l0.55 0.93c-0.21,0.12 -0.44,0.21 -0.68,0.29 -0.24,0.07 -0.46,0.11 -0.68,0.11 -0.46,0 -0.87,-0.09 -1.2,-0.26 -0.34,-0.18 -0.59,-0.42 -0.76,-0.74 -0.17,-0.32 -0.26,-0.68 -0.26,-1.1 0,-0.38 0.1,-0.73 0.3,-1.05 0.2,-0.32 0.47,-0.58 0.82,-0.76 0.35,-0.19 0.72,-0.28 1.14,-0.28 0.56,0 1.02,0.16 1.38,0.49 0.36,0.33 0.59,0.8 0.7,1.4l-2.86 0.91c0.19,0.22 0.45,0.33 0.78,0.33zm-0.1 -2.16c-0.28,0 -0.5,0.1 -0.67,0.29 -0.17,0.19 -0.25,0.45 -0.25,0.77l0 0.08 1.72 -0.58c-0.12,-0.37 -0.39,-0.55 -0.8,-0.55z"/>
   <path id="_4" class="fil1" d="M25.18 11.78c0.11,-0.21 0.25,-0.4 0.44,-0.56 0.19,-0.17 0.38,-0.3 0.58,-0.39 0.2,-0.09 0.35,-0.14 0.46,-0.14l-0.06 1.25c-0.04,-0.01 -0.09,-0.01 -0.15,-0.01 -0.25,0 -0.47,0.07 -0.66,0.2 -0.19,0.13 -0.34,0.3 -0.44,0.51 -0.1,0.21 -0.15,0.42 -0.15,0.63l0 1.53 -1.24 0 0 -3.91 1.13 0 0.1 0.89z"/>
   <path id="_5" class="fil1" d="M30.32 10.69c0.36,0 0.69,0.09 0.97,0.26 0.29,0.17 0.51,0.42 0.67,0.74 0.16,0.32 0.25,0.7 0.25,1.14 0,0.43 -0.09,0.8 -0.27,1.11 -0.18,0.31 -0.43,0.55 -0.76,0.72 -0.32,0.16 -0.7,0.25 -1.11,0.25 -0.23,0 -0.45,-0.04 -0.67,-0.12 -0.22,-0.08 -0.4,-0.2 -0.54,-0.34l0 2.24 -1.24 0 0 -5.87 1.07 0 0.11 0.46c0.48,-0.38 0.98,-0.57 1.52,-0.57zm-0.5 3.23c0.31,0 0.58,-0.1 0.8,-0.3 0.22,-0.2 0.33,-0.46 0.33,-0.77 0,-0.32 -0.1,-0.59 -0.3,-0.79 -0.2,-0.21 -0.45,-0.31 -0.74,-0.31 -0.24,0 -0.45,0.05 -0.62,0.15 -0.17,0.1 -0.31,0.25 -0.42,0.44l0 0.96c0.07,0.19 0.18,0.34 0.35,0.46 0.17,0.11 0.37,0.17 0.59,0.17z"/>
   <path id="_6" class="fil1" d="M34.43 11.78c0.11,-0.21 0.25,-0.4 0.44,-0.56 0.19,-0.17 0.38,-0.3 0.58,-0.39 0.2,-0.09 0.35,-0.14 0.46,-0.14l-0.06 1.25c-0.04,-0.01 -0.09,-0.01 -0.15,-0.01 -0.25,0 -0.47,0.07 -0.66,0.2 -0.19,0.13 -0.34,0.3 -0.44,0.51 -0.1,0.21 -0.15,0.42 -0.15,0.63l0 1.53 -1.24 0 0 -3.91 1.13 0 0.1 0.89z"/>
   <path id="_7" class="fil1" d="M38.64 13.84c0.25,0 0.51,-0.09 0.78,-0.26l0.55 0.93c-0.21,0.12 -0.44,0.21 -0.68,0.29 -0.24,0.07 -0.46,0.11 -0.68,0.11 -0.46,0 -0.87,-0.09 -1.2,-0.26 -0.34,-0.18 -0.59,-0.42 -0.76,-0.74 -0.17,-0.32 -0.26,-0.68 -0.26,-1.1 0,-0.38 0.1,-0.73 0.3,-1.05 0.2,-0.32 0.47,-0.58 0.82,-0.76 0.35,-0.19 0.72,-0.28 1.14,-0.28 0.56,0 1.02,0.16 1.38,0.49 0.36,0.33 0.59,0.8 0.7,1.4l-2.86 0.91c0.19,0.22 0.45,0.33 0.78,0.33zm-0.1 -2.16c-0.28,0 -0.5,0.1 -0.67,0.29 -0.17,0.19 -0.25,0.45 -0.25,0.77l0 0.08 1.72 -0.58c-0.12,-0.37 -0.39,-0.55 -0.8,-0.55z"/>
   <polygon id="_8" class="fil1" points="43.25,9.17 43.25,10.87 44.2,10.87 44.2,11.84 43.25,11.84 43.25,14.79 42,14.79 42,11.84 41.39,11.84 41.39,10.87 42,10.87 42,9.17 "/>
   <path id="_9" class="fil1" d="M49.36 10.89l0 3.91 -1.25 0 0 -0.48c-0.38,0.39 -0.81,0.59 -1.31,0.59 -0.58,0 -1.05,-0.17 -1.41,-0.52 -0.36,-0.35 -0.54,-0.86 -0.54,-1.54 0,-0.43 0.09,-0.81 0.26,-1.13 0.18,-0.32 0.41,-0.58 0.7,-0.76 0.29,-0.18 0.6,-0.27 0.94,-0.27 0.35,0 0.62,0.05 0.82,0.16 0.2,0.1 0.38,0.25 0.54,0.44l0.08 -0.4 1.16 0zm-2.2 2.99c0.44,0 0.75,-0.2 0.95,-0.59l0 -0.96c-0.07,-0.19 -0.19,-0.34 -0.37,-0.46 -0.18,-0.11 -0.38,-0.17 -0.62,-0.17 -0.27,0 -0.51,0.1 -0.7,0.3 -0.19,0.2 -0.29,0.46 -0.29,0.77 0,0.2 0.05,0.39 0.14,0.56 0.1,0.17 0.22,0.3 0.38,0.4 0.16,0.1 0.33,0.14 0.51,0.14z"/>
   <path id="_10" class="fil1" d="M53.96 14.44c-0.17,0.14 -0.39,0.25 -0.65,0.33 -0.26,0.08 -0.51,0.13 -0.76,0.13 -0.68,0 -1.22,-0.18 -1.61,-0.55 -0.4,-0.37 -0.59,-0.87 -0.59,-1.52 0,-0.42 0.1,-0.78 0.29,-1.09 0.19,-0.31 0.45,-0.55 0.76,-0.72 0.32,-0.16 0.66,-0.25 1.02,-0.25 0.65,0 1.18,0.17 1.58,0.52l-0.61 0.8c-0.26,-0.2 -0.54,-0.3 -0.86,-0.3 -0.26,0 -0.48,0.1 -0.67,0.3 -0.18,0.2 -0.27,0.44 -0.27,0.74 0,0.3 0.1,0.55 0.3,0.75 0.2,0.2 0.45,0.3 0.77,0.3 0.27,0 0.5,-0.07 0.68,-0.22l0.63 0.79z"/>
   <path id="_11" class="fil1" d="M56.18 10.89l0 3.91 -1.25 0 0 -3.91 1.25 0zm-1.28 -1.39c0,-0.18 0.07,-0.33 0.21,-0.45 0.14,-0.12 0.3,-0.18 0.48,-0.18 0.17,0 0.33,0.06 0.46,0.18 0.14,0.12 0.21,0.27 0.21,0.45 0,0.18 -0.07,0.33 -0.21,0.45 -0.14,0.12 -0.29,0.18 -0.46,0.18 -0.18,0 -0.34,-0.06 -0.48,-0.18 -0.14,-0.12 -0.21,-0.27 -0.21,-0.45z"/>
   <path id="_12" class="fil1" d="M57.16 12.79c0,-0.4 0.09,-0.76 0.28,-1.07 0.19,-0.32 0.45,-0.56 0.8,-0.75 0.34,-0.18 0.73,-0.27 1.17,-0.27 0.44,0 0.82,0.09 1.15,0.27 0.33,0.18 0.59,0.43 0.76,0.75 0.18,0.32 0.27,0.67 0.27,1.07 0,0.4 -0.09,0.76 -0.27,1.08 -0.18,0.32 -0.43,0.57 -0.76,0.76 -0.33,0.18 -0.72,0.27 -1.17,0.27 -0.43,0 -0.82,-0.09 -1.16,-0.25 -0.34,-0.17 -0.6,-0.41 -0.79,-0.73 -0.19,-0.32 -0.28,-0.69 -0.28,-1.13zm1.26 0.01c0,0.31 0.09,0.57 0.27,0.77 0.18,0.21 0.41,0.31 0.68,0.31 0.29,0 0.52,-0.1 0.69,-0.3 0.18,-0.2 0.26,-0.46 0.26,-0.78 0,-0.32 -0.09,-0.58 -0.26,-0.78 -0.18,-0.2 -0.41,-0.3 -0.69,-0.3 -0.27,0 -0.5,0.1 -0.68,0.31 -0.18,0.21 -0.27,0.46 -0.27,0.77zm1.39 -2.56l-0.76 0 0.7 -1.21 1.39 0 -1.32 1.21z"/>
   <path id="_13" class="fil1" d="M65.29 10.7c0.37,0 0.68,0.11 0.93,0.33 0.25,0.22 0.37,0.5 0.38,0.84l0 2.92 -1.25 0 0 -2.46c-0.02,-0.38 -0.21,-0.57 -0.57,-0.57 -0.29,0 -0.52,0.13 -0.69,0.4 -0.17,0.27 -0.26,0.61 -0.26,1.04l0 1.59 -1.25 0 0 -3.91 1.14 0 0.09 0.63c0.14,-0.26 0.34,-0.46 0.59,-0.6 0.25,-0.14 0.55,-0.21 0.9,-0.21z"/>
   <path id="_14" class="fil1" d="M75.08 7.74l0 7.05 -1.25 0 0 -0.41c-0.45,0.35 -0.94,0.52 -1.45,0.52 -0.36,0 -0.69,-0.09 -0.97,-0.26 -0.29,-0.17 -0.51,-0.42 -0.67,-0.74 -0.16,-0.32 -0.25,-0.7 -0.25,-1.14 0,-0.43 0.09,-0.8 0.26,-1.11 0.18,-0.31 0.42,-0.55 0.73,-0.71 0.31,-0.16 0.66,-0.25 1.06,-0.25 0.26,0 0.5,0.04 0.72,0.12 0.23,0.08 0.42,0.2 0.57,0.35l0 -3.42 1.24 0zm-2.29 6.11c0.25,0 0.46,-0.05 0.63,-0.15 0.17,-0.1 0.3,-0.25 0.41,-0.44l0 -0.96c-0.07,-0.19 -0.2,-0.34 -0.38,-0.46 -0.18,-0.11 -0.4,-0.17 -0.65,-0.17 -0.28,0 -0.52,0.1 -0.73,0.3 -0.21,0.2 -0.31,0.46 -0.31,0.77 0,0.2 0.05,0.39 0.14,0.56 0.1,0.17 0.22,0.3 0.38,0.4 0.16,0.1 0.33,0.14 0.51,0.14z"/>
   <path id="_15" class="fil1" d="M78.31 13.84c0.25,0 0.51,-0.09 0.78,-0.26l0.55 0.93c-0.21,0.12 -0.44,0.21 -0.68,0.29 -0.24,0.07 -0.46,0.11 -0.68,0.11 -0.46,0 -0.87,-0.09 -1.2,-0.26 -0.34,-0.18 -0.59,-0.42 -0.76,-0.74 -0.17,-0.32 -0.26,-0.68 -0.26,-1.1 0,-0.38 0.1,-0.73 0.3,-1.05 0.2,-0.32 0.47,-0.58 0.82,-0.76 0.35,-0.19 0.72,-0.28 1.14,-0.28 0.56,0 1.02,0.16 1.38,0.49 0.36,0.33 0.59,0.8 0.7,1.4l-2.86 0.91c0.19,0.22 0.45,0.33 0.78,0.33zm-0.1 -2.16c-0.28,0 -0.5,0.1 -0.67,0.29 -0.17,0.19 -0.25,0.45 -0.25,0.77l0 0.08 1.72 -0.58c-0.12,-0.37 -0.39,-0.55 -0.8,-0.55z"/>
   <path id="_16" class="fil1" d="M9.89 20.82c0.36,0 0.69,0.09 0.97,0.26 0.29,0.17 0.51,0.42 0.67,0.74 0.16,0.32 0.25,0.7 0.25,1.14 0,0.43 -0.09,0.8 -0.27,1.11 -0.18,0.31 -0.43,0.55 -0.76,0.72 -0.32,0.16 -0.7,0.25 -1.11,0.25 -0.23,0 -0.45,-0.04 -0.67,-0.12 -0.22,-0.08 -0.4,-0.2 -0.54,-0.34l0 2.24 -1.24 0 0 -5.87 1.07 0 0.11 0.46c0.48,-0.38 0.98,-0.57 1.52,-0.57zm-0.5 3.23c0.31,0 0.58,-0.1 0.8,-0.3 0.22,-0.2 0.33,-0.46 0.33,-0.77 0,-0.32 -0.1,-0.59 -0.3,-0.79 -0.2,-0.21 -0.45,-0.31 -0.74,-0.31 -0.24,0 -0.45,0.05 -0.62,0.15 -0.17,0.1 -0.31,0.25 -0.42,0.44l0 0.96c0.07,0.19 0.18,0.34 0.35,0.46 0.17,0.11 0.37,0.17 0.59,0.17z"/>
   <polygon id="_17" class="fil1" points="14.02,17.87 14.02,24.92 12.77,24.92 12.77,17.87 "/>
   <path id="_18" class="fil1" d="M19.51 21.02l0 3.91 -1.25 0 0 -0.48c-0.38,0.39 -0.81,0.59 -1.31,0.59 -0.58,0 -1.05,-0.17 -1.41,-0.52 -0.36,-0.35 -0.54,-0.86 -0.54,-1.54 0,-0.43 0.09,-0.81 0.26,-1.13 0.18,-0.32 0.41,-0.58 0.7,-0.76 0.29,-0.18 0.6,-0.27 0.94,-0.27 0.35,0 0.62,0.05 0.82,0.16 0.2,0.1 0.38,0.25 0.54,0.44l0.08 -0.4 1.16 0zm-2.2 2.99c0.44,0 0.75,-0.2 0.95,-0.59l0 -0.96c-0.07,-0.19 -0.19,-0.34 -0.37,-0.46 -0.18,-0.11 -0.38,-0.17 -0.62,-0.17 -0.27,0 -0.51,0.1 -0.7,0.3 -0.19,0.2 -0.29,0.46 -0.29,0.77 0,0.2 0.05,0.39 0.14,0.56 0.1,0.17 0.22,0.3 0.38,0.4 0.16,0.1 0.33,0.14 0.51,0.14z"/>
   <path id="_19" class="fil1" d="M23.51 20.83c0.37,0 0.68,0.11 0.93,0.33 0.25,0.22 0.37,0.5 0.38,0.84l0 2.92 -1.25 0 0 -2.46c-0.02,-0.38 -0.21,-0.57 -0.57,-0.57 -0.29,0 -0.52,0.13 -0.69,0.4 -0.17,0.27 -0.26,0.61 -0.26,1.04l0 1.59 -1.25 0 0 -3.91 1.14 0 0.09 0.63c0.14,-0.26 0.34,-0.46 0.59,-0.6 0.25,-0.14 0.55,-0.21 0.9,-0.21z"/>
   <path id="_20" class="fil1" d="M25.8 22.92c0,-0.4 0.09,-0.76 0.28,-1.07 0.19,-0.32 0.45,-0.56 0.8,-0.75 0.34,-0.18 0.73,-0.27 1.17,-0.27 0.44,0 0.82,0.09 1.15,0.27 0.33,0.18 0.59,0.43 0.76,0.75 0.18,0.32 0.27,0.67 0.27,1.07 0,0.4 -0.09,0.76 -0.27,1.08 -0.18,0.32 -0.43,0.57 -0.76,0.76 -0.33,0.18 -0.72,0.27 -1.17,0.27 -0.43,0 -0.82,-0.09 -1.16,-0.25 -0.34,-0.17 -0.6,-0.41 -0.79,-0.73 -0.19,-0.32 -0.28,-0.69 -0.28,-1.13zm1.26 0.01c0,0.31 0.09,0.57 0.27,0.77 0.18,0.21 0.41,0.31 0.68,0.31 0.29,0 0.52,-0.1 0.69,-0.3 0.18,-0.2 0.26,-0.46 0.26,-0.78 0,-0.32 -0.09,-0.58 -0.26,-0.78 -0.18,-0.2 -0.41,-0.3 -0.69,-0.3 -0.27,0 -0.5,0.1 -0.68,0.31 -0.18,0.21 -0.27,0.46 -0.27,0.77z"/>
   <path id="_21" class="fil1" d="M32.48 25.01c-0.32,0 -0.62,-0.06 -0.9,-0.17 -0.28,-0.11 -0.51,-0.27 -0.7,-0.47l0.52 -0.69c0.35,0.32 0.67,0.48 0.97,0.48 0.16,0 0.29,-0.03 0.39,-0.08 0.1,-0.05 0.15,-0.13 0.15,-0.23 0,-0.12 -0.06,-0.21 -0.17,-0.27 -0.11,-0.06 -0.24,-0.11 -0.38,-0.16 -0.14,-0.04 -0.23,-0.07 -0.28,-0.08 -0.34,-0.11 -0.59,-0.27 -0.76,-0.48 -0.17,-0.21 -0.25,-0.45 -0.25,-0.73 0,-0.21 0.06,-0.41 0.17,-0.61 0.11,-0.2 0.28,-0.36 0.51,-0.49 0.23,-0.13 0.52,-0.19 0.87,-0.19 0.32,0 0.6,0.03 0.82,0.1 0.23,0.07 0.44,0.17 0.65,0.32l-0.47 0.73c-0.12,-0.1 -0.25,-0.17 -0.4,-0.24 -0.15,-0.06 -0.28,-0.09 -0.4,-0.09 -0.14,0 -0.26,0.03 -0.35,0.09 -0.09,0.06 -0.13,0.13 -0.13,0.21 -0.01,0.13 0.05,0.22 0.16,0.28 0.11,0.06 0.28,0.13 0.51,0.19 0.04,0.01 0.07,0.02 0.11,0.04 0.04,0.01 0.08,0.02 0.12,0.04 0.61,0.2 0.92,0.57 0.92,1.11 0,0.25 -0.06,0.48 -0.19,0.69 -0.13,0.21 -0.31,0.38 -0.57,0.5 -0.25,0.13 -0.56,0.19 -0.93,0.19z"/>
   <polygon id="_22" class="fil1" points="43.85,24.92 42.55,24.92 42.55,22.25 39.61,22.25 39.61,24.92 38.32,24.92 38.32,18.35 39.61,18.35 39.61,21 42.55,21 42.55,18.35 43.85,18.35 "/>
   <path id="_23" class="fil1" d="M46.59 21.02l0 3.91 -1.25 0 0 -3.91 1.25 0zm-1.28 -1.39c0,-0.18 0.07,-0.33 0.21,-0.45 0.14,-0.12 0.3,-0.18 0.48,-0.18 0.17,0 0.33,0.06 0.46,0.18 0.14,0.12 0.21,0.27 0.21,0.45 0,0.18 -0.07,0.33 -0.21,0.45 -0.14,0.12 -0.29,0.18 -0.46,0.18 -0.18,0 -0.34,-0.06 -0.48,-0.18 -0.14,-0.12 -0.21,-0.27 -0.21,-0.45z"/>
   <path id="_24" class="fil1" d="M52.17 17.87l0 7.05 -1.25 0 0 -0.41c-0.45,0.35 -0.94,0.52 -1.45,0.52 -0.36,0 -0.69,-0.09 -0.97,-0.26 -0.29,-0.17 -0.51,-0.42 -0.67,-0.74 -0.16,-0.32 -0.25,-0.7 -0.25,-1.14 0,-0.43 0.09,-0.8 0.26,-1.11 0.18,-0.31 0.42,-0.55 0.73,-0.71 0.31,-0.16 0.66,-0.25 1.06,-0.25 0.26,0 0.5,0.04 0.72,0.12 0.23,0.08 0.42,0.2 0.57,0.35l0 -3.42 1.24 0zm-2.29 6.11c0.25,0 0.46,-0.05 0.63,-0.15 0.17,-0.1 0.3,-0.25 0.41,-0.44l0 -0.96c-0.07,-0.19 -0.2,-0.34 -0.38,-0.46 -0.18,-0.11 -0.4,-0.17 -0.65,-0.17 -0.28,0 -0.52,0.1 -0.73,0.3 -0.21,0.2 -0.31,0.46 -0.31,0.77 0,0.2 0.05,0.39 0.14,0.56 0.1,0.17 0.22,0.3 0.38,0.4 0.16,0.1 0.33,0.14 0.51,0.14z"/>
   <path id="_25" class="fil1" d="M54.68 21.91c0.11,-0.21 0.25,-0.4 0.44,-0.56 0.19,-0.17 0.38,-0.3 0.58,-0.39 0.2,-0.09 0.35,-0.14 0.46,-0.14l-0.06 1.25c-0.04,-0.01 -0.09,-0.01 -0.15,-0.01 -0.25,0 -0.47,0.07 -0.66,0.2 -0.19,0.13 -0.34,0.3 -0.44,0.51 -0.1,0.21 -0.15,0.42 -0.15,0.63l0 1.53 -1.24 0 0 -3.91 1.13 0 0.1 0.89z"/>
   <path id="_26" class="fil1" d="M61.15 21.02l0 3.91 -1.25 0 0 -0.48c-0.38,0.39 -0.81,0.59 -1.31,0.59 -0.58,0 -1.05,-0.17 -1.41,-0.52 -0.36,-0.35 -0.54,-0.86 -0.54,-1.54 0,-0.43 0.09,-0.81 0.26,-1.13 0.18,-0.32 0.41,-0.58 0.7,-0.76 0.29,-0.18 0.6,-0.27 0.94,-0.27 0.35,0 0.62,0.05 0.82,0.16 0.2,0.1 0.38,0.25 0.54,0.44l0.08 -0.4 1.16 0zm-2.2 2.99c0.44,0 0.75,-0.2 0.95,-0.59l0 -0.96c-0.07,-0.19 -0.19,-0.34 -0.37,-0.46 -0.18,-0.11 -0.38,-0.17 -0.62,-0.17 -0.27,0 -0.51,0.1 -0.7,0.3 -0.19,0.2 -0.29,0.46 -0.29,0.77 0,0.2 0.05,0.39 0.14,0.56 0.1,0.17 0.22,0.3 0.38,0.4 0.16,0.1 0.33,0.14 0.51,0.14zm0.71 -3.64l-0.76 0 0.7 -1.21 1.39 0 -1.32 1.21z"/>
   <path id="_27" class="fil1" d="M66.37 21.02l0 3.91 -1.14 0 -0.09 -0.63c-0.14,0.25 -0.33,0.45 -0.58,0.59 -0.25,0.15 -0.54,0.22 -0.87,0.22 -0.36,0 -0.66,-0.11 -0.89,-0.33 -0.24,-0.22 -0.36,-0.5 -0.37,-0.84l0 -2.92 1.25 0 0 2.46c0.02,0.38 0.19,0.57 0.53,0.57 0.27,0 0.49,-0.13 0.66,-0.4 0.16,-0.27 0.25,-0.61 0.25,-1.04l0 -1.59 1.25 0z"/>
   <polygon id="_28" class="fil1" points="68.91,17.87 68.91,24.92 67.66,24.92 67.66,17.87 "/>
   <path id="_29" class="fil1" d="M71.45 21.02l0 3.91 -1.25 0 0 -3.91 1.25 0zm-1.28 -1.39c0,-0.18 0.07,-0.33 0.21,-0.45 0.14,-0.12 0.3,-0.18 0.48,-0.18 0.17,0 0.33,0.06 0.46,0.18 0.14,0.12 0.21,0.27 0.21,0.45 0,0.18 -0.07,0.33 -0.21,0.45 -0.14,0.12 -0.29,0.18 -0.46,0.18 -0.18,0 -0.34,-0.06 -0.48,-0.18 -0.14,-0.12 -0.21,-0.27 -0.21,-0.45z"/>
   <path id="_30" class="fil1" d="M76.05 24.58c-0.17,0.14 -0.39,0.25 -0.65,0.33 -0.26,0.08 -0.51,0.13 -0.76,0.13 -0.68,0 -1.22,-0.18 -1.61,-0.55 -0.4,-0.37 -0.59,-0.87 -0.59,-1.52 0,-0.42 0.1,-0.78 0.29,-1.09 0.19,-0.31 0.45,-0.55 0.76,-0.72 0.32,-0.16 0.66,-0.25 1.02,-0.25 0.65,0 1.18,0.17 1.58,0.52l-0.61 0.8c-0.26,-0.2 -0.54,-0.3 -0.86,-0.3 -0.26,0 -0.48,0.1 -0.67,0.3 -0.18,0.2 -0.27,0.44 -0.27,0.74 0,0.3 0.1,0.55 0.3,0.75 0.2,0.2 0.45,0.3 0.77,0.3 0.27,0 0.5,-0.07 0.68,-0.22l0.63 0.79z"/>
   <path id="_31" class="fil1" d="M76.71 22.92c0,-0.4 0.09,-0.76 0.28,-1.07 0.19,-0.32 0.45,-0.56 0.8,-0.75 0.34,-0.18 0.73,-0.27 1.17,-0.27 0.44,0 0.82,0.09 1.15,0.27 0.33,0.18 0.59,0.43 0.76,0.75 0.18,0.32 0.27,0.67 0.27,1.07 0,0.4 -0.09,0.76 -0.27,1.08 -0.18,0.32 -0.43,0.57 -0.76,0.76 -0.33,0.18 -0.72,0.27 -1.17,0.27 -0.43,0 -0.82,-0.09 -1.16,-0.25 -0.34,-0.17 -0.6,-0.41 -0.79,-0.73 -0.19,-0.32 -0.28,-0.69 -0.28,-1.13zm1.26 0.01c0,0.31 0.09,0.57 0.27,0.77 0.18,0.21 0.41,0.31 0.68,0.31 0.29,0 0.52,-0.1 0.69,-0.3 0.18,-0.2 0.26,-0.46 0.26,-0.78 0,-0.32 -0.09,-0.58 -0.26,-0.78 -0.18,-0.2 -0.41,-0.3 -0.69,-0.3 -0.27,0 -0.5,0.1 -0.68,0.31 -0.18,0.21 -0.27,0.46 -0.27,0.77z"/>
   <path id="_32" class="fil1" d="M83.39 25.01c-0.32,0 -0.62,-0.06 -0.9,-0.17 -0.28,-0.11 -0.51,-0.27 -0.7,-0.47l0.52 -0.69c0.35,0.32 0.67,0.48 0.97,0.48 0.16,0 0.29,-0.03 0.39,-0.08 0.1,-0.05 0.15,-0.13 0.15,-0.23 0,-0.12 -0.06,-0.21 -0.17,-0.27 -0.11,-0.06 -0.24,-0.11 -0.38,-0.16 -0.14,-0.04 -0.23,-0.07 -0.28,-0.08 -0.34,-0.11 -0.59,-0.27 -0.76,-0.48 -0.17,-0.21 -0.25,-0.45 -0.25,-0.73 0,-0.21 0.06,-0.41 0.17,-0.61 0.11,-0.2 0.28,-0.36 0.51,-0.49 0.23,-0.13 0.52,-0.19 0.87,-0.19 0.32,0 0.6,0.03 0.82,0.1 0.23,0.07 0.44,0.17 0.65,0.32l-0.47 0.73c-0.12,-0.1 -0.25,-0.17 -0.4,-0.24 -0.15,-0.06 -0.28,-0.09 -0.4,-0.09 -0.14,0 -0.26,0.03 -0.35,0.09 -0.09,0.06 -0.13,0.13 -0.13,0.21 -0.01,0.13 0.05,0.22 0.16,0.28 0.11,0.06 0.28,0.13 0.51,0.19 0.04,0.01 0.07,0.02 0.11,0.04 0.04,0.01 0.08,0.02 0.12,0.04 0.61,0.2 0.92,0.57 0.92,1.11 0,0.25 -0.06,0.48 -0.19,0.69 -0.13,0.21 -0.31,0.38 -0.57,0.5 -0.25,0.13 -0.56,0.19 -0.93,0.19z"/>
   <rect class="fil2" x="98.34" y="1.01" width="0.9" height="32.52"/>
  </g>
 </g>
</svg>
