<?xml version="1.0" encoding="UTF-8"?>
<!DOCTYPE svg PUBLIC "-//W3C//DTD SVG 1.1//EN" "http://www.w3.org/Graphics/SVG/1.1/DTD/svg11.dtd">
<!-- Creator: CorelDRAW 2021 (64-Bit) -->
<svg xmlns="http://www.w3.org/2000/svg" xml:space="preserve" width="11.186mm" height="11.186mm" version="1.1" style="shape-rendering:geometricPrecision; text-rendering:geometricPrecision; image-rendering:optimizeQuality; fill-rule:evenodd; clip-rule:evenodd"
viewBox="0 0 23.12 23.12"
 xmlns:xlink="http://www.w3.org/1999/xlink"
 xmlns:xodm="http://www.corel.com/coreldraw/odm/2003">
 <defs>
  <style type="text/css">
   <![CDATA[
    .str0 {stroke:#727375;stroke-width:0.16;stroke-linecap:round;stroke-linejoin:round;stroke-miterlimit:22.9256}
    .fil3 {fill:none;fill-rule:nonzero}
    .fil1 {fill:#FEFEFE}
    .fil0 {fill:#DC8553}
    .fil4 {fill:#FEFEFE;fill-rule:nonzero}
    .fil2 {fill:#727375;fill-rule:nonzero}
   ]]>
  </style>
   <mask id="id0">
  <linearGradient id="id1" gradientUnits="userSpaceOnUse" x1="-5.97" y1="-13.62" x2="16.04" y2="18.34">
   <stop offset="0" style="stop-opacity:1; stop-color:white"/>
   <stop offset="1" style="stop-opacity:0; stop-color:white"/>
  </linearGradient>
    <rect style="fill:url(#id1)" x="0.78" y="0.23" width="19.15" height="19.15"/>
   </mask>
 </defs>
 <g id="Capa_x0020_1">
  <metadata id="CorelCorpID_0Corel-Layer"/>
  <circle class="fil0" cx="11.56" cy="11.56" r="11.56"/>
  <path class="fil1" style="mask:url(#id0)" d="M10.35 0.43c5.17,0 9.37,4.19 9.37,9.37 0,5.17 -4.19,9.37 -9.37,9.37 -5.17,0 -9.37,-4.19 -9.37,-9.37 0,-5.17 4.19,-9.37 9.37,-9.37z"/>
  <path class="fil2" d="M3.9 11.04l-0.72 0 -0.18 0.43 -0.42 0 0.99 -2.27 0.02 0 0.99 2.27 -0.5 0 -0.17 -0.43zm-0.14 -0.36l-0.21 -0.53 -0.22 0.53 0.43 0z"/>
  <path id="_1" class="fil2" d="M6.13 10.17l0 1.3 -0.38 0 -0.03 -0.21c-0.05,0.08 -0.11,0.15 -0.19,0.2 -0.08,0.05 -0.18,0.07 -0.29,0.07 -0.12,0 -0.22,-0.04 -0.3,-0.11 -0.08,-0.07 -0.12,-0.17 -0.12,-0.28l0 -0.97 0.42 0 0 0.82c0.01,0.13 0.06,0.19 0.18,0.19 0.09,0 0.16,-0.04 0.22,-0.13 0.05,-0.09 0.08,-0.2 0.08,-0.34l0 -0.53 0.42 0z"/>
  <polygon id="_2" class="fil2" points="7.09,9.6 7.09,10.16 7.41,10.16 7.41,10.49 7.09,10.49 7.09,11.47 6.68,11.47 6.68,10.49 6.48,10.49 6.48,10.16 6.68,10.16 6.68,9.6 "/>
  <path id="_3" class="fil2" d="M7.62 10.8c0,-0.13 0.03,-0.25 0.09,-0.36 0.06,-0.11 0.15,-0.19 0.26,-0.25 0.11,-0.06 0.24,-0.09 0.39,-0.09 0.14,0 0.27,0.03 0.38,0.09 0.11,0.06 0.19,0.14 0.25,0.25 0.06,0.1 0.09,0.22 0.09,0.36 0,0.13 -0.03,0.25 -0.09,0.36 -0.06,0.11 -0.14,0.19 -0.25,0.25 -0.11,0.06 -0.24,0.09 -0.39,0.09 -0.14,0 -0.27,-0.03 -0.38,-0.08 -0.11,-0.06 -0.2,-0.14 -0.26,-0.24 -0.06,-0.11 -0.09,-0.23 -0.09,-0.37zm0.42 0c0,0.1 0.03,0.19 0.09,0.26 0.06,0.07 0.13,0.1 0.23,0.1 0.09,0 0.17,-0.03 0.23,-0.1 0.06,-0.07 0.09,-0.15 0.09,-0.26 0,-0.1 -0.03,-0.19 -0.09,-0.26 -0.06,-0.07 -0.14,-0.1 -0.23,-0.1 -0.09,0 -0.17,0.03 -0.23,0.1 -0.06,0.07 -0.09,0.15 -0.09,0.26z"/>
  <path id="_4" class="fil2" d="M10.32 10.1c0.12,0 0.23,0.03 0.32,0.09 0.1,0.06 0.17,0.14 0.22,0.25 0.05,0.11 0.08,0.23 0.08,0.38 0,0.14 -0.03,0.27 -0.09,0.37 -0.06,0.1 -0.14,0.18 -0.25,0.24 -0.11,0.05 -0.23,0.08 -0.37,0.08 -0.08,0 -0.15,-0.01 -0.22,-0.04 -0.07,-0.03 -0.13,-0.06 -0.18,-0.11l0 0.74 -0.41 0 0 -1.95 0.36 0 0.04 0.15c0.16,-0.13 0.33,-0.19 0.5,-0.19zm-0.17 1.07c0.1,0 0.19,-0.03 0.26,-0.1 0.07,-0.07 0.11,-0.15 0.11,-0.26 0,-0.11 -0.03,-0.19 -0.1,-0.26 -0.07,-0.07 -0.15,-0.1 -0.24,-0.1 -0.08,0 -0.15,0.02 -0.21,0.05 -0.06,0.03 -0.1,0.08 -0.14,0.15l0 0.32c0.02,0.06 0.06,0.11 0.12,0.15 0.06,0.04 0.12,0.06 0.2,0.06z"/>
  <path id="_5" class="fil2" d="M11.68 10.47c0.04,-0.07 0.08,-0.13 0.15,-0.19 0.06,-0.06 0.13,-0.1 0.19,-0.13 0.07,-0.03 0.12,-0.05 0.15,-0.05l-0.02 0.42c-0.01,-0 -0.03,-0 -0.05,-0 -0.08,0 -0.16,0.02 -0.22,0.07 -0.06,0.04 -0.11,0.1 -0.15,0.17 -0.03,0.07 -0.05,0.14 -0.05,0.21l0 0.51 -0.41 0 0 -1.3 0.37 0 0.03 0.3z"/>
  <path id="_6" class="fil2" d="M13.8 10.17l0 1.3 -0.38 0 -0.03 -0.21c-0.05,0.08 -0.11,0.15 -0.19,0.2 -0.08,0.05 -0.18,0.07 -0.29,0.07 -0.12,0 -0.22,-0.04 -0.3,-0.11 -0.08,-0.07 -0.12,-0.17 -0.12,-0.28l0 -0.97 0.42 0 0 0.82c0.01,0.13 0.06,0.19 0.18,0.19 0.09,0 0.16,-0.04 0.22,-0.13 0.05,-0.09 0.08,-0.2 0.08,-0.34l0 -0.53 0.42 0z"/>
  <path id="_7" class="fil2" d="M14.87 11.15c0.08,0 0.17,-0.03 0.26,-0.09l0.18 0.31c-0.07,0.04 -0.15,0.07 -0.23,0.1 -0.08,0.02 -0.15,0.04 -0.23,0.04 -0.15,0 -0.29,-0.03 -0.4,-0.09 -0.11,-0.06 -0.2,-0.14 -0.25,-0.25 -0.06,-0.11 -0.09,-0.23 -0.09,-0.36 0,-0.13 0.03,-0.24 0.1,-0.35 0.07,-0.11 0.16,-0.19 0.27,-0.25 0.11,-0.06 0.24,-0.09 0.38,-0.09 0.19,0 0.34,0.05 0.46,0.16 0.12,0.11 0.2,0.26 0.23,0.47l-0.95 0.3c0.06,0.07 0.15,0.11 0.26,0.11zm-0.03 -0.72c-0.09,0 -0.17,0.03 -0.22,0.1 -0.06,0.06 -0.08,0.15 -0.08,0.26l0 0.03 0.57 -0.19c-0.04,-0.12 -0.13,-0.18 -0.26,-0.18z"/>
  <path id="_8" class="fil2" d="M16.77 10.1c0.11,0 0.22,0.03 0.31,0.08 0.09,0.05 0.17,0.13 0.22,0.24 0.06,0.1 0.08,0.23 0.08,0.37 0,0.14 -0.03,0.27 -0.09,0.38 -0.06,0.11 -0.14,0.19 -0.25,0.25 -0.1,0.06 -0.21,0.09 -0.34,0.09 -0.18,0 -0.32,-0.06 -0.44,-0.17l0 0.13 -0.42 0 0 -2.34 0.41 0 0 1.13c0.06,-0.05 0.13,-0.08 0.21,-0.11 0.08,-0.03 0.18,-0.04 0.28,-0.04zm-0.15 1.05c0.06,0 0.12,-0.02 0.17,-0.05 0.05,-0.03 0.09,-0.08 0.13,-0.13 0.03,-0.06 0.05,-0.12 0.05,-0.19 0,-0.1 -0.03,-0.19 -0.1,-0.26 -0.07,-0.07 -0.15,-0.1 -0.24,-0.1 -0.08,0 -0.15,0.02 -0.21,0.06 -0.06,0.04 -0.1,0.09 -0.13,0.15l0 0.32c0.07,0.13 0.19,0.2 0.34,0.2z"/>
  <path id="_9" class="fil2" d="M19.11 10.17l0 1.3 -0.42 0 0 -0.16c-0.12,0.13 -0.27,0.2 -0.43,0.2 -0.19,0 -0.35,-0.06 -0.47,-0.17 -0.12,-0.11 -0.18,-0.28 -0.18,-0.51 0,-0.14 0.03,-0.27 0.09,-0.38 0.06,-0.11 0.14,-0.19 0.23,-0.25 0.1,-0.06 0.2,-0.09 0.31,-0.09 0.11,0 0.21,0.02 0.27,0.05 0.07,0.03 0.13,0.08 0.18,0.15l0.03 -0.13 0.39 0zm-0.73 0.99c0.14,0 0.25,-0.07 0.31,-0.2l0 -0.32c-0.02,-0.06 -0.06,-0.11 -0.12,-0.15 -0.06,-0.04 -0.13,-0.06 -0.21,-0.06 -0.09,0 -0.17,0.03 -0.23,0.1 -0.06,0.07 -0.1,0.15 -0.1,0.26 0,0.07 0.02,0.13 0.05,0.19 0.03,0.06 0.07,0.1 0.13,0.13 0.05,0.03 0.11,0.05 0.17,0.05z"/>
  <path id="_10" class="fil2" d="M19.96 11.49c-0.11,0 -0.21,-0.02 -0.3,-0.06 -0.09,-0.04 -0.17,-0.09 -0.23,-0.16l0.17 -0.23c0.11,0.11 0.22,0.16 0.32,0.16 0.05,0 0.1,-0.01 0.13,-0.03 0.03,-0.02 0.05,-0.04 0.05,-0.08 0,-0.04 -0.02,-0.07 -0.06,-0.09 -0.04,-0.02 -0.08,-0.04 -0.13,-0.05 -0.05,-0.01 -0.08,-0.02 -0.09,-0.03 -0.11,-0.04 -0.2,-0.09 -0.25,-0.16 -0.06,-0.07 -0.08,-0.15 -0.08,-0.24 0,-0.07 0.02,-0.14 0.05,-0.2 0.04,-0.07 0.09,-0.12 0.17,-0.16 0.08,-0.04 0.17,-0.06 0.29,-0.06 0.11,0 0.2,0.01 0.27,0.03 0.08,0.02 0.15,0.06 0.22,0.11l-0.16 0.24c-0.04,-0.03 -0.08,-0.06 -0.13,-0.08 -0.05,-0.02 -0.09,-0.03 -0.13,-0.03 -0.05,0 -0.09,0.01 -0.12,0.03 -0.03,0.02 -0.04,0.04 -0.04,0.07 -0,0.04 0.02,0.07 0.05,0.09 0.04,0.02 0.09,0.04 0.17,0.06 0.01,0 0.02,0.01 0.04,0.01 0.01,0 0.03,0.01 0.04,0.01 0.2,0.07 0.31,0.19 0.31,0.37 0,0.08 -0.02,0.16 -0.06,0.23 -0.04,0.07 -0.1,0.13 -0.19,0.17 -0.08,0.04 -0.19,0.06 -0.31,0.06z"/>
  <path id="_11" class="fil2" d="M6.01 11.7l0 2.34 -0.42 0 0 -0.14c-0.15,0.11 -0.31,0.17 -0.48,0.17 -0.12,0 -0.23,-0.03 -0.32,-0.09 -0.1,-0.06 -0.17,-0.14 -0.22,-0.25 -0.05,-0.11 -0.08,-0.23 -0.08,-0.38 0,-0.14 0.03,-0.27 0.09,-0.37 0.06,-0.1 0.14,-0.18 0.24,-0.24 0.1,-0.05 0.22,-0.08 0.35,-0.08 0.08,0 0.17,0.01 0.24,0.04 0.08,0.03 0.14,0.07 0.19,0.12l0 -1.14 0.41 0zm-0.76 2.03c0.08,0 0.15,-0.02 0.21,-0.05 0.06,-0.03 0.1,-0.08 0.14,-0.15l0 -0.32c-0.02,-0.06 -0.07,-0.11 -0.13,-0.15 -0.06,-0.04 -0.13,-0.06 -0.22,-0.06 -0.09,0 -0.17,0.03 -0.24,0.1 -0.07,0.07 -0.1,0.15 -0.1,0.26 0,0.07 0.02,0.13 0.05,0.19 0.03,0.06 0.07,0.1 0.13,0.13 0.05,0.03 0.11,0.05 0.17,0.05z"/>
  <path id="_12" class="fil2" d="M7.08 13.73c0.08,0 0.17,-0.03 0.26,-0.09l0.18 0.31c-0.07,0.04 -0.15,0.07 -0.23,0.1 -0.08,0.02 -0.15,0.04 -0.23,0.04 -0.15,0 -0.29,-0.03 -0.4,-0.09 -0.11,-0.06 -0.2,-0.14 -0.25,-0.25 -0.06,-0.11 -0.09,-0.23 -0.09,-0.36 0,-0.13 0.03,-0.24 0.1,-0.35 0.07,-0.11 0.16,-0.19 0.27,-0.25 0.11,-0.06 0.24,-0.09 0.38,-0.09 0.19,0 0.34,0.05 0.46,0.16 0.12,0.11 0.2,0.26 0.23,0.47l-0.95 0.3c0.06,0.07 0.15,0.11 0.26,0.11zm-0.03 -0.72c-0.09,0 -0.17,0.03 -0.22,0.1 -0.06,0.06 -0.08,0.15 -0.08,0.26l0 0.03 0.57 -0.19c-0.04,-0.12 -0.13,-0.18 -0.26,-0.18z"/>
  <path id="_13" class="fil2" d="M10.44 12.75l0 1.3 -0.42 0 0 -0.16c-0.12,0.13 -0.27,0.2 -0.43,0.2 -0.19,0 -0.35,-0.06 -0.47,-0.17 -0.12,-0.11 -0.18,-0.28 -0.18,-0.51 0,-0.14 0.03,-0.27 0.09,-0.38 0.06,-0.11 0.14,-0.19 0.23,-0.25 0.1,-0.06 0.2,-0.09 0.31,-0.09 0.11,0 0.21,0.02 0.27,0.05 0.07,0.03 0.13,0.08 0.18,0.15l0.03 -0.13 0.39 0zm-0.73 0.99c0.14,0 0.25,-0.07 0.31,-0.2l0 -0.32c-0.02,-0.06 -0.06,-0.11 -0.12,-0.15 -0.06,-0.04 -0.13,-0.06 -0.21,-0.06 -0.09,0 -0.17,0.03 -0.23,0.1 -0.06,0.07 -0.1,0.15 -0.1,0.26 0,0.07 0.02,0.13 0.05,0.19 0.03,0.06 0.07,0.1 0.13,0.13 0.05,0.03 0.11,0.05 0.17,0.05z"/>
  <polygon id="_14" class="fil2" points="12.21,12.75 11.47,14.07 11.46,14.07 10.68,12.75 11.17,12.75 11.48,13.36 11.74,12.75 "/>
  <path id="_15" class="fil2" d="M13.79 12.75l0 1.3 -0.42 0 0 -0.16c-0.12,0.13 -0.27,0.2 -0.43,0.2 -0.19,0 -0.35,-0.06 -0.47,-0.17 -0.12,-0.11 -0.18,-0.28 -0.18,-0.51 0,-0.14 0.03,-0.27 0.09,-0.38 0.06,-0.11 0.14,-0.19 0.23,-0.25 0.1,-0.06 0.2,-0.09 0.31,-0.09 0.11,0 0.21,0.02 0.27,0.05 0.07,0.03 0.13,0.08 0.18,0.15l0.03 -0.13 0.39 0zm-0.73 0.99c0.14,0 0.25,-0.07 0.31,-0.2l0 -0.32c-0.02,-0.06 -0.06,-0.11 -0.12,-0.15 -0.06,-0.04 -0.13,-0.06 -0.21,-0.06 -0.09,0 -0.17,0.03 -0.23,0.1 -0.06,0.07 -0.1,0.15 -0.1,0.26 0,0.07 0.02,0.13 0.05,0.19 0.03,0.06 0.07,0.1 0.13,0.13 0.05,0.03 0.11,0.05 0.17,0.05z"/>
  <path id="_16" class="fil2" d="M15.12 12.68c0.12,0 0.23,0.04 0.31,0.11 0.08,0.07 0.12,0.17 0.13,0.28l0 0.97 -0.42 0 0 -0.82c-0.01,-0.13 -0.07,-0.19 -0.19,-0.19 -0.1,0 -0.17,0.04 -0.23,0.13 -0.06,0.09 -0.09,0.2 -0.09,0.34l0 0.53 -0.42 0 0 -1.3 0.38 0 0.03 0.21c0.05,-0.09 0.11,-0.15 0.2,-0.2 0.08,-0.05 0.18,-0.07 0.3,-0.07z"/>
  <path id="_17" class="fil2" d="M17.08 13.93c-0.06,0.05 -0.13,0.08 -0.22,0.11 -0.09,0.03 -0.17,0.04 -0.25,0.04 -0.23,0 -0.4,-0.06 -0.54,-0.18 -0.13,-0.12 -0.2,-0.29 -0.2,-0.5 0,-0.14 0.03,-0.26 0.1,-0.36 0.06,-0.1 0.15,-0.18 0.25,-0.24 0.11,-0.05 0.22,-0.08 0.34,-0.08 0.22,0 0.39,0.06 0.53,0.17l-0.2 0.27c-0.09,-0.07 -0.18,-0.1 -0.29,-0.1 -0.09,0 -0.16,0.03 -0.22,0.1 -0.06,0.07 -0.09,0.15 -0.09,0.25 0,0.1 0.03,0.18 0.1,0.25 0.07,0.07 0.15,0.1 0.26,0.1 0.09,0 0.17,-0.02 0.23,-0.07l0.21 0.26z"/>
  <path id="_18" class="fil2" d="M18.05 13.73c0.08,0 0.17,-0.03 0.26,-0.09l0.18 0.31c-0.07,0.04 -0.15,0.07 -0.23,0.1 -0.08,0.02 -0.15,0.04 -0.23,0.04 -0.15,0 -0.29,-0.03 -0.4,-0.09 -0.11,-0.06 -0.2,-0.14 -0.25,-0.25 -0.06,-0.11 -0.09,-0.23 -0.09,-0.36 0,-0.13 0.03,-0.24 0.1,-0.35 0.07,-0.11 0.16,-0.19 0.27,-0.25 0.11,-0.06 0.24,-0.09 0.38,-0.09 0.19,0 0.34,0.05 0.46,0.16 0.12,0.11 0.2,0.26 0.23,0.47l-0.95 0.3c0.06,0.07 0.15,0.11 0.26,0.11zm-0.03 -0.72c-0.09,0 -0.17,0.03 -0.22,0.1 -0.06,0.06 -0.08,0.15 -0.08,0.26l0 0.03 0.57 -0.19c-0.04,-0.12 -0.13,-0.18 -0.26,-0.18z"/>
  <path id="_19" class="fil3 str0" d="M3.9 11.04l-0.72 0 -0.18 0.43 -0.42 0 0.99 -2.27 0.02 0 0.99 2.27 -0.5 0 -0.17 -0.43zm-0.14 -0.36l-0.21 -0.53 -0.22 0.53 0.43 0z"/>
  <path id="_20" class="fil3 str0" d="M6.13 10.17l0 1.3 -0.38 0 -0.03 -0.21c-0.05,0.08 -0.11,0.15 -0.19,0.2 -0.08,0.05 -0.18,0.07 -0.29,0.07 -0.12,0 -0.22,-0.04 -0.3,-0.11 -0.08,-0.07 -0.12,-0.17 -0.12,-0.28l0 -0.97 0.42 0 0 0.82c0.01,0.13 0.06,0.19 0.18,0.19 0.09,0 0.16,-0.04 0.22,-0.13 0.05,-0.09 0.08,-0.2 0.08,-0.34l0 -0.53 0.42 0z"/>
  <polygon id="_21" class="fil3 str0" points="7.09,9.6 7.09,10.16 7.41,10.16 7.41,10.49 7.09,10.49 7.09,11.47 6.68,11.47 6.68,10.49 6.48,10.49 6.48,10.16 6.68,10.16 6.68,9.6 "/>
  <path id="_22" class="fil3 str0" d="M7.62 10.8c0,-0.13 0.03,-0.25 0.09,-0.36 0.06,-0.11 0.15,-0.19 0.26,-0.25 0.11,-0.06 0.24,-0.09 0.39,-0.09 0.14,0 0.27,0.03 0.38,0.09 0.11,0.06 0.19,0.14 0.25,0.25 0.06,0.1 0.09,0.22 0.09,0.36 0,0.13 -0.03,0.25 -0.09,0.36 -0.06,0.11 -0.14,0.19 -0.25,0.25 -0.11,0.06 -0.24,0.09 -0.39,0.09 -0.14,0 -0.27,-0.03 -0.38,-0.08 -0.11,-0.06 -0.2,-0.14 -0.26,-0.24 -0.06,-0.11 -0.09,-0.23 -0.09,-0.37zm0.42 0c0,0.1 0.03,0.19 0.09,0.26 0.06,0.07 0.13,0.1 0.23,0.1 0.09,0 0.17,-0.03 0.23,-0.1 0.06,-0.07 0.09,-0.15 0.09,-0.26 0,-0.1 -0.03,-0.19 -0.09,-0.26 -0.06,-0.07 -0.14,-0.1 -0.23,-0.1 -0.09,0 -0.17,0.03 -0.23,0.1 -0.06,0.07 -0.09,0.15 -0.09,0.26z"/>
  <path id="_23" class="fil3 str0" d="M10.32 10.1c0.12,0 0.23,0.03 0.32,0.09 0.1,0.06 0.17,0.14 0.22,0.25 0.05,0.11 0.08,0.23 0.08,0.38 0,0.14 -0.03,0.27 -0.09,0.37 -0.06,0.1 -0.14,0.18 -0.25,0.24 -0.11,0.05 -0.23,0.08 -0.37,0.08 -0.08,0 -0.15,-0.01 -0.22,-0.04 -0.07,-0.03 -0.13,-0.06 -0.18,-0.11l0 0.74 -0.41 0 0 -1.95 0.36 0 0.04 0.15c0.16,-0.13 0.33,-0.19 0.5,-0.19zm-0.17 1.07c0.1,0 0.19,-0.03 0.26,-0.1 0.07,-0.07 0.11,-0.15 0.11,-0.26 0,-0.11 -0.03,-0.19 -0.1,-0.26 -0.07,-0.07 -0.15,-0.1 -0.24,-0.1 -0.08,0 -0.15,0.02 -0.21,0.05 -0.06,0.03 -0.1,0.08 -0.14,0.15l0 0.32c0.02,0.06 0.06,0.11 0.12,0.15 0.06,0.04 0.12,0.06 0.2,0.06z"/>
  <path id="_24" class="fil3 str0" d="M11.68 10.47c0.04,-0.07 0.08,-0.13 0.15,-0.19 0.06,-0.06 0.13,-0.1 0.19,-0.13 0.07,-0.03 0.12,-0.05 0.15,-0.05l-0.02 0.42c-0.01,-0 -0.03,-0 -0.05,-0 -0.08,0 -0.16,0.02 -0.22,0.07 -0.06,0.04 -0.11,0.1 -0.15,0.17 -0.03,0.07 -0.05,0.14 -0.05,0.21l0 0.51 -0.41 0 0 -1.3 0.37 0 0.03 0.3z"/>
  <path id="_25" class="fil3 str0" d="M13.8 10.17l0 1.3 -0.38 0 -0.03 -0.21c-0.05,0.08 -0.11,0.15 -0.19,0.2 -0.08,0.05 -0.18,0.07 -0.29,0.07 -0.12,0 -0.22,-0.04 -0.3,-0.11 -0.08,-0.07 -0.12,-0.17 -0.12,-0.28l0 -0.97 0.42 0 0 0.82c0.01,0.13 0.06,0.19 0.18,0.19 0.09,0 0.16,-0.04 0.22,-0.13 0.05,-0.09 0.08,-0.2 0.08,-0.34l0 -0.53 0.42 0z"/>
  <path id="_26" class="fil3 str0" d="M14.87 11.15c0.08,0 0.17,-0.03 0.26,-0.09l0.18 0.31c-0.07,0.04 -0.15,0.07 -0.23,0.1 -0.08,0.02 -0.15,0.04 -0.23,0.04 -0.15,0 -0.29,-0.03 -0.4,-0.09 -0.11,-0.06 -0.2,-0.14 -0.25,-0.25 -0.06,-0.11 -0.09,-0.23 -0.09,-0.36 0,-0.13 0.03,-0.24 0.1,-0.35 0.07,-0.11 0.16,-0.19 0.27,-0.25 0.11,-0.06 0.24,-0.09 0.38,-0.09 0.19,0 0.34,0.05 0.46,0.16 0.12,0.11 0.2,0.26 0.23,0.47l-0.95 0.3c0.06,0.07 0.15,0.11 0.26,0.11zm-0.03 -0.72c-0.09,0 -0.17,0.03 -0.22,0.1 -0.06,0.06 -0.08,0.15 -0.08,0.26l0 0.03 0.57 -0.19c-0.04,-0.12 -0.13,-0.18 -0.26,-0.18z"/>
  <path id="_27" class="fil3 str0" d="M16.77 10.1c0.11,0 0.22,0.03 0.31,0.08 0.09,0.05 0.17,0.13 0.22,0.24 0.06,0.1 0.08,0.23 0.08,0.37 0,0.14 -0.03,0.27 -0.09,0.38 -0.06,0.11 -0.14,0.19 -0.25,0.25 -0.1,0.06 -0.21,0.09 -0.34,0.09 -0.18,0 -0.32,-0.06 -0.44,-0.17l0 0.13 -0.42 0 0 -2.34 0.41 0 0 1.13c0.06,-0.05 0.13,-0.08 0.21,-0.11 0.08,-0.03 0.18,-0.04 0.28,-0.04zm-0.15 1.05c0.06,0 0.12,-0.02 0.17,-0.05 0.05,-0.03 0.09,-0.08 0.13,-0.13 0.03,-0.06 0.05,-0.12 0.05,-0.19 0,-0.1 -0.03,-0.19 -0.1,-0.26 -0.07,-0.07 -0.15,-0.1 -0.24,-0.1 -0.08,0 -0.15,0.02 -0.21,0.06 -0.06,0.04 -0.1,0.09 -0.13,0.15l0 0.32c0.07,0.13 0.19,0.2 0.34,0.2z"/>
  <path id="_28" class="fil3 str0" d="M19.11 10.17l0 1.3 -0.42 0 0 -0.16c-0.12,0.13 -0.27,0.2 -0.43,0.2 -0.19,0 -0.35,-0.06 -0.47,-0.17 -0.12,-0.11 -0.18,-0.28 -0.18,-0.51 0,-0.14 0.03,-0.27 0.09,-0.38 0.06,-0.11 0.14,-0.19 0.23,-0.25 0.1,-0.06 0.2,-0.09 0.31,-0.09 0.11,0 0.21,0.02 0.27,0.05 0.07,0.03 0.13,0.08 0.18,0.15l0.03 -0.13 0.39 0zm-0.73 0.99c0.14,0 0.25,-0.07 0.31,-0.2l0 -0.32c-0.02,-0.06 -0.06,-0.11 -0.12,-0.15 -0.06,-0.04 -0.13,-0.06 -0.21,-0.06 -0.09,0 -0.17,0.03 -0.23,0.1 -0.06,0.07 -0.1,0.15 -0.1,0.26 0,0.07 0.02,0.13 0.05,0.19 0.03,0.06 0.07,0.1 0.13,0.13 0.05,0.03 0.11,0.05 0.17,0.05z"/>
  <path id="_29" class="fil3 str0" d="M19.96 11.49c-0.11,0 -0.21,-0.02 -0.3,-0.06 -0.09,-0.04 -0.17,-0.09 -0.23,-0.16l0.17 -0.23c0.11,0.11 0.22,0.16 0.32,0.16 0.05,0 0.1,-0.01 0.13,-0.03 0.03,-0.02 0.05,-0.04 0.05,-0.08 0,-0.04 -0.02,-0.07 -0.06,-0.09 -0.04,-0.02 -0.08,-0.04 -0.13,-0.05 -0.05,-0.01 -0.08,-0.02 -0.09,-0.03 -0.11,-0.04 -0.2,-0.09 -0.25,-0.16 -0.06,-0.07 -0.08,-0.15 -0.08,-0.24 0,-0.07 0.02,-0.14 0.05,-0.2 0.04,-0.07 0.09,-0.12 0.17,-0.16 0.08,-0.04 0.17,-0.06 0.29,-0.06 0.11,0 0.2,0.01 0.27,0.03 0.08,0.02 0.15,0.06 0.22,0.11l-0.16 0.24c-0.04,-0.03 -0.08,-0.06 -0.13,-0.08 -0.05,-0.02 -0.09,-0.03 -0.13,-0.03 -0.05,0 -0.09,0.01 -0.12,0.03 -0.03,0.02 -0.04,0.04 -0.04,0.07 -0,0.04 0.02,0.07 0.05,0.09 0.04,0.02 0.09,0.04 0.17,0.06 0.01,0 0.02,0.01 0.04,0.01 0.01,0 0.03,0.01 0.04,0.01 0.2,0.07 0.31,0.19 0.31,0.37 0,0.08 -0.02,0.16 -0.06,0.23 -0.04,0.07 -0.1,0.13 -0.19,0.17 -0.08,0.04 -0.19,0.06 -0.31,0.06z"/>
  <path id="_30" class="fil3 str0" d="M6.01 11.7l0 2.34 -0.42 0 0 -0.14c-0.15,0.11 -0.31,0.17 -0.48,0.17 -0.12,0 -0.23,-0.03 -0.32,-0.09 -0.1,-0.06 -0.17,-0.14 -0.22,-0.25 -0.05,-0.11 -0.08,-0.23 -0.08,-0.38 0,-0.14 0.03,-0.27 0.09,-0.37 0.06,-0.1 0.14,-0.18 0.24,-0.24 0.1,-0.05 0.22,-0.08 0.35,-0.08 0.08,0 0.17,0.01 0.24,0.04 0.08,0.03 0.14,0.07 0.19,0.12l0 -1.14 0.41 0zm-0.76 2.03c0.08,0 0.15,-0.02 0.21,-0.05 0.06,-0.03 0.1,-0.08 0.14,-0.15l0 -0.32c-0.02,-0.06 -0.07,-0.11 -0.13,-0.15 -0.06,-0.04 -0.13,-0.06 -0.22,-0.06 -0.09,0 -0.17,0.03 -0.24,0.1 -0.07,0.07 -0.1,0.15 -0.1,0.26 0,0.07 0.02,0.13 0.05,0.19 0.03,0.06 0.07,0.1 0.13,0.13 0.05,0.03 0.11,0.05 0.17,0.05z"/>
  <path id="_31" class="fil3 str0" d="M7.08 13.73c0.08,0 0.17,-0.03 0.26,-0.09l0.18 0.31c-0.07,0.04 -0.15,0.07 -0.23,0.1 -0.08,0.02 -0.15,0.04 -0.23,0.04 -0.15,0 -0.29,-0.03 -0.4,-0.09 -0.11,-0.06 -0.2,-0.14 -0.25,-0.25 -0.06,-0.11 -0.09,-0.23 -0.09,-0.36 0,-0.13 0.03,-0.24 0.1,-0.35 0.07,-0.11 0.16,-0.19 0.27,-0.25 0.11,-0.06 0.24,-0.09 0.38,-0.09 0.19,0 0.34,0.05 0.46,0.16 0.12,0.11 0.2,0.26 0.23,0.47l-0.95 0.3c0.06,0.07 0.15,0.11 0.26,0.11zm-0.03 -0.72c-0.09,0 -0.17,0.03 -0.22,0.1 -0.06,0.06 -0.08,0.15 -0.08,0.26l0 0.03 0.57 -0.19c-0.04,-0.12 -0.13,-0.18 -0.26,-0.18z"/>
  <path id="_32" class="fil3 str0" d="M10.44 12.75l0 1.3 -0.42 0 0 -0.16c-0.12,0.13 -0.27,0.2 -0.43,0.2 -0.19,0 -0.35,-0.06 -0.47,-0.17 -0.12,-0.11 -0.18,-0.28 -0.18,-0.51 0,-0.14 0.03,-0.27 0.09,-0.38 0.06,-0.11 0.14,-0.19 0.23,-0.25 0.1,-0.06 0.2,-0.09 0.31,-0.09 0.11,0 0.21,0.02 0.27,0.05 0.07,0.03 0.13,0.08 0.18,0.15l0.03 -0.13 0.39 0zm-0.73 0.99c0.14,0 0.25,-0.07 0.31,-0.2l0 -0.32c-0.02,-0.06 -0.06,-0.11 -0.12,-0.15 -0.06,-0.04 -0.13,-0.06 -0.21,-0.06 -0.09,0 -0.17,0.03 -0.23,0.1 -0.06,0.07 -0.1,0.15 -0.1,0.26 0,0.07 0.02,0.13 0.05,0.19 0.03,0.06 0.07,0.1 0.13,0.13 0.05,0.03 0.11,0.05 0.17,0.05z"/>
  <polygon id="_33" class="fil3 str0" points="12.21,12.75 11.47,14.07 11.46,14.07 10.68,12.75 11.17,12.75 11.48,13.36 11.74,12.75 "/>
  <path id="_34" class="fil3 str0" d="M13.79 12.75l0 1.3 -0.42 0 0 -0.16c-0.12,0.13 -0.27,0.2 -0.43,0.2 -0.19,0 -0.35,-0.06 -0.47,-0.17 -0.12,-0.11 -0.18,-0.28 -0.18,-0.51 0,-0.14 0.03,-0.27 0.09,-0.38 0.06,-0.11 0.14,-0.19 0.23,-0.25 0.1,-0.06 0.2,-0.09 0.31,-0.09 0.11,0 0.21,0.02 0.27,0.05 0.07,0.03 0.13,0.08 0.18,0.15l0.03 -0.13 0.39 0zm-0.73 0.99c0.14,0 0.25,-0.07 0.31,-0.2l0 -0.32c-0.02,-0.06 -0.06,-0.11 -0.12,-0.15 -0.06,-0.04 -0.13,-0.06 -0.21,-0.06 -0.09,0 -0.17,0.03 -0.23,0.1 -0.06,0.07 -0.1,0.15 -0.1,0.26 0,0.07 0.02,0.13 0.05,0.19 0.03,0.06 0.07,0.1 0.13,0.13 0.05,0.03 0.11,0.05 0.17,0.05z"/>
  <path id="_35" class="fil3 str0" d="M15.12 12.68c0.12,0 0.23,0.04 0.31,0.11 0.08,0.07 0.12,0.17 0.13,0.28l0 0.97 -0.42 0 0 -0.82c-0.01,-0.13 -0.07,-0.19 -0.19,-0.19 -0.1,0 -0.17,0.04 -0.23,0.13 -0.06,0.09 -0.09,0.2 -0.09,0.34l0 0.53 -0.42 0 0 -1.3 0.38 0 0.03 0.21c0.05,-0.09 0.11,-0.15 0.2,-0.2 0.08,-0.05 0.18,-0.07 0.3,-0.07z"/>
  <path id="_36" class="fil3 str0" d="M17.08 13.93c-0.06,0.05 -0.13,0.08 -0.22,0.11 -0.09,0.03 -0.17,0.04 -0.25,0.04 -0.23,0 -0.4,-0.06 -0.54,-0.18 -0.13,-0.12 -0.2,-0.29 -0.2,-0.5 0,-0.14 0.03,-0.26 0.1,-0.36 0.06,-0.1 0.15,-0.18 0.25,-0.24 0.11,-0.05 0.22,-0.08 0.34,-0.08 0.22,0 0.39,0.06 0.53,0.17l-0.2 0.27c-0.09,-0.07 -0.18,-0.1 -0.29,-0.1 -0.09,0 -0.16,0.03 -0.22,0.1 -0.06,0.07 -0.09,0.15 -0.09,0.25 0,0.1 0.03,0.18 0.1,0.25 0.07,0.07 0.15,0.1 0.26,0.1 0.09,0 0.17,-0.02 0.23,-0.07l0.21 0.26z"/>
  <path id="_37" class="fil3 str0" d="M18.05 13.73c0.08,0 0.17,-0.03 0.26,-0.09l0.18 0.31c-0.07,0.04 -0.15,0.07 -0.23,0.1 -0.08,0.02 -0.15,0.04 -0.23,0.04 -0.15,0 -0.29,-0.03 -0.4,-0.09 -0.11,-0.06 -0.2,-0.14 -0.25,-0.25 -0.06,-0.11 -0.09,-0.23 -0.09,-0.36 0,-0.13 0.03,-0.24 0.1,-0.35 0.07,-0.11 0.16,-0.19 0.27,-0.25 0.11,-0.06 0.24,-0.09 0.38,-0.09 0.19,0 0.34,0.05 0.46,0.16 0.12,0.11 0.2,0.26 0.23,0.47l-0.95 0.3c0.06,0.07 0.15,0.11 0.26,0.11zm-0.03 -0.72c-0.09,0 -0.17,0.03 -0.22,0.1 -0.06,0.06 -0.08,0.15 -0.08,0.26l0 0.03 0.57 -0.19c-0.04,-0.12 -0.13,-0.18 -0.26,-0.18z"/>
  <path class="fil4" d="M3.93 10.96l-0.72 0 -0.18 0.43 -0.42 0 0.99 -2.27 0.02 0 0.99 2.27 -0.5 0 -0.17 -0.43zm-0.14 -0.36l-0.21 -0.53 -0.22 0.53 0.43 0z"/>
  <path id="_1_0" class="fil4" d="M6.15 10.09l0 1.3 -0.38 0 -0.03 -0.21c-0.05,0.08 -0.11,0.15 -0.19,0.2 -0.08,0.05 -0.18,0.07 -0.29,0.07 -0.12,0 -0.22,-0.04 -0.3,-0.11 -0.08,-0.07 -0.12,-0.17 -0.12,-0.28l0 -0.97 0.42 0 0 0.82c0.01,0.13 0.06,0.19 0.18,0.19 0.09,0 0.16,-0.04 0.22,-0.13 0.05,-0.09 0.08,-0.2 0.08,-0.34l0 -0.53 0.42 0z"/>
  <polygon id="_2_1" class="fil4" points="7.12,9.52 7.12,10.08 7.43,10.08 7.43,10.41 7.12,10.41 7.12,11.39 6.7,11.39 6.7,10.41 6.5,10.41 6.5,10.08 6.7,10.08 6.7,9.52 "/>
  <path id="_3_2" class="fil4" d="M7.65 10.72c0,-0.13 0.03,-0.25 0.09,-0.36 0.06,-0.11 0.15,-0.19 0.26,-0.25 0.11,-0.06 0.24,-0.09 0.39,-0.09 0.14,0 0.27,0.03 0.38,0.09 0.11,0.06 0.19,0.14 0.25,0.25 0.06,0.1 0.09,0.22 0.09,0.36 0,0.13 -0.03,0.25 -0.09,0.36 -0.06,0.11 -0.14,0.19 -0.25,0.25 -0.11,0.06 -0.24,0.09 -0.39,0.09 -0.14,0 -0.27,-0.03 -0.38,-0.08 -0.11,-0.06 -0.2,-0.14 -0.26,-0.24 -0.06,-0.11 -0.09,-0.23 -0.09,-0.37zm0.42 0c0,0.1 0.03,0.19 0.09,0.26 0.06,0.07 0.13,0.1 0.23,0.1 0.09,0 0.17,-0.03 0.23,-0.1 0.06,-0.07 0.09,-0.15 0.09,-0.26 0,-0.1 -0.03,-0.19 -0.09,-0.26 -0.06,-0.07 -0.14,-0.1 -0.23,-0.1 -0.09,0 -0.17,0.03 -0.23,0.1 -0.06,0.07 -0.09,0.15 -0.09,0.26z"/>
  <path id="_4_3" class="fil4" d="M10.34 10.02c0.12,0 0.23,0.03 0.32,0.09 0.1,0.06 0.17,0.14 0.22,0.25 0.05,0.11 0.08,0.23 0.08,0.38 0,0.14 -0.03,0.27 -0.09,0.37 -0.06,0.1 -0.14,0.18 -0.25,0.24 -0.11,0.05 -0.23,0.08 -0.37,0.08 -0.08,0 -0.15,-0.01 -0.22,-0.04 -0.07,-0.03 -0.13,-0.06 -0.18,-0.11l0 0.74 -0.41 0 0 -1.95 0.36 0 0.04 0.15c0.16,-0.13 0.33,-0.19 0.5,-0.19zm-0.17 1.07c0.1,0 0.19,-0.03 0.26,-0.1 0.07,-0.07 0.11,-0.15 0.11,-0.26 0,-0.11 -0.03,-0.19 -0.1,-0.26 -0.07,-0.07 -0.15,-0.1 -0.24,-0.1 -0.08,0 -0.15,0.02 -0.21,0.05 -0.06,0.03 -0.1,0.08 -0.14,0.15l0 0.32c0.02,0.06 0.06,0.11 0.12,0.15 0.06,0.04 0.12,0.06 0.2,0.06z"/>
  <path id="_5_4" class="fil4" d="M11.7 10.39c0.04,-0.07 0.08,-0.13 0.15,-0.19 0.06,-0.06 0.13,-0.1 0.19,-0.13 0.07,-0.03 0.12,-0.05 0.15,-0.05l-0.02 0.42c-0.01,-0 -0.03,-0 -0.05,-0 -0.08,0 -0.16,0.02 -0.22,0.07 -0.06,0.04 -0.11,0.1 -0.15,0.17 -0.03,0.07 -0.05,0.14 -0.05,0.21l0 0.51 -0.41 0 0 -1.3 0.37 0 0.03 0.3z"/>
  <path id="_6_5" class="fil4" d="M13.82 10.09l0 1.3 -0.38 0 -0.03 -0.21c-0.05,0.08 -0.11,0.15 -0.19,0.2 -0.08,0.05 -0.18,0.07 -0.29,0.07 -0.12,0 -0.22,-0.04 -0.3,-0.11 -0.08,-0.07 -0.12,-0.17 -0.12,-0.28l0 -0.97 0.42 0 0 0.82c0.01,0.13 0.06,0.19 0.18,0.19 0.09,0 0.16,-0.04 0.22,-0.13 0.05,-0.09 0.08,-0.2 0.08,-0.34l0 -0.53 0.42 0z"/>
  <path id="_7_6" class="fil4" d="M14.9 11.07c0.08,0 0.17,-0.03 0.26,-0.09l0.18 0.31c-0.07,0.04 -0.15,0.07 -0.23,0.1 -0.08,0.02 -0.15,0.04 -0.23,0.04 -0.15,0 -0.29,-0.03 -0.4,-0.09 -0.11,-0.06 -0.2,-0.14 -0.25,-0.25 -0.06,-0.11 -0.09,-0.23 -0.09,-0.36 0,-0.13 0.03,-0.24 0.1,-0.35 0.07,-0.11 0.16,-0.19 0.27,-0.25 0.11,-0.06 0.24,-0.09 0.38,-0.09 0.19,0 0.34,0.05 0.46,0.16 0.12,0.11 0.2,0.26 0.23,0.47l-0.95 0.3c0.06,0.07 0.15,0.11 0.26,0.11zm-0.03 -0.72c-0.09,0 -0.17,0.03 -0.22,0.1 -0.06,0.06 -0.08,0.15 -0.08,0.26l0 0.03 0.57 -0.19c-0.04,-0.12 -0.13,-0.18 -0.26,-0.18z"/>
  <path id="_8_7" class="fil4" d="M16.8 10.02c0.11,0 0.22,0.03 0.31,0.08 0.09,0.05 0.17,0.13 0.22,0.24 0.06,0.1 0.08,0.23 0.08,0.37 0,0.14 -0.03,0.27 -0.09,0.38 -0.06,0.11 -0.14,0.19 -0.25,0.25 -0.1,0.06 -0.21,0.09 -0.34,0.09 -0.18,0 -0.32,-0.06 -0.44,-0.17l0 0.13 -0.42 0 0 -2.34 0.41 0 0 1.13c0.06,-0.05 0.13,-0.08 0.21,-0.11 0.08,-0.03 0.18,-0.04 0.28,-0.04zm-0.15 1.05c0.06,0 0.12,-0.02 0.17,-0.05 0.05,-0.03 0.09,-0.08 0.13,-0.13 0.03,-0.06 0.05,-0.12 0.05,-0.19 0,-0.1 -0.03,-0.19 -0.1,-0.26 -0.07,-0.07 -0.15,-0.1 -0.24,-0.1 -0.08,0 -0.15,0.02 -0.21,0.06 -0.06,0.04 -0.1,0.09 -0.13,0.15l0 0.32c0.07,0.13 0.19,0.2 0.34,0.2z"/>
  <path id="_9_8" class="fil4" d="M19.14 10.09l0 1.3 -0.42 0 0 -0.16c-0.12,0.13 -0.27,0.2 -0.43,0.2 -0.19,0 -0.35,-0.06 -0.47,-0.17 -0.12,-0.11 -0.18,-0.28 -0.18,-0.51 0,-0.14 0.03,-0.27 0.09,-0.38 0.06,-0.11 0.14,-0.19 0.23,-0.25 0.1,-0.06 0.2,-0.09 0.31,-0.09 0.11,0 0.21,0.02 0.27,0.05 0.07,0.03 0.13,0.08 0.18,0.15l0.03 -0.13 0.39 0zm-0.73 0.99c0.14,0 0.25,-0.07 0.31,-0.2l0 -0.32c-0.02,-0.06 -0.06,-0.11 -0.12,-0.15 -0.06,-0.04 -0.13,-0.06 -0.21,-0.06 -0.09,0 -0.17,0.03 -0.23,0.1 -0.06,0.07 -0.1,0.15 -0.1,0.26 0,0.07 0.02,0.13 0.05,0.19 0.03,0.06 0.07,0.1 0.13,0.13 0.05,0.03 0.11,0.05 0.17,0.05z"/>
  <path id="_10_9" class="fil4" d="M19.99 11.41c-0.11,0 -0.21,-0.02 -0.3,-0.06 -0.09,-0.04 -0.17,-0.09 -0.23,-0.16l0.17 -0.23c0.11,0.11 0.22,0.16 0.32,0.16 0.05,0 0.1,-0.01 0.13,-0.03 0.03,-0.02 0.05,-0.04 0.05,-0.08 0,-0.04 -0.02,-0.07 -0.06,-0.09 -0.04,-0.02 -0.08,-0.04 -0.13,-0.05 -0.05,-0.01 -0.08,-0.02 -0.09,-0.03 -0.11,-0.04 -0.2,-0.09 -0.25,-0.16 -0.06,-0.07 -0.08,-0.15 -0.08,-0.24 0,-0.07 0.02,-0.14 0.05,-0.2 0.04,-0.07 0.09,-0.12 0.17,-0.16 0.08,-0.04 0.17,-0.06 0.29,-0.06 0.11,0 0.2,0.01 0.27,0.03 0.08,0.02 0.15,0.06 0.22,0.11l-0.16 0.24c-0.04,-0.03 -0.08,-0.06 -0.13,-0.08 -0.05,-0.02 -0.09,-0.03 -0.13,-0.03 -0.05,0 -0.09,0.01 -0.12,0.03 -0.03,0.02 -0.04,0.04 -0.04,0.07 -0,0.04 0.02,0.07 0.05,0.09 0.04,0.02 0.09,0.04 0.17,0.06 0.01,0 0.02,0.01 0.04,0.01 0.01,0 0.03,0.01 0.04,0.01 0.2,0.07 0.31,0.19 0.31,0.37 0,0.08 -0.02,0.16 -0.06,0.23 -0.04,0.07 -0.1,0.13 -0.19,0.17 -0.08,0.04 -0.19,0.06 -0.31,0.06z"/>
  <path id="_11_10" class="fil4" d="M6.03 11.62l0 2.34 -0.42 0 0 -0.14c-0.15,0.11 -0.31,0.17 -0.48,0.17 -0.12,0 -0.23,-0.03 -0.32,-0.09 -0.1,-0.06 -0.17,-0.14 -0.22,-0.25 -0.05,-0.11 -0.08,-0.23 -0.08,-0.38 0,-0.14 0.03,-0.27 0.09,-0.37 0.06,-0.1 0.14,-0.18 0.24,-0.24 0.1,-0.05 0.22,-0.08 0.35,-0.08 0.08,0 0.17,0.01 0.24,0.04 0.08,0.03 0.14,0.07 0.19,0.12l0 -1.14 0.41 0zm-0.76 2.03c0.08,0 0.15,-0.02 0.21,-0.05 0.06,-0.03 0.1,-0.08 0.14,-0.15l0 -0.32c-0.02,-0.06 -0.07,-0.11 -0.13,-0.15 -0.06,-0.04 -0.13,-0.06 -0.22,-0.06 -0.09,0 -0.17,0.03 -0.24,0.1 -0.07,0.07 -0.1,0.15 -0.1,0.26 0,0.07 0.02,0.13 0.05,0.19 0.03,0.06 0.07,0.1 0.13,0.13 0.05,0.03 0.11,0.05 0.17,0.05z"/>
  <path id="_12_11" class="fil4" d="M7.11 13.64c0.08,0 0.17,-0.03 0.26,-0.09l0.18 0.31c-0.07,0.04 -0.15,0.07 -0.23,0.1 -0.08,0.02 -0.15,0.04 -0.23,0.04 -0.15,0 -0.29,-0.03 -0.4,-0.09 -0.11,-0.06 -0.2,-0.14 -0.25,-0.25 -0.06,-0.11 -0.09,-0.23 -0.09,-0.36 0,-0.13 0.03,-0.24 0.1,-0.35 0.07,-0.11 0.16,-0.19 0.27,-0.25 0.11,-0.06 0.24,-0.09 0.38,-0.09 0.19,0 0.34,0.05 0.46,0.16 0.12,0.11 0.2,0.26 0.23,0.47l-0.95 0.3c0.06,0.07 0.15,0.11 0.26,0.11zm-0.03 -0.72c-0.09,0 -0.17,0.03 -0.22,0.1 -0.06,0.06 -0.08,0.15 -0.08,0.26l0 0.03 0.57 -0.19c-0.04,-0.12 -0.13,-0.18 -0.26,-0.18z"/>
  <path id="_13_12" class="fil4" d="M10.46 12.66l0 1.3 -0.42 0 0 -0.16c-0.12,0.13 -0.27,0.2 -0.43,0.2 -0.19,0 -0.35,-0.06 -0.47,-0.17 -0.12,-0.11 -0.18,-0.28 -0.18,-0.51 0,-0.14 0.03,-0.27 0.09,-0.38 0.06,-0.11 0.14,-0.19 0.23,-0.25 0.1,-0.06 0.2,-0.09 0.31,-0.09 0.11,0 0.21,0.02 0.27,0.05 0.07,0.03 0.13,0.08 0.18,0.15l0.03 -0.13 0.39 0zm-0.73 0.99c0.14,0 0.25,-0.07 0.31,-0.2l0 -0.32c-0.02,-0.06 -0.06,-0.11 -0.12,-0.15 -0.06,-0.04 -0.13,-0.06 -0.21,-0.06 -0.09,0 -0.17,0.03 -0.23,0.1 -0.06,0.07 -0.1,0.15 -0.1,0.26 0,0.07 0.02,0.13 0.05,0.19 0.03,0.06 0.07,0.1 0.13,0.13 0.05,0.03 0.11,0.05 0.17,0.05z"/>
  <polygon id="_14_13" class="fil4" points="12.23,12.66 11.49,13.99 11.48,13.99 10.71,12.66 11.2,12.66 11.5,13.28 11.77,12.66 "/>
  <path id="_15_14" class="fil4" d="M13.81 12.66l0 1.3 -0.42 0 0 -0.16c-0.12,0.13 -0.27,0.2 -0.43,0.2 -0.19,0 -0.35,-0.06 -0.47,-0.17 -0.12,-0.11 -0.18,-0.28 -0.18,-0.51 0,-0.14 0.03,-0.27 0.09,-0.38 0.06,-0.11 0.14,-0.19 0.23,-0.25 0.1,-0.06 0.2,-0.09 0.31,-0.09 0.11,0 0.21,0.02 0.27,0.05 0.07,0.03 0.13,0.08 0.18,0.15l0.03 -0.13 0.39 0zm-0.73 0.99c0.14,0 0.25,-0.07 0.31,-0.2l0 -0.32c-0.02,-0.06 -0.06,-0.11 -0.12,-0.15 -0.06,-0.04 -0.13,-0.06 -0.21,-0.06 -0.09,0 -0.17,0.03 -0.23,0.1 -0.06,0.07 -0.1,0.15 -0.1,0.26 0,0.07 0.02,0.13 0.05,0.19 0.03,0.06 0.07,0.1 0.13,0.13 0.05,0.03 0.11,0.05 0.17,0.05z"/>
  <path id="_16_15" class="fil4" d="M15.14 12.6c0.12,0 0.23,0.04 0.31,0.11 0.08,0.07 0.12,0.17 0.13,0.28l0 0.97 -0.42 0 0 -0.82c-0.01,-0.13 -0.07,-0.19 -0.19,-0.19 -0.1,0 -0.17,0.04 -0.23,0.13 -0.06,0.09 -0.09,0.2 -0.09,0.34l0 0.53 -0.42 0 0 -1.3 0.38 0 0.03 0.21c0.05,-0.09 0.11,-0.15 0.2,-0.2 0.08,-0.05 0.18,-0.07 0.3,-0.07z"/>
  <path id="_17_16" class="fil4" d="M17.1 13.85c-0.06,0.05 -0.13,0.08 -0.22,0.11 -0.09,0.03 -0.17,0.04 -0.25,0.04 -0.23,0 -0.4,-0.06 -0.54,-0.18 -0.13,-0.12 -0.2,-0.29 -0.2,-0.5 0,-0.14 0.03,-0.26 0.1,-0.36 0.06,-0.1 0.15,-0.18 0.25,-0.24 0.11,-0.05 0.22,-0.08 0.34,-0.08 0.22,0 0.39,0.06 0.53,0.17l-0.2 0.27c-0.09,-0.07 -0.18,-0.1 -0.29,-0.1 -0.09,0 -0.16,0.03 -0.22,0.1 -0.06,0.07 -0.09,0.15 -0.09,0.25 0,0.1 0.03,0.18 0.1,0.25 0.07,0.07 0.15,0.1 0.26,0.1 0.09,0 0.17,-0.02 0.23,-0.07l0.21 0.26z"/>
  <path id="_18_17" class="fil4" d="M18.07 13.64c0.08,0 0.17,-0.03 0.26,-0.09l0.18 0.31c-0.07,0.04 -0.15,0.07 -0.23,0.1 -0.08,0.02 -0.15,0.04 -0.23,0.04 -0.15,0 -0.29,-0.03 -0.4,-0.09 -0.11,-0.06 -0.2,-0.14 -0.25,-0.25 -0.06,-0.11 -0.09,-0.23 -0.09,-0.36 0,-0.13 0.03,-0.24 0.1,-0.35 0.07,-0.11 0.16,-0.19 0.27,-0.25 0.11,-0.06 0.24,-0.09 0.38,-0.09 0.19,0 0.34,0.05 0.46,0.16 0.12,0.11 0.2,0.26 0.23,0.47l-0.95 0.3c0.06,0.07 0.15,0.11 0.26,0.11zm-0.03 -0.72c-0.09,0 -0.17,0.03 -0.22,0.1 -0.06,0.06 -0.08,0.15 -0.08,0.26l0 0.03 0.57 -0.19c-0.04,-0.12 -0.13,-0.18 -0.26,-0.18z"/>
 </g>
</svg>
