<?xml version="1.0" encoding="UTF-8"?>
<!DOCTYPE svg PUBLIC "-//W3C//DTD SVG 1.1//EN" "http://www.w3.org/Graphics/SVG/1.1/DTD/svg11.dtd">
<!-- Creator: CorelDRAW 2021 (64-Bit) -->
<svg xmlns="http://www.w3.org/2000/svg" xml:space="preserve" width="11.186mm" height="11.186mm" version="1.1" style="shape-rendering:geometricPrecision; text-rendering:geometricPrecision; image-rendering:optimizeQuality; fill-rule:evenodd; clip-rule:evenodd"
viewBox="0 0 23.12 23.12"
 xmlns:xlink="http://www.w3.org/1999/xlink"
 xmlns:xodm="http://www.corel.com/coreldraw/odm/2003">
 <defs>
  <style type="text/css">
   <![CDATA[
    .str0 {stroke:#727375;stroke-width:0.16;stroke-linecap:round;stroke-linejoin:round;stroke-miterlimit:22.9256}
    .fil3 {fill:none;fill-rule:nonzero}
    .fil1 {fill:#FEFEFE}
    .fil0 {fill:#DC8553}
    .fil4 {fill:#FEFEFE;fill-rule:nonzero}
    .fil2 {fill:#727375;fill-rule:nonzero}
   ]]>
  </style>
   <mask id="id0">
  <linearGradient id="id1" gradientUnits="userSpaceOnUse" x1="-5.97" y1="-13.62" x2="16.04" y2="18.34">
   <stop offset="0" style="stop-opacity:1; stop-color:white"/>
   <stop offset="1" style="stop-opacity:0; stop-color:white"/>
  </linearGradient>
    <rect style="fill:url(#id1)" x="0.78" y="0.23" width="19.15" height="19.15"/>
   </mask>
 </defs>
 <g id="Capa_x0020_1">
  <metadata id="CorelCorpID_0Corel-Layer"/>
  <circle class="fil0" cx="11.56" cy="11.56" r="11.56"/>
  <path class="fil1" style="mask:url(#id0)" d="M10.35 0.43c5.17,0 9.37,4.19 9.37,9.37 0,5.17 -4.19,9.37 -9.37,9.37 -5.17,0 -9.37,-4.19 -9.37,-9.37 0,-5.17 4.19,-9.37 9.37,-9.37z"/>
  <path class="fil2" d="M3.22 10.93c-0.06,0.05 -0.14,0.09 -0.26,0.14 -0.12,0.05 -0.25,0.07 -0.39,0.07 -0.23,0 -0.43,-0.05 -0.59,-0.15 -0.17,-0.1 -0.3,-0.23 -0.39,-0.4 -0.09,-0.17 -0.13,-0.35 -0.13,-0.55 0,-0.22 0.04,-0.42 0.13,-0.59 0.09,-0.17 0.21,-0.31 0.37,-0.4 0.16,-0.1 0.35,-0.14 0.56,-0.14 0.13,0 0.26,0.02 0.37,0.05 0.11,0.04 0.21,0.08 0.3,0.13l-0.17 0.41c-0.16,-0.12 -0.32,-0.18 -0.48,-0.18 -0.11,0 -0.21,0.03 -0.31,0.09 -0.1,0.06 -0.17,0.14 -0.23,0.25 -0.06,0.11 -0.09,0.22 -0.09,0.35 0,0.14 0.03,0.26 0.08,0.37 0.05,0.11 0.13,0.19 0.23,0.25 0.1,0.06 0.21,0.09 0.35,0.09 0.11,0 0.2,-0.02 0.29,-0.05 0.09,-0.03 0.15,-0.08 0.2,-0.12l0.18 0.39z"/>
  <path id="_1" class="fil2" d="M3.48 10.44c0,-0.13 0.03,-0.25 0.09,-0.36 0.06,-0.11 0.15,-0.19 0.26,-0.25 0.11,-0.06 0.24,-0.09 0.39,-0.09 0.14,0 0.27,0.03 0.38,0.09 0.11,0.06 0.19,0.14 0.25,0.25 0.06,0.1 0.09,0.22 0.09,0.36 0,0.13 -0.03,0.25 -0.09,0.36 -0.06,0.11 -0.14,0.19 -0.25,0.25 -0.11,0.06 -0.24,0.09 -0.39,0.09 -0.14,0 -0.27,-0.03 -0.38,-0.08 -0.11,-0.06 -0.2,-0.14 -0.26,-0.24 -0.06,-0.11 -0.09,-0.23 -0.09,-0.37zm0.42 0c0,0.1 0.03,0.19 0.09,0.26 0.06,0.07 0.13,0.1 0.23,0.1 0.09,0 0.17,-0.03 0.23,-0.1 0.06,-0.07 0.09,-0.15 0.09,-0.26 0,-0.1 -0.03,-0.19 -0.09,-0.26 -0.06,-0.07 -0.14,-0.1 -0.23,-0.1 -0.09,0 -0.17,0.03 -0.23,0.1 -0.06,0.07 -0.09,0.15 -0.09,0.26z"/>
  <path id="_2" class="fil2" d="M6.18 9.75c0.12,0 0.23,0.04 0.31,0.11 0.08,0.07 0.12,0.17 0.13,0.28l0 0.97 -0.42 0 0 -0.82c-0.01,-0.13 -0.07,-0.19 -0.19,-0.19 -0.1,0 -0.17,0.04 -0.23,0.13 -0.06,0.09 -0.09,0.2 -0.09,0.34l0 0.53 -0.42 0 0 -1.3 0.38 0 0.03 0.21c0.05,-0.09 0.11,-0.15 0.2,-0.2 0.08,-0.05 0.18,-0.07 0.3,-0.07z"/>
  <path id="_3" class="fil2" d="M6.94 10.44c0,-0.13 0.03,-0.25 0.09,-0.36 0.06,-0.11 0.15,-0.19 0.26,-0.25 0.11,-0.06 0.24,-0.09 0.39,-0.09 0.14,0 0.27,0.03 0.38,0.09 0.11,0.06 0.19,0.14 0.25,0.25 0.06,0.1 0.09,0.22 0.09,0.36 0,0.13 -0.03,0.25 -0.09,0.36 -0.06,0.11 -0.14,0.19 -0.25,0.25 -0.11,0.06 -0.24,0.09 -0.39,0.09 -0.14,0 -0.27,-0.03 -0.38,-0.08 -0.11,-0.06 -0.2,-0.14 -0.26,-0.24 -0.06,-0.11 -0.09,-0.23 -0.09,-0.37zm0.42 0c0,0.1 0.03,0.19 0.09,0.26 0.06,0.07 0.13,0.1 0.23,0.1 0.09,0 0.17,-0.03 0.23,-0.1 0.06,-0.07 0.09,-0.15 0.09,-0.26 0,-0.1 -0.03,-0.19 -0.09,-0.26 -0.06,-0.07 -0.14,-0.1 -0.23,-0.1 -0.09,0 -0.17,0.03 -0.23,0.1 -0.06,0.07 -0.09,0.15 -0.09,0.26z"/>
  <path id="_4" class="fil2" d="M9.83 10.99c-0.06,0.05 -0.13,0.08 -0.22,0.11 -0.09,0.03 -0.17,0.04 -0.25,0.04 -0.23,0 -0.4,-0.06 -0.54,-0.18 -0.13,-0.12 -0.2,-0.29 -0.2,-0.5 0,-0.14 0.03,-0.26 0.1,-0.36 0.06,-0.1 0.15,-0.18 0.25,-0.24 0.11,-0.05 0.22,-0.08 0.34,-0.08 0.22,0 0.39,0.06 0.53,0.17l-0.2 0.27c-0.09,-0.07 -0.18,-0.1 -0.29,-0.1 -0.09,0 -0.16,0.03 -0.22,0.1 -0.06,0.07 -0.09,0.15 -0.09,0.25 0,0.1 0.03,0.18 0.1,0.25 0.07,0.07 0.15,0.1 0.26,0.1 0.09,0 0.17,-0.02 0.23,-0.07l0.21 0.26z"/>
  <path id="_5" class="fil2" d="M10.57 9.81l0 1.3 -0.42 0 0 -1.3 0.42 0zm-0.42 -0.46c0,-0.06 0.02,-0.11 0.07,-0.15 0.05,-0.04 0.1,-0.06 0.16,-0.06 0.06,0 0.11,0.02 0.15,0.06 0.05,0.04 0.07,0.09 0.07,0.15 0,0.06 -0.02,0.11 -0.07,0.15 -0.05,0.04 -0.1,0.06 -0.15,0.06 -0.06,0 -0.11,-0.02 -0.16,-0.06 -0.05,-0.04 -0.07,-0.09 -0.07,-0.15z"/>
  <path id="_6" class="fil2" d="M12.71 9.74c0.13,0 0.23,0.04 0.3,0.11 0.08,0.07 0.12,0.17 0.12,0.28l0 0.97 -0.41 0 0 -0.8c-0,-0.07 -0.01,-0.11 -0.03,-0.15 -0.02,-0.03 -0.05,-0.05 -0.1,-0.05 -0.1,0 -0.17,0.05 -0.23,0.14 -0.05,0.09 -0.08,0.2 -0.08,0.33l0 0.53 -0.42 0 0 -0.8c-0,-0.07 -0.02,-0.11 -0.04,-0.15 -0.02,-0.03 -0.06,-0.05 -0.11,-0.05 -0.09,0 -0.17,0.05 -0.22,0.14 -0.05,0.09 -0.08,0.2 -0.08,0.33l0 0.54 -0.42 0 0 -1.3 0.38 0 0.03 0.2c0.11,-0.18 0.26,-0.27 0.47,-0.27 0.11,0 0.19,0.02 0.26,0.06 0.07,0.04 0.12,0.11 0.14,0.19 0.06,-0.08 0.12,-0.14 0.2,-0.18 0.08,-0.05 0.15,-0.07 0.24,-0.07z"/>
  <path id="_7" class="fil2" d="M13.98 9.81l0 1.3 -0.42 0 0 -1.3 0.42 0zm-0.42 -0.46c0,-0.06 0.02,-0.11 0.07,-0.15 0.05,-0.04 0.1,-0.06 0.16,-0.06 0.06,0 0.11,0.02 0.15,0.06 0.05,0.04 0.07,0.09 0.07,0.15 0,0.06 -0.02,0.11 -0.07,0.15 -0.05,0.04 -0.1,0.06 -0.15,0.06 -0.06,0 -0.11,-0.02 -0.16,-0.06 -0.05,-0.04 -0.07,-0.09 -0.07,-0.15z"/>
  <path id="_8" class="fil2" d="M15.05 10.79c0.08,0 0.17,-0.03 0.26,-0.09l0.18 0.31c-0.07,0.04 -0.15,0.07 -0.23,0.1 -0.08,0.02 -0.15,0.04 -0.23,0.04 -0.15,0 -0.29,-0.03 -0.4,-0.09 -0.11,-0.06 -0.2,-0.14 -0.25,-0.25 -0.06,-0.11 -0.09,-0.23 -0.09,-0.36 0,-0.13 0.03,-0.24 0.1,-0.35 0.07,-0.11 0.16,-0.19 0.27,-0.25 0.11,-0.06 0.24,-0.09 0.38,-0.09 0.19,0 0.34,0.05 0.46,0.16 0.12,0.11 0.2,0.26 0.23,0.47l-0.95 0.3c0.06,0.07 0.15,0.11 0.26,0.11zm-0.03 -0.72c-0.09,0 -0.17,0.03 -0.22,0.1 -0.06,0.06 -0.08,0.15 -0.08,0.26l0 0.03 0.57 -0.19c-0.04,-0.12 -0.13,-0.18 -0.26,-0.18z"/>
  <path id="_9" class="fil2" d="M16.95 9.75c0.12,0 0.23,0.04 0.31,0.11 0.08,0.07 0.12,0.17 0.13,0.28l0 0.97 -0.42 0 0 -0.82c-0.01,-0.13 -0.07,-0.19 -0.19,-0.19 -0.1,0 -0.17,0.04 -0.23,0.13 -0.06,0.09 -0.09,0.2 -0.09,0.34l0 0.53 -0.42 0 0 -1.3 0.38 0 0.03 0.21c0.05,-0.09 0.11,-0.15 0.2,-0.2 0.08,-0.05 0.18,-0.07 0.3,-0.07z"/>
  <polygon id="_10" class="fil2" points="18.35,9.24 18.35,9.8 18.66,9.8 18.66,10.13 18.35,10.13 18.35,11.11 17.93,11.11 17.93,10.13 17.73,10.13 17.73,9.8 17.93,9.8 17.93,9.24 "/>
  <path id="_11" class="fil2" d="M18.88 10.44c0,-0.13 0.03,-0.25 0.09,-0.36 0.06,-0.11 0.15,-0.19 0.26,-0.25 0.11,-0.06 0.24,-0.09 0.39,-0.09 0.14,0 0.27,0.03 0.38,0.09 0.11,0.06 0.19,0.14 0.25,0.25 0.06,0.1 0.09,0.22 0.09,0.36 0,0.13 -0.03,0.25 -0.09,0.36 -0.06,0.11 -0.14,0.19 -0.25,0.25 -0.11,0.06 -0.24,0.09 -0.39,0.09 -0.14,0 -0.27,-0.03 -0.38,-0.08 -0.11,-0.06 -0.2,-0.14 -0.26,-0.24 -0.06,-0.11 -0.09,-0.23 -0.09,-0.37zm0.42 0c0,0.1 0.03,0.19 0.09,0.26 0.06,0.07 0.13,0.1 0.23,0.1 0.09,0 0.17,-0.03 0.23,-0.1 0.06,-0.07 0.09,-0.15 0.09,-0.26 0,-0.1 -0.03,-0.19 -0.09,-0.26 -0.06,-0.07 -0.14,-0.1 -0.23,-0.1 -0.09,0 -0.17,0.03 -0.23,0.1 -0.06,0.07 -0.09,0.15 -0.09,0.26z"/>
  <path id="_12" class="fil2" d="M21.09 11.13c-0.11,0 -0.21,-0.02 -0.3,-0.06 -0.09,-0.04 -0.17,-0.09 -0.23,-0.16l0.17 -0.23c0.11,0.11 0.22,0.16 0.32,0.16 0.05,0 0.1,-0.01 0.13,-0.03 0.03,-0.02 0.05,-0.04 0.05,-0.08 0,-0.04 -0.02,-0.07 -0.06,-0.09 -0.04,-0.02 -0.08,-0.04 -0.13,-0.05 -0.05,-0.01 -0.08,-0.02 -0.09,-0.03 -0.11,-0.04 -0.2,-0.09 -0.25,-0.16 -0.06,-0.07 -0.08,-0.15 -0.08,-0.24 0,-0.07 0.02,-0.14 0.05,-0.2 0.04,-0.07 0.09,-0.12 0.17,-0.16 0.08,-0.04 0.17,-0.06 0.29,-0.06 0.11,0 0.2,0.01 0.27,0.03 0.08,0.02 0.15,0.06 0.22,0.11l-0.16 0.24c-0.04,-0.03 -0.08,-0.06 -0.13,-0.08 -0.05,-0.02 -0.09,-0.03 -0.13,-0.03 -0.05,0 -0.09,0.01 -0.12,0.03 -0.03,0.02 -0.04,0.04 -0.04,0.07 -0,0.04 0.02,0.07 0.05,0.09 0.04,0.02 0.09,0.04 0.17,0.06 0.01,0 0.02,0.01 0.04,0.01 0.01,0 0.03,0.01 0.04,0.01 0.2,0.07 0.31,0.19 0.31,0.37 0,0.08 -0.02,0.16 -0.06,0.23 -0.04,0.07 -0.1,0.13 -0.19,0.17 -0.08,0.04 -0.19,0.06 -0.31,0.06z"/>
  <path id="_13" class="fil2" d="M7.63 12.32c0.12,0 0.23,0.03 0.32,0.09 0.1,0.06 0.17,0.14 0.22,0.25 0.05,0.11 0.08,0.23 0.08,0.38 0,0.14 -0.03,0.27 -0.09,0.37 -0.06,0.1 -0.14,0.18 -0.25,0.24 -0.11,0.05 -0.23,0.08 -0.37,0.08 -0.08,0 -0.15,-0.01 -0.22,-0.04 -0.07,-0.03 -0.13,-0.06 -0.18,-0.11l0 0.74 -0.41 0 0 -1.95 0.36 0 0.04 0.15c0.16,-0.13 0.33,-0.19 0.5,-0.19zm-0.17 1.07c0.1,0 0.19,-0.03 0.26,-0.1 0.07,-0.07 0.11,-0.15 0.11,-0.26 0,-0.11 -0.03,-0.19 -0.1,-0.26 -0.07,-0.07 -0.15,-0.1 -0.24,-0.1 -0.08,0 -0.15,0.02 -0.21,0.05 -0.06,0.03 -0.1,0.08 -0.14,0.15l0 0.32c0.02,0.06 0.06,0.11 0.12,0.15 0.06,0.04 0.12,0.06 0.2,0.06z"/>
  <path id="_14" class="fil2" d="M8.99 12.68c0.04,-0.07 0.08,-0.13 0.15,-0.19 0.06,-0.06 0.13,-0.1 0.19,-0.13 0.07,-0.03 0.12,-0.05 0.15,-0.05l-0.02 0.42c-0.01,-0 -0.03,-0 -0.05,-0 -0.08,0 -0.16,0.02 -0.22,0.07 -0.06,0.04 -0.11,0.1 -0.15,0.17 -0.03,0.07 -0.05,0.14 -0.05,0.21l0 0.51 -0.41 0 0 -1.3 0.37 0 0.03 0.3z"/>
  <path id="_15" class="fil2" d="M10.39 13.36c0.08,0 0.17,-0.03 0.26,-0.09l0.18 0.31c-0.07,0.04 -0.15,0.07 -0.23,0.1 -0.08,0.02 -0.15,0.04 -0.23,0.04 -0.15,0 -0.29,-0.03 -0.4,-0.09 -0.11,-0.06 -0.2,-0.14 -0.25,-0.25 -0.06,-0.11 -0.09,-0.23 -0.09,-0.36 0,-0.13 0.03,-0.24 0.1,-0.35 0.07,-0.11 0.16,-0.19 0.27,-0.25 0.11,-0.06 0.24,-0.09 0.38,-0.09 0.19,0 0.34,0.05 0.46,0.16 0.12,0.11 0.2,0.26 0.23,0.47l-0.95 0.3c0.06,0.07 0.15,0.11 0.26,0.11zm-0.03 -0.72c-0.09,0 -0.17,0.03 -0.22,0.1 -0.06,0.06 -0.08,0.15 -0.08,0.26l0 0.03 0.57 -0.19c-0.04,-0.12 -0.13,-0.18 -0.26,-0.18z"/>
  <polygon id="_16" class="fil2" points="12.67,12.39 11.93,13.71 11.92,13.71 11.14,12.39 11.63,12.39 11.94,13 12.2,12.39 "/>
  <path id="_17" class="fil2" d="M13.33 12.39l0 1.3 -0.42 0 0 -1.3 0.42 0zm-0.42 -0.46c0,-0.06 0.02,-0.11 0.07,-0.15 0.05,-0.04 0.1,-0.06 0.16,-0.06 0.06,0 0.11,0.02 0.15,0.06 0.05,0.04 0.07,0.09 0.07,0.15 0,0.06 -0.02,0.11 -0.07,0.15 -0.05,0.04 -0.1,0.06 -0.15,0.06 -0.06,0 -0.11,-0.02 -0.16,-0.06 -0.05,-0.04 -0.07,-0.09 -0.07,-0.15z"/>
  <path id="_18" class="fil2" d="M13.65 13.02c0,-0.13 0.03,-0.25 0.09,-0.36 0.06,-0.11 0.15,-0.19 0.26,-0.25 0.11,-0.06 0.24,-0.09 0.39,-0.09 0.14,0 0.27,0.03 0.38,0.09 0.11,0.06 0.19,0.14 0.25,0.25 0.06,0.1 0.09,0.22 0.09,0.36 0,0.13 -0.03,0.25 -0.09,0.36 -0.06,0.11 -0.14,0.19 -0.25,0.25 -0.11,0.06 -0.24,0.09 -0.39,0.09 -0.14,0 -0.27,-0.03 -0.38,-0.08 -0.11,-0.06 -0.2,-0.14 -0.26,-0.24 -0.06,-0.11 -0.09,-0.23 -0.09,-0.37zm0.42 0c0,0.1 0.03,0.19 0.09,0.26 0.06,0.07 0.13,0.1 0.23,0.1 0.09,0 0.17,-0.03 0.23,-0.1 0.06,-0.07 0.09,-0.15 0.09,-0.26 0,-0.1 -0.03,-0.19 -0.09,-0.26 -0.06,-0.07 -0.14,-0.1 -0.23,-0.1 -0.09,0 -0.17,0.03 -0.23,0.1 -0.06,0.07 -0.09,0.15 -0.09,0.26z"/>
  <path id="_19" class="fil2" d="M15.87 13.71c-0.11,0 -0.21,-0.02 -0.3,-0.06 -0.09,-0.04 -0.17,-0.09 -0.23,-0.16l0.17 -0.23c0.11,0.11 0.22,0.16 0.32,0.16 0.05,0 0.1,-0.01 0.13,-0.03 0.03,-0.02 0.05,-0.04 0.05,-0.08 0,-0.04 -0.02,-0.07 -0.06,-0.09 -0.04,-0.02 -0.08,-0.04 -0.13,-0.05 -0.05,-0.01 -0.08,-0.02 -0.09,-0.03 -0.11,-0.04 -0.2,-0.09 -0.25,-0.16 -0.06,-0.07 -0.08,-0.15 -0.08,-0.24 0,-0.07 0.02,-0.14 0.05,-0.2 0.04,-0.07 0.09,-0.12 0.17,-0.16 0.08,-0.04 0.17,-0.06 0.29,-0.06 0.11,0 0.2,0.01 0.27,0.03 0.08,0.02 0.15,0.06 0.22,0.11l-0.16 0.24c-0.04,-0.03 -0.08,-0.06 -0.13,-0.08 -0.05,-0.02 -0.09,-0.03 -0.13,-0.03 -0.05,0 -0.09,0.01 -0.12,0.03 -0.03,0.02 -0.04,0.04 -0.04,0.07 -0,0.04 0.02,0.07 0.05,0.09 0.04,0.02 0.09,0.04 0.17,0.06 0.01,0 0.02,0.01 0.04,0.01 0.01,0 0.03,0.01 0.04,0.01 0.2,0.07 0.31,0.19 0.31,0.37 0,0.08 -0.02,0.16 -0.06,0.23 -0.04,0.07 -0.1,0.13 -0.19,0.17 -0.08,0.04 -0.19,0.06 -0.31,0.06z"/>
  <path id="_20" class="fil3 str0" d="M3.22 10.93c-0.06,0.05 -0.14,0.09 -0.26,0.14 -0.12,0.05 -0.25,0.07 -0.39,0.07 -0.23,0 -0.43,-0.05 -0.59,-0.15 -0.17,-0.1 -0.3,-0.23 -0.39,-0.4 -0.09,-0.17 -0.13,-0.35 -0.13,-0.55 0,-0.22 0.04,-0.42 0.13,-0.59 0.09,-0.17 0.21,-0.31 0.37,-0.4 0.16,-0.1 0.35,-0.14 0.56,-0.14 0.13,0 0.26,0.02 0.37,0.05 0.11,0.04 0.21,0.08 0.3,0.13l-0.17 0.41c-0.16,-0.12 -0.32,-0.18 -0.48,-0.18 -0.11,0 -0.21,0.03 -0.31,0.09 -0.1,0.06 -0.17,0.14 -0.23,0.25 -0.06,0.11 -0.09,0.22 -0.09,0.35 0,0.14 0.03,0.26 0.08,0.37 0.05,0.11 0.13,0.19 0.23,0.25 0.1,0.06 0.21,0.09 0.35,0.09 0.11,0 0.2,-0.02 0.29,-0.05 0.09,-0.03 0.15,-0.08 0.2,-0.12l0.18 0.39z"/>
  <path id="_21" class="fil3 str0" d="M3.48 10.44c0,-0.13 0.03,-0.25 0.09,-0.36 0.06,-0.11 0.15,-0.19 0.26,-0.25 0.11,-0.06 0.24,-0.09 0.39,-0.09 0.14,0 0.27,0.03 0.38,0.09 0.11,0.06 0.19,0.14 0.25,0.25 0.06,0.1 0.09,0.22 0.09,0.36 0,0.13 -0.03,0.25 -0.09,0.36 -0.06,0.11 -0.14,0.19 -0.25,0.25 -0.11,0.06 -0.24,0.09 -0.39,0.09 -0.14,0 -0.27,-0.03 -0.38,-0.08 -0.11,-0.06 -0.2,-0.14 -0.26,-0.24 -0.06,-0.11 -0.09,-0.23 -0.09,-0.37zm0.42 0c0,0.1 0.03,0.19 0.09,0.26 0.06,0.07 0.13,0.1 0.23,0.1 0.09,0 0.17,-0.03 0.23,-0.1 0.06,-0.07 0.09,-0.15 0.09,-0.26 0,-0.1 -0.03,-0.19 -0.09,-0.26 -0.06,-0.07 -0.14,-0.1 -0.23,-0.1 -0.09,0 -0.17,0.03 -0.23,0.1 -0.06,0.07 -0.09,0.15 -0.09,0.26z"/>
  <path id="_22" class="fil3 str0" d="M6.18 9.75c0.12,0 0.23,0.04 0.31,0.11 0.08,0.07 0.12,0.17 0.13,0.28l0 0.97 -0.42 0 0 -0.82c-0.01,-0.13 -0.07,-0.19 -0.19,-0.19 -0.1,0 -0.17,0.04 -0.23,0.13 -0.06,0.09 -0.09,0.2 -0.09,0.34l0 0.53 -0.42 0 0 -1.3 0.38 0 0.03 0.21c0.05,-0.09 0.11,-0.15 0.2,-0.2 0.08,-0.05 0.18,-0.07 0.3,-0.07z"/>
  <path id="_23" class="fil3 str0" d="M6.94 10.44c0,-0.13 0.03,-0.25 0.09,-0.36 0.06,-0.11 0.15,-0.19 0.26,-0.25 0.11,-0.06 0.24,-0.09 0.39,-0.09 0.14,0 0.27,0.03 0.38,0.09 0.11,0.06 0.19,0.14 0.25,0.25 0.06,0.1 0.09,0.22 0.09,0.36 0,0.13 -0.03,0.25 -0.09,0.36 -0.06,0.11 -0.14,0.19 -0.25,0.25 -0.11,0.06 -0.24,0.09 -0.39,0.09 -0.14,0 -0.27,-0.03 -0.38,-0.08 -0.11,-0.06 -0.2,-0.14 -0.26,-0.24 -0.06,-0.11 -0.09,-0.23 -0.09,-0.37zm0.42 0c0,0.1 0.03,0.19 0.09,0.26 0.06,0.07 0.13,0.1 0.23,0.1 0.09,0 0.17,-0.03 0.23,-0.1 0.06,-0.07 0.09,-0.15 0.09,-0.26 0,-0.1 -0.03,-0.19 -0.09,-0.26 -0.06,-0.07 -0.14,-0.1 -0.23,-0.1 -0.09,0 -0.17,0.03 -0.23,0.1 -0.06,0.07 -0.09,0.15 -0.09,0.26z"/>
  <path id="_24" class="fil3 str0" d="M9.83 10.99c-0.06,0.05 -0.13,0.08 -0.22,0.11 -0.09,0.03 -0.17,0.04 -0.25,0.04 -0.23,0 -0.4,-0.06 -0.54,-0.18 -0.13,-0.12 -0.2,-0.29 -0.2,-0.5 0,-0.14 0.03,-0.26 0.1,-0.36 0.06,-0.1 0.15,-0.18 0.25,-0.24 0.11,-0.05 0.22,-0.08 0.34,-0.08 0.22,0 0.39,0.06 0.53,0.17l-0.2 0.27c-0.09,-0.07 -0.18,-0.1 -0.29,-0.1 -0.09,0 -0.16,0.03 -0.22,0.1 -0.06,0.07 -0.09,0.15 -0.09,0.25 0,0.1 0.03,0.18 0.1,0.25 0.07,0.07 0.15,0.1 0.26,0.1 0.09,0 0.17,-0.02 0.23,-0.07l0.21 0.26z"/>
  <path id="_25" class="fil3 str0" d="M10.57 9.81l0 1.3 -0.42 0 0 -1.3 0.42 0zm-0.42 -0.46c0,-0.06 0.02,-0.11 0.07,-0.15 0.05,-0.04 0.1,-0.06 0.16,-0.06 0.06,0 0.11,0.02 0.15,0.06 0.05,0.04 0.07,0.09 0.07,0.15 0,0.06 -0.02,0.11 -0.07,0.15 -0.05,0.04 -0.1,0.06 -0.15,0.06 -0.06,0 -0.11,-0.02 -0.16,-0.06 -0.05,-0.04 -0.07,-0.09 -0.07,-0.15z"/>
  <path id="_26" class="fil3 str0" d="M12.71 9.74c0.13,0 0.23,0.04 0.3,0.11 0.08,0.07 0.12,0.17 0.12,0.28l0 0.97 -0.41 0 0 -0.8c-0,-0.07 -0.01,-0.11 -0.03,-0.15 -0.02,-0.03 -0.05,-0.05 -0.1,-0.05 -0.1,0 -0.17,0.05 -0.23,0.14 -0.05,0.09 -0.08,0.2 -0.08,0.33l0 0.53 -0.42 0 0 -0.8c-0,-0.07 -0.02,-0.11 -0.04,-0.15 -0.02,-0.03 -0.06,-0.05 -0.11,-0.05 -0.09,0 -0.17,0.05 -0.22,0.14 -0.05,0.09 -0.08,0.2 -0.08,0.33l0 0.54 -0.42 0 0 -1.3 0.38 0 0.03 0.2c0.11,-0.18 0.26,-0.27 0.47,-0.27 0.11,0 0.19,0.02 0.26,0.06 0.07,0.04 0.12,0.11 0.14,0.19 0.06,-0.08 0.12,-0.14 0.2,-0.18 0.08,-0.05 0.15,-0.07 0.24,-0.07z"/>
  <path id="_27" class="fil3 str0" d="M13.98 9.81l0 1.3 -0.42 0 0 -1.3 0.42 0zm-0.42 -0.46c0,-0.06 0.02,-0.11 0.07,-0.15 0.05,-0.04 0.1,-0.06 0.16,-0.06 0.06,0 0.11,0.02 0.15,0.06 0.05,0.04 0.07,0.09 0.07,0.15 0,0.06 -0.02,0.11 -0.07,0.15 -0.05,0.04 -0.1,0.06 -0.15,0.06 -0.06,0 -0.11,-0.02 -0.16,-0.06 -0.05,-0.04 -0.07,-0.09 -0.07,-0.15z"/>
  <path id="_28" class="fil3 str0" d="M15.05 10.79c0.08,0 0.17,-0.03 0.26,-0.09l0.18 0.31c-0.07,0.04 -0.15,0.07 -0.23,0.1 -0.08,0.02 -0.15,0.04 -0.23,0.04 -0.15,0 -0.29,-0.03 -0.4,-0.09 -0.11,-0.06 -0.2,-0.14 -0.25,-0.25 -0.06,-0.11 -0.09,-0.23 -0.09,-0.36 0,-0.13 0.03,-0.24 0.1,-0.35 0.07,-0.11 0.16,-0.19 0.27,-0.25 0.11,-0.06 0.24,-0.09 0.38,-0.09 0.19,0 0.34,0.05 0.46,0.16 0.12,0.11 0.2,0.26 0.23,0.47l-0.95 0.3c0.06,0.07 0.15,0.11 0.26,0.11zm-0.03 -0.72c-0.09,0 -0.17,0.03 -0.22,0.1 -0.06,0.06 -0.08,0.15 -0.08,0.26l0 0.03 0.57 -0.19c-0.04,-0.12 -0.13,-0.18 -0.26,-0.18z"/>
  <path id="_29" class="fil3 str0" d="M16.95 9.75c0.12,0 0.23,0.04 0.31,0.11 0.08,0.07 0.12,0.17 0.13,0.28l0 0.97 -0.42 0 0 -0.82c-0.01,-0.13 -0.07,-0.19 -0.19,-0.19 -0.1,0 -0.17,0.04 -0.23,0.13 -0.06,0.09 -0.09,0.2 -0.09,0.34l0 0.53 -0.42 0 0 -1.3 0.38 0 0.03 0.21c0.05,-0.09 0.11,-0.15 0.2,-0.2 0.08,-0.05 0.18,-0.07 0.3,-0.07z"/>
  <polygon id="_30" class="fil3 str0" points="18.35,9.24 18.35,9.8 18.66,9.8 18.66,10.13 18.35,10.13 18.35,11.11 17.93,11.11 17.93,10.13 17.73,10.13 17.73,9.8 17.93,9.8 17.93,9.24 "/>
  <path id="_31" class="fil3 str0" d="M18.88 10.44c0,-0.13 0.03,-0.25 0.09,-0.36 0.06,-0.11 0.15,-0.19 0.26,-0.25 0.11,-0.06 0.24,-0.09 0.39,-0.09 0.14,0 0.27,0.03 0.38,0.09 0.11,0.06 0.19,0.14 0.25,0.25 0.06,0.1 0.09,0.22 0.09,0.36 0,0.13 -0.03,0.25 -0.09,0.36 -0.06,0.11 -0.14,0.19 -0.25,0.25 -0.11,0.06 -0.24,0.09 -0.39,0.09 -0.14,0 -0.27,-0.03 -0.38,-0.08 -0.11,-0.06 -0.2,-0.14 -0.26,-0.24 -0.06,-0.11 -0.09,-0.23 -0.09,-0.37zm0.42 0c0,0.1 0.03,0.19 0.09,0.26 0.06,0.07 0.13,0.1 0.23,0.1 0.09,0 0.17,-0.03 0.23,-0.1 0.06,-0.07 0.09,-0.15 0.09,-0.26 0,-0.1 -0.03,-0.19 -0.09,-0.26 -0.06,-0.07 -0.14,-0.1 -0.23,-0.1 -0.09,0 -0.17,0.03 -0.23,0.1 -0.06,0.07 -0.09,0.15 -0.09,0.26z"/>
  <path id="_32" class="fil3 str0" d="M21.09 11.13c-0.11,0 -0.21,-0.02 -0.3,-0.06 -0.09,-0.04 -0.17,-0.09 -0.23,-0.16l0.17 -0.23c0.11,0.11 0.22,0.16 0.32,0.16 0.05,0 0.1,-0.01 0.13,-0.03 0.03,-0.02 0.05,-0.04 0.05,-0.08 0,-0.04 -0.02,-0.07 -0.06,-0.09 -0.04,-0.02 -0.08,-0.04 -0.13,-0.05 -0.05,-0.01 -0.08,-0.02 -0.09,-0.03 -0.11,-0.04 -0.2,-0.09 -0.25,-0.16 -0.06,-0.07 -0.08,-0.15 -0.08,-0.24 0,-0.07 0.02,-0.14 0.05,-0.2 0.04,-0.07 0.09,-0.12 0.17,-0.16 0.08,-0.04 0.17,-0.06 0.29,-0.06 0.11,0 0.2,0.01 0.27,0.03 0.08,0.02 0.15,0.06 0.22,0.11l-0.16 0.24c-0.04,-0.03 -0.08,-0.06 -0.13,-0.08 -0.05,-0.02 -0.09,-0.03 -0.13,-0.03 -0.05,0 -0.09,0.01 -0.12,0.03 -0.03,0.02 -0.04,0.04 -0.04,0.07 -0,0.04 0.02,0.07 0.05,0.09 0.04,0.02 0.09,0.04 0.17,0.06 0.01,0 0.02,0.01 0.04,0.01 0.01,0 0.03,0.01 0.04,0.01 0.2,0.07 0.31,0.19 0.31,0.37 0,0.08 -0.02,0.16 -0.06,0.23 -0.04,0.07 -0.1,0.13 -0.19,0.17 -0.08,0.04 -0.19,0.06 -0.31,0.06z"/>
  <path id="_33" class="fil3 str0" d="M7.63 12.32c0.12,0 0.23,0.03 0.32,0.09 0.1,0.06 0.17,0.14 0.22,0.25 0.05,0.11 0.08,0.23 0.08,0.38 0,0.14 -0.03,0.27 -0.09,0.37 -0.06,0.1 -0.14,0.18 -0.25,0.24 -0.11,0.05 -0.23,0.08 -0.37,0.08 -0.08,0 -0.15,-0.01 -0.22,-0.04 -0.07,-0.03 -0.13,-0.06 -0.18,-0.11l0 0.74 -0.41 0 0 -1.95 0.36 0 0.04 0.15c0.16,-0.13 0.33,-0.19 0.5,-0.19zm-0.17 1.07c0.1,0 0.19,-0.03 0.26,-0.1 0.07,-0.07 0.11,-0.15 0.11,-0.26 0,-0.11 -0.03,-0.19 -0.1,-0.26 -0.07,-0.07 -0.15,-0.1 -0.24,-0.1 -0.08,0 -0.15,0.02 -0.21,0.05 -0.06,0.03 -0.1,0.08 -0.14,0.15l0 0.32c0.02,0.06 0.06,0.11 0.12,0.15 0.06,0.04 0.12,0.06 0.2,0.06z"/>
  <path id="_34" class="fil3 str0" d="M8.99 12.68c0.04,-0.07 0.08,-0.13 0.15,-0.19 0.06,-0.06 0.13,-0.1 0.19,-0.13 0.07,-0.03 0.12,-0.05 0.15,-0.05l-0.02 0.42c-0.01,-0 -0.03,-0 -0.05,-0 -0.08,0 -0.16,0.02 -0.22,0.07 -0.06,0.04 -0.11,0.1 -0.15,0.17 -0.03,0.07 -0.05,0.14 -0.05,0.21l0 0.51 -0.41 0 0 -1.3 0.37 0 0.03 0.3z"/>
  <path id="_35" class="fil3 str0" d="M10.39 13.36c0.08,0 0.17,-0.03 0.26,-0.09l0.18 0.31c-0.07,0.04 -0.15,0.07 -0.23,0.1 -0.08,0.02 -0.15,0.04 -0.23,0.04 -0.15,0 -0.29,-0.03 -0.4,-0.09 -0.11,-0.06 -0.2,-0.14 -0.25,-0.25 -0.06,-0.11 -0.09,-0.23 -0.09,-0.36 0,-0.13 0.03,-0.24 0.1,-0.35 0.07,-0.11 0.16,-0.19 0.27,-0.25 0.11,-0.06 0.24,-0.09 0.38,-0.09 0.19,0 0.34,0.05 0.46,0.16 0.12,0.11 0.2,0.26 0.23,0.47l-0.95 0.3c0.06,0.07 0.15,0.11 0.26,0.11zm-0.03 -0.72c-0.09,0 -0.17,0.03 -0.22,0.1 -0.06,0.06 -0.08,0.15 -0.08,0.26l0 0.03 0.57 -0.19c-0.04,-0.12 -0.13,-0.18 -0.26,-0.18z"/>
  <polygon id="_36" class="fil3 str0" points="12.67,12.39 11.93,13.71 11.92,13.71 11.14,12.39 11.63,12.39 11.94,13 12.2,12.39 "/>
  <path id="_37" class="fil3 str0" d="M13.33 12.39l0 1.3 -0.42 0 0 -1.3 0.42 0zm-0.42 -0.46c0,-0.06 0.02,-0.11 0.07,-0.15 0.05,-0.04 0.1,-0.06 0.16,-0.06 0.06,0 0.11,0.02 0.15,0.06 0.05,0.04 0.07,0.09 0.07,0.15 0,0.06 -0.02,0.11 -0.07,0.15 -0.05,0.04 -0.1,0.06 -0.15,0.06 -0.06,0 -0.11,-0.02 -0.16,-0.06 -0.05,-0.04 -0.07,-0.09 -0.07,-0.15z"/>
  <path id="_38" class="fil3 str0" d="M13.65 13.02c0,-0.13 0.03,-0.25 0.09,-0.36 0.06,-0.11 0.15,-0.19 0.26,-0.25 0.11,-0.06 0.24,-0.09 0.39,-0.09 0.14,0 0.27,0.03 0.38,0.09 0.11,0.06 0.19,0.14 0.25,0.25 0.06,0.1 0.09,0.22 0.09,0.36 0,0.13 -0.03,0.25 -0.09,0.36 -0.06,0.11 -0.14,0.19 -0.25,0.25 -0.11,0.06 -0.24,0.09 -0.39,0.09 -0.14,0 -0.27,-0.03 -0.38,-0.08 -0.11,-0.06 -0.2,-0.14 -0.26,-0.24 -0.06,-0.11 -0.09,-0.23 -0.09,-0.37zm0.42 0c0,0.1 0.03,0.19 0.09,0.26 0.06,0.07 0.13,0.1 0.23,0.1 0.09,0 0.17,-0.03 0.23,-0.1 0.06,-0.07 0.09,-0.15 0.09,-0.26 0,-0.1 -0.03,-0.19 -0.09,-0.26 -0.06,-0.07 -0.14,-0.1 -0.23,-0.1 -0.09,0 -0.17,0.03 -0.23,0.1 -0.06,0.07 -0.09,0.15 -0.09,0.26z"/>
  <path id="_39" class="fil3 str0" d="M15.87 13.71c-0.11,0 -0.21,-0.02 -0.3,-0.06 -0.09,-0.04 -0.17,-0.09 -0.23,-0.16l0.17 -0.23c0.11,0.11 0.22,0.16 0.32,0.16 0.05,0 0.1,-0.01 0.13,-0.03 0.03,-0.02 0.05,-0.04 0.05,-0.08 0,-0.04 -0.02,-0.07 -0.06,-0.09 -0.04,-0.02 -0.08,-0.04 -0.13,-0.05 -0.05,-0.01 -0.08,-0.02 -0.09,-0.03 -0.11,-0.04 -0.2,-0.09 -0.25,-0.16 -0.06,-0.07 -0.08,-0.15 -0.08,-0.24 0,-0.07 0.02,-0.14 0.05,-0.2 0.04,-0.07 0.09,-0.12 0.17,-0.16 0.08,-0.04 0.17,-0.06 0.29,-0.06 0.11,0 0.2,0.01 0.27,0.03 0.08,0.02 0.15,0.06 0.22,0.11l-0.16 0.24c-0.04,-0.03 -0.08,-0.06 -0.13,-0.08 -0.05,-0.02 -0.09,-0.03 -0.13,-0.03 -0.05,0 -0.09,0.01 -0.12,0.03 -0.03,0.02 -0.04,0.04 -0.04,0.07 -0,0.04 0.02,0.07 0.05,0.09 0.04,0.02 0.09,0.04 0.17,0.06 0.01,0 0.02,0.01 0.04,0.01 0.01,0 0.03,0.01 0.04,0.01 0.2,0.07 0.31,0.19 0.31,0.37 0,0.08 -0.02,0.16 -0.06,0.23 -0.04,0.07 -0.1,0.13 -0.19,0.17 -0.08,0.04 -0.19,0.06 -0.31,0.06z"/>
  <path class="fil4" d="M3.24 10.84c-0.06,0.05 -0.14,0.09 -0.26,0.14 -0.12,0.05 -0.25,0.07 -0.39,0.07 -0.23,0 -0.43,-0.05 -0.59,-0.15 -0.17,-0.1 -0.3,-0.23 -0.39,-0.4 -0.09,-0.17 -0.13,-0.35 -0.13,-0.55 0,-0.22 0.04,-0.42 0.13,-0.59 0.09,-0.17 0.21,-0.31 0.37,-0.4 0.16,-0.1 0.35,-0.14 0.56,-0.14 0.13,0 0.26,0.02 0.37,0.05 0.11,0.04 0.21,0.08 0.3,0.13l-0.17 0.41c-0.16,-0.12 -0.32,-0.18 -0.48,-0.18 -0.11,0 -0.21,0.03 -0.31,0.09 -0.1,0.06 -0.17,0.14 -0.23,0.25 -0.06,0.11 -0.09,0.22 -0.09,0.35 0,0.14 0.03,0.26 0.08,0.37 0.05,0.11 0.13,0.19 0.23,0.25 0.1,0.06 0.21,0.09 0.35,0.09 0.11,0 0.2,-0.02 0.29,-0.05 0.08,-0.03 0.15,-0.08 0.2,-0.12l0.18 0.39z"/>
  <path id="_1_0" class="fil4" d="M3.5 10.36c0,-0.13 0.03,-0.25 0.09,-0.36 0.06,-0.1 0.15,-0.19 0.26,-0.25 0.11,-0.06 0.24,-0.09 0.39,-0.09 0.14,0 0.27,0.03 0.38,0.09 0.11,0.06 0.19,0.14 0.25,0.25 0.06,0.11 0.09,0.22 0.09,0.36 0,0.13 -0.03,0.25 -0.09,0.36 -0.06,0.11 -0.14,0.19 -0.25,0.25 -0.11,0.06 -0.24,0.09 -0.39,0.09 -0.14,0 -0.27,-0.03 -0.38,-0.08 -0.11,-0.06 -0.2,-0.14 -0.26,-0.24 -0.06,-0.11 -0.09,-0.23 -0.09,-0.37zm0.42 0c0,0.1 0.03,0.19 0.09,0.26 0.06,0.07 0.13,0.1 0.23,0.1 0.09,0 0.17,-0.03 0.23,-0.1 0.06,-0.07 0.09,-0.15 0.09,-0.26 0,-0.11 -0.03,-0.19 -0.09,-0.26 -0.06,-0.07 -0.13,-0.1 -0.23,-0.1 -0.09,0 -0.17,0.03 -0.23,0.1 -0.06,0.07 -0.09,0.15 -0.09,0.26z"/>
  <path id="_2_1" class="fil4" d="M6.2 9.67c0.12,0 0.23,0.04 0.31,0.11 0.08,0.07 0.12,0.17 0.13,0.28l0 0.97 -0.42 0 0 -0.82c-0.01,-0.13 -0.07,-0.19 -0.19,-0.19 -0.09,0 -0.17,0.04 -0.23,0.13 -0.06,0.09 -0.09,0.2 -0.09,0.34l0 0.53 -0.42 0 0 -1.3 0.38 0 0.03 0.21c0.05,-0.09 0.11,-0.15 0.2,-0.2 0.08,-0.05 0.18,-0.07 0.3,-0.07z"/>
  <path id="_3_2" class="fil4" d="M6.96 10.36c0,-0.13 0.03,-0.25 0.09,-0.36 0.06,-0.1 0.15,-0.19 0.26,-0.25 0.11,-0.06 0.24,-0.09 0.39,-0.09 0.14,0 0.27,0.03 0.38,0.09 0.11,0.06 0.19,0.14 0.25,0.25 0.06,0.11 0.09,0.22 0.09,0.36 0,0.13 -0.03,0.25 -0.09,0.36 -0.06,0.11 -0.14,0.19 -0.25,0.25 -0.11,0.06 -0.24,0.09 -0.39,0.09 -0.14,0 -0.27,-0.03 -0.38,-0.08 -0.11,-0.06 -0.2,-0.14 -0.26,-0.24 -0.06,-0.11 -0.09,-0.23 -0.09,-0.37zm0.42 0c0,0.1 0.03,0.19 0.09,0.26 0.06,0.07 0.13,0.1 0.23,0.1 0.09,0 0.17,-0.03 0.23,-0.1 0.06,-0.07 0.09,-0.15 0.09,-0.26 0,-0.11 -0.03,-0.19 -0.09,-0.26 -0.06,-0.07 -0.13,-0.1 -0.23,-0.1 -0.09,0 -0.17,0.03 -0.23,0.1 -0.06,0.07 -0.09,0.15 -0.09,0.26z"/>
  <path id="_4_3" class="fil4" d="M9.86 10.91c-0.06,0.05 -0.13,0.08 -0.22,0.11 -0.09,0.03 -0.17,0.04 -0.25,0.04 -0.23,0 -0.4,-0.06 -0.54,-0.18 -0.13,-0.12 -0.2,-0.29 -0.2,-0.5 0,-0.14 0.03,-0.26 0.1,-0.36 0.06,-0.1 0.15,-0.18 0.25,-0.24 0.11,-0.05 0.22,-0.08 0.34,-0.08 0.22,0 0.39,0.06 0.53,0.17l-0.2 0.27c-0.08,-0.07 -0.18,-0.1 -0.28,-0.1 -0.09,0 -0.16,0.03 -0.22,0.1 -0.06,0.07 -0.09,0.15 -0.09,0.25 0,0.1 0.03,0.18 0.1,0.25 0.07,0.07 0.15,0.1 0.26,0.1 0.09,0 0.17,-0.02 0.23,-0.07l0.21 0.26z"/>
  <path id="_5_4" class="fil4" d="M10.6 9.73l0 1.3 -0.42 0 0 -1.3 0.42 0zm-0.42 -0.46c0,-0.06 0.02,-0.11 0.07,-0.15 0.05,-0.04 0.1,-0.06 0.16,-0.06 0.06,0 0.11,0.02 0.15,0.06 0.05,0.04 0.07,0.09 0.07,0.15 0,0.06 -0.02,0.11 -0.07,0.15 -0.05,0.04 -0.1,0.06 -0.15,0.06 -0.06,0 -0.11,-0.02 -0.16,-0.06 -0.05,-0.04 -0.07,-0.09 -0.07,-0.15z"/>
  <path id="_6_5" class="fil4" d="M12.73 9.66c0.13,0 0.23,0.04 0.3,0.11 0.08,0.07 0.12,0.17 0.12,0.28l0 0.97 -0.41 0 0 -0.8c-0,-0.07 -0.01,-0.11 -0.03,-0.15 -0.02,-0.03 -0.05,-0.05 -0.1,-0.05 -0.1,0 -0.17,0.05 -0.23,0.14 -0.05,0.09 -0.08,0.2 -0.08,0.33l0 0.53 -0.42 0 0 -0.8c-0,-0.07 -0.02,-0.11 -0.04,-0.15 -0.02,-0.03 -0.06,-0.05 -0.11,-0.05 -0.09,0 -0.17,0.05 -0.22,0.14 -0.05,0.09 -0.08,0.2 -0.08,0.33l0 0.54 -0.42 0 0 -1.3 0.38 0 0.03 0.2c0.11,-0.18 0.26,-0.27 0.47,-0.27 0.11,0 0.19,0.02 0.26,0.06 0.07,0.04 0.12,0.11 0.14,0.19 0.06,-0.08 0.12,-0.14 0.2,-0.18 0.08,-0.05 0.15,-0.07 0.24,-0.07z"/>
  <path id="_7_6" class="fil4" d="M14 9.73l0 1.3 -0.42 0 0 -1.3 0.42 0zm-0.42 -0.46c0,-0.06 0.02,-0.11 0.07,-0.15 0.05,-0.04 0.1,-0.06 0.16,-0.06 0.06,0 0.11,0.02 0.15,0.06 0.05,0.04 0.07,0.09 0.07,0.15 0,0.06 -0.02,0.11 -0.07,0.15 -0.05,0.04 -0.1,0.06 -0.15,0.06 -0.06,0 -0.11,-0.02 -0.16,-0.06 -0.05,-0.04 -0.07,-0.09 -0.07,-0.15z"/>
  <path id="_8_7" class="fil4" d="M15.07 10.71c0.08,0 0.17,-0.03 0.26,-0.09l0.18 0.31c-0.07,0.04 -0.15,0.07 -0.23,0.1 -0.08,0.02 -0.15,0.04 -0.23,0.04 -0.15,0 -0.29,-0.03 -0.4,-0.09 -0.11,-0.06 -0.2,-0.14 -0.25,-0.25 -0.06,-0.11 -0.09,-0.23 -0.09,-0.36 0,-0.13 0.03,-0.24 0.1,-0.35 0.07,-0.11 0.16,-0.19 0.27,-0.25 0.11,-0.06 0.24,-0.09 0.38,-0.09 0.19,0 0.34,0.05 0.46,0.16 0.12,0.11 0.2,0.26 0.23,0.47l-0.95 0.3c0.06,0.07 0.15,0.11 0.26,0.11zm-0.03 -0.72c-0.09,0 -0.17,0.03 -0.22,0.1 -0.06,0.06 -0.08,0.15 -0.08,0.26l0 0.03 0.57 -0.19c-0.04,-0.12 -0.13,-0.18 -0.26,-0.18z"/>
  <path id="_9_8" class="fil4" d="M16.97 9.67c0.12,0 0.23,0.04 0.31,0.11 0.08,0.07 0.12,0.17 0.13,0.28l0 0.97 -0.42 0 0 -0.82c-0.01,-0.13 -0.07,-0.19 -0.19,-0.19 -0.09,0 -0.17,0.04 -0.23,0.13 -0.06,0.09 -0.09,0.2 -0.09,0.34l0 0.53 -0.42 0 0 -1.3 0.38 0 0.03 0.21c0.05,-0.09 0.11,-0.15 0.2,-0.2 0.08,-0.05 0.18,-0.07 0.3,-0.07z"/>
  <polygon id="_10_9" class="fil4" points="18.37,9.16 18.37,9.72 18.68,9.72 18.68,10.05 18.37,10.05 18.37,11.03 17.95,11.03 17.95,10.05 17.75,10.05 17.75,9.72 17.95,9.72 17.95,9.16 "/>
  <path id="_11_10" class="fil4" d="M18.9 10.36c0,-0.13 0.03,-0.25 0.09,-0.36 0.06,-0.1 0.15,-0.19 0.26,-0.25 0.11,-0.06 0.24,-0.09 0.39,-0.09 0.14,0 0.27,0.03 0.38,0.09 0.11,0.06 0.19,0.14 0.25,0.25 0.06,0.11 0.09,0.22 0.09,0.36 0,0.13 -0.03,0.25 -0.09,0.36 -0.06,0.11 -0.14,0.19 -0.25,0.25 -0.11,0.06 -0.24,0.09 -0.39,0.09 -0.14,0 -0.27,-0.03 -0.38,-0.08 -0.11,-0.06 -0.2,-0.14 -0.26,-0.24 -0.06,-0.11 -0.09,-0.23 -0.09,-0.37zm0.42 0c0,0.1 0.03,0.19 0.09,0.26 0.06,0.07 0.13,0.1 0.23,0.1 0.09,0 0.17,-0.03 0.23,-0.1 0.06,-0.07 0.09,-0.15 0.09,-0.26 0,-0.11 -0.03,-0.19 -0.09,-0.26 -0.06,-0.07 -0.13,-0.1 -0.23,-0.1 -0.09,0 -0.17,0.03 -0.23,0.1 -0.06,0.07 -0.09,0.15 -0.09,0.26z"/>
  <path id="_12_11" class="fil4" d="M21.12 11.05c-0.11,0 -0.21,-0.02 -0.3,-0.06 -0.09,-0.04 -0.17,-0.09 -0.23,-0.16l0.17 -0.23c0.11,0.11 0.22,0.16 0.32,0.16 0.05,0 0.1,-0.01 0.13,-0.03 0.03,-0.02 0.05,-0.04 0.05,-0.08 0,-0.04 -0.02,-0.07 -0.06,-0.09 -0.04,-0.02 -0.08,-0.04 -0.13,-0.05 -0.05,-0.01 -0.08,-0.02 -0.09,-0.03 -0.11,-0.04 -0.2,-0.09 -0.25,-0.16 -0.06,-0.07 -0.08,-0.15 -0.08,-0.24 0,-0.07 0.02,-0.14 0.05,-0.2 0.04,-0.07 0.09,-0.12 0.17,-0.16 0.08,-0.04 0.17,-0.06 0.29,-0.06 0.11,0 0.2,0.01 0.27,0.03 0.08,0.02 0.15,0.06 0.22,0.11l-0.16 0.24c-0.04,-0.03 -0.08,-0.06 -0.13,-0.08 -0.05,-0.02 -0.09,-0.03 -0.13,-0.03 -0.05,0 -0.09,0.01 -0.12,0.03 -0.03,0.02 -0.04,0.04 -0.04,0.07 -0,0.04 0.02,0.07 0.05,0.09 0.04,0.02 0.09,0.04 0.17,0.06 0.01,0 0.02,0.01 0.04,0.01 0.01,0 0.03,0.01 0.04,0.01 0.2,0.07 0.31,0.19 0.31,0.37 0,0.08 -0.02,0.16 -0.06,0.23 -0.04,0.07 -0.1,0.13 -0.19,0.17 -0.08,0.04 -0.19,0.06 -0.31,0.06z"/>
  <path id="_13_12" class="fil4" d="M7.66 12.24c0.12,0 0.23,0.03 0.32,0.09 0.09,0.06 0.17,0.14 0.22,0.25 0.05,0.11 0.08,0.23 0.08,0.38 0,0.14 -0.03,0.27 -0.09,0.37 -0.06,0.1 -0.14,0.18 -0.25,0.24 -0.11,0.05 -0.23,0.08 -0.37,0.08 -0.08,0 -0.15,-0.01 -0.22,-0.04 -0.07,-0.03 -0.13,-0.06 -0.18,-0.11l0 0.74 -0.41 0 0 -1.95 0.36 0 0.04 0.15c0.16,-0.13 0.33,-0.19 0.5,-0.19zm-0.17 1.07c0.1,0 0.19,-0.03 0.26,-0.1 0.07,-0.07 0.11,-0.15 0.11,-0.26 0,-0.11 -0.03,-0.19 -0.1,-0.26 -0.07,-0.07 -0.15,-0.1 -0.24,-0.1 -0.08,0 -0.15,0.02 -0.21,0.05 -0.06,0.03 -0.1,0.08 -0.14,0.15l0 0.32c0.02,0.06 0.06,0.11 0.12,0.15 0.06,0.04 0.12,0.06 0.2,0.06z"/>
  <path id="_14_13" class="fil4" d="M9.02 12.6c0.04,-0.07 0.08,-0.13 0.15,-0.19 0.06,-0.06 0.13,-0.1 0.19,-0.13 0.07,-0.03 0.12,-0.05 0.15,-0.05l-0.02 0.42c-0.01,-0 -0.03,-0 -0.05,-0 -0.08,0 -0.16,0.02 -0.22,0.07 -0.06,0.04 -0.11,0.1 -0.15,0.17 -0.03,0.07 -0.05,0.14 -0.05,0.21l0 0.51 -0.41 0 0 -1.3 0.37 0 0.03 0.3z"/>
  <path id="_15_14" class="fil4" d="M10.42 13.28c0.08,0 0.17,-0.03 0.26,-0.09l0.18 0.31c-0.07,0.04 -0.15,0.07 -0.23,0.1 -0.08,0.02 -0.15,0.04 -0.23,0.04 -0.15,0 -0.29,-0.03 -0.4,-0.09 -0.11,-0.06 -0.2,-0.14 -0.25,-0.25 -0.06,-0.11 -0.09,-0.23 -0.09,-0.36 0,-0.13 0.03,-0.24 0.1,-0.35 0.07,-0.11 0.16,-0.19 0.27,-0.25 0.11,-0.06 0.24,-0.09 0.38,-0.09 0.19,0 0.34,0.05 0.46,0.16 0.12,0.11 0.2,0.26 0.23,0.47l-0.95 0.3c0.06,0.07 0.15,0.11 0.26,0.11zm-0.03 -0.72c-0.09,0 -0.17,0.03 -0.22,0.1 -0.06,0.06 -0.08,0.15 -0.08,0.26l0 0.03 0.57 -0.19c-0.04,-0.12 -0.13,-0.18 -0.26,-0.18z"/>
  <polygon id="_16_15" class="fil4" points="12.69,12.3 11.96,13.63 11.94,13.63 11.17,12.3 11.66,12.3 11.96,12.92 12.23,12.3 "/>
  <path id="_17_16" class="fil4" d="M13.35 12.3l0 1.3 -0.42 0 0 -1.3 0.42 0zm-0.42 -0.46c0,-0.06 0.02,-0.11 0.07,-0.15 0.05,-0.04 0.1,-0.06 0.16,-0.06 0.06,0 0.11,0.02 0.15,0.06 0.05,0.04 0.07,0.09 0.07,0.15 0,0.06 -0.02,0.11 -0.07,0.15 -0.05,0.04 -0.1,0.06 -0.15,0.06 -0.06,0 -0.11,-0.02 -0.16,-0.06 -0.05,-0.04 -0.07,-0.09 -0.07,-0.15z"/>
  <path id="_18_17" class="fil4" d="M13.68 12.94c0,-0.13 0.03,-0.25 0.09,-0.36 0.06,-0.1 0.15,-0.19 0.26,-0.25 0.11,-0.06 0.24,-0.09 0.39,-0.09 0.14,0 0.27,0.03 0.38,0.09 0.11,0.06 0.19,0.14 0.25,0.25 0.06,0.11 0.09,0.22 0.09,0.36 0,0.13 -0.03,0.25 -0.09,0.36 -0.06,0.11 -0.14,0.19 -0.25,0.25 -0.11,0.06 -0.24,0.09 -0.39,0.09 -0.14,0 -0.27,-0.03 -0.38,-0.08 -0.11,-0.06 -0.2,-0.14 -0.26,-0.24 -0.06,-0.11 -0.09,-0.23 -0.09,-0.37zm0.42 0c0,0.1 0.03,0.19 0.09,0.26 0.06,0.07 0.13,0.1 0.23,0.1 0.09,0 0.17,-0.03 0.23,-0.1 0.06,-0.07 0.09,-0.15 0.09,-0.26 0,-0.11 -0.03,-0.19 -0.09,-0.26 -0.06,-0.07 -0.13,-0.1 -0.23,-0.1 -0.09,0 -0.17,0.03 -0.23,0.1 -0.06,0.07 -0.09,0.15 -0.09,0.26z"/>
  <path id="_19_18" class="fil4" d="M15.9 13.63c-0.11,0 -0.21,-0.02 -0.3,-0.06 -0.09,-0.04 -0.17,-0.09 -0.23,-0.16l0.17 -0.23c0.11,0.11 0.22,0.16 0.32,0.16 0.05,0 0.1,-0.01 0.13,-0.03 0.03,-0.02 0.05,-0.04 0.05,-0.08 0,-0.04 -0.02,-0.07 -0.06,-0.09 -0.04,-0.02 -0.08,-0.04 -0.13,-0.05 -0.05,-0.01 -0.08,-0.02 -0.09,-0.03 -0.11,-0.04 -0.2,-0.09 -0.25,-0.16 -0.06,-0.07 -0.08,-0.15 -0.08,-0.24 0,-0.07 0.02,-0.14 0.05,-0.2 0.04,-0.07 0.09,-0.12 0.17,-0.16 0.08,-0.04 0.17,-0.06 0.29,-0.06 0.11,0 0.2,0.01 0.27,0.03 0.08,0.02 0.15,0.06 0.22,0.11l-0.16 0.24c-0.04,-0.03 -0.08,-0.06 -0.13,-0.08 -0.05,-0.02 -0.09,-0.03 -0.13,-0.03 -0.05,0 -0.09,0.01 -0.12,0.03 -0.03,0.02 -0.04,0.04 -0.04,0.07 -0,0.04 0.02,0.07 0.05,0.09 0.04,0.02 0.09,0.04 0.17,0.06 0.01,0 0.02,0.01 0.04,0.01 0.01,0 0.03,0.01 0.04,0.01 0.2,0.07 0.31,0.19 0.31,0.37 0,0.08 -0.02,0.16 -0.06,0.23 -0.04,0.07 -0.1,0.13 -0.19,0.17 -0.08,0.04 -0.19,0.06 -0.31,0.06z"/>
 </g>
</svg>
